<svg xmlns="http://www.w3.org/2000/svg" viewBox="0 0 10.32 10.32"><defs><style>.cls-1{fill:#bdb6ac;fill-rule:evenodd;}.cls-2{fill:none;}</style></defs><title>Asset 4</title><g id="Layer_2" data-name="Layer 2"><g id="Layer_1-2" data-name="Layer 1"><path class="cls-1" d="M3.88,8a4,4,0,0,0,4-4V3.75A2.9,2.9,0,0,0,8.62,3a2.84,2.84,0,0,1-.82.22,1.4,1.4,0,0,0,.63-.78,2.89,2.89,0,0,1-.9.34,1.45,1.45,0,0,0-1-.45A1.43,1.43,0,0,0,5.07,3.77a1.12,1.12,0,0,0,0,.32A4,4,0,0,1,2.19,2.61,1.46,1.46,0,0,0,2,3.33a1.43,1.43,0,0,0,.63,1.18A1.44,1.44,0,0,1,2,4.33v0A1.42,1.42,0,0,0,3.12,5.74a1.5,1.5,0,0,1-.37,0,1.24,1.24,0,0,1-.27,0,1.45,1.45,0,0,0,1.33,1A2.86,2.86,0,0,1,2,7.35a1.83,1.83,0,0,1-.33,0A4,4,0,0,0,3.88,8Z"/><rect class="cls-2" width="10.32" height="10.32"/></g></g></svg>