<svg xmlns="http://www.w3.org/2000/svg" viewBox="0 0 58.08 29.36"><defs><style>.cls-1{fill:#b2b09c;}.cls-1,.cls-2,.cls-3{fill-rule:evenodd;}.cls-2{fill:#1c1b17;}.cls-3{fill:#c7212c;}</style></defs><title>Asset 1</title><g id="Layer_2" data-name="Layer 2"><g id="Layer_1-2" data-name="Layer 1"><path class="cls-1" d="M38.36,24.12a.88.88,0,0,1-1.08.31c-.19-.06-.33-.33-.48-.59a2.26,2.26,0,0,1-.21-.56c-.41-1.64-1.44-3.32-1.86-4.62-.25-.74.45-1.38,1.07-.85a3.15,3.15,0,0,1,.4.6c.17.41.56,1.76.82,2.5a14.92,14.92,0,0,0,.67,1.55c.61-1.48,1.17-3.34,1.65-4.6a.55.55,0,0,1,.65-.29c.66.28.64.85.42,1.43s-.75,1.76-1.18,2.81S38.62,23.64,38.36,24.12Z"/><path class="cls-1" d="M31.9,24.83A4,4,0,0,1,30,24.45c-1.38-.73-1.71-2.46-.66-3.06.47-.27.9.09.67.7-.69,1.77,2.86,2.54,3.67.62.29-.69-.11-1.07-.66-1.31-.93-.4-1.91-.38-2.85-1a1.34,1.34,0,0,1-.63-1.18,1.74,1.74,0,0,1,1.05-1.42c1.25-.63,3.17-.59,3.34.73.08.54-.52.71-.92.19a1.08,1.08,0,0,0-.84-.38c-.49,0-1.52.19-1.47.82,0,.25.31.49.66.69a19.31,19.31,0,0,0,2.42.75,1.66,1.66,0,0,1,1.06,2.14A2.87,2.87,0,0,1,31.9,24.83Z"/><path class="cls-2" d="M55.37,16.72h-.21a3.38,3.38,0,0,0-1.5.08c-.14,0-.43,0-.51,0-.83-.11-.76-1.41.13-1.3a27,27,0,0,0,4-.08.54.54,0,0,1,.5.5C57.72,17.35,56.07,16.75,55.37,16.72Z"/><path class="cls-1" d="M1.45,22.28A4.11,4.11,0,0,1,1.51,21c.31-1.33,1.24-2.1,1.92-1.58.21.16.46.6.84.36.9-.58.16-1.53-.57-1.8a1.81,1.81,0,0,0-2.16.81c-.32.49-.21-.29-.24-.44A.65.65,0,0,0,0,18.54a56.53,56.53,0,0,1,.17,5.68.54.54,0,0,0,.52.48C2,24.59,1.51,23,1.45,22.28Z"/><path class="cls-2" d="M7.86,16.72H7.64a3.31,3.31,0,0,0-1.49.08c-.15,0-.43,0-.51,0a.65.65,0,1,1,.13-1.3,26.88,26.88,0,0,0,4-.08.54.54,0,0,1,.5.5C10.2,17.35,8.55,16.75,7.86,16.72Z"/><path class="cls-3" d="M30.75,14.53a1.61,1.61,0,0,0,.92,0c.37-.07.52.06.9-.1a2.74,2.74,0,0,0,1.17-.2c.32-.31,0-5.76.15-6.39.24-1.6-.09-1,0-1.57a6.32,6.32,0,0,0,0-1.57c0-.53-.08-1.21-.08-1.72s.1-1.27-.23-1.51c0-.2.15-.38,0-.52s0-.61-.18-.67l0,0-.14,0A1.2,1.2,0,0,0,33,.18L31.83.07c-.46,0-.31.1-.35,0l-.27,0L30,.18a7.79,7.79,0,0,0-.07,1.29c.11.93-.06,2,.1,2.88a32.37,32.37,0,0,1,.13,4.29,18.39,18.39,0,0,0-.06,2.86c-.1.12,0-.05-.07.18l.11,2.71C30.49,14.65,30.23,14.56,30.75,14.53Z"/><path class="cls-3" d="M26.82,2.37l0,0c0,.25,0,0-.06.16-.05,0,0-.13,0-.18Zm-1.13-.7-.1.08.1-.08Zm-.11.09,0,0-.15.06.15-.09ZM25.29,2a.66.66,0,0,0,.13.21A.51.51,0,0,1,25.29,2ZM27.74.46a.8.8,0,0,1-.3-.19c-.13-.11-.06-.13-.32-.15L26,0a6.58,6.58,0,0,0-1.31.1c-.21,0-.07,0-.19,0-.37.29-.28.91-.27,1.65s0,1.27,0,1.91a34.46,34.46,0,0,1,0,3.66c0,.64,0,1.24,0,1.85,0,.89-.25,5,.09,5.4a5.05,5.05,0,0,0,1.93.05c1.46-.17,1.78.36,1.67-1.3,0-.2,0-.1,0-.28l0-2.14a4.53,4.53,0,0,1,.09-.74,15.83,15.83,0,0,0,0-1.67A10.67,10.67,0,0,1,28,7c0-.5,0-1.13,0-1.67L27.83,2c0-.26,0-.62,0-.88S28,.57,27.74.46ZM25.58,1.74l.11-.07-.11.07Z"/><path class="cls-1" d="M10.23,24.58a.47.47,0,0,1-.58-.69.83.83,0,0,0,.07-.13,3.12,3.12,0,0,1-1.46.67A3.23,3.23,0,0,1,5,23.53a1.75,1.75,0,0,1-.38-1.35,1.33,1.33,0,0,1,.21-.74,3.61,3.61,0,0,1,1.48-1.28A4.65,4.65,0,0,1,9,20c.14,0,.29.08.38,0s-.19-.63-.3-.76a1.71,1.71,0,0,0-.44-.37,2,2,0,0,0-2.4.18c-.41.51-1,.32-.92-.22.2-1.11,3.14-1.84,4.61-.2a4.21,4.21,0,0,1,.85,2c.12.81.13,3.7-.58,3.94ZM6.18,23.19a2.15,2.15,0,0,0,3.26-.91c.28-.89-.65-1.52-1.7-1.43a3.42,3.42,0,0,0-1.4.51C5.67,21.84,5.44,22.55,6.18,23.19Z"/><path class="cls-1" d="M48.71,22.28A3.83,3.83,0,0,1,48.77,21c.3-1.33,1.24-2.1,1.92-1.58.2.16.45.6.84.36.9-.58.15-1.53-.57-1.8a1.8,1.8,0,0,0-2.16.81c-.33.49-.22-.29-.24-.44a.65.65,0,0,0-1.29.19,53.72,53.72,0,0,1,.16,5.68.54.54,0,0,0,.53.48C49.26,24.59,48.77,23,48.71,22.28Z"/><path class="cls-1" d="M12.91,19.17a1.22,1.22,0,0,1,.22-1.56c1.47-1.65,4.41-.91,4.61.2.09.53-.51.73-.92.21a2.08,2.08,0,0,0-2.4-.17c-.26.13-.49.51-.4.71a.62.62,0,0,0,.3.23,4,4,0,0,1,.6,0A3,3,0,0,1,16.78,24a2.43,2.43,0,0,1,1.55,3.59c-1,1.79-3.73,2.15-5.48,1.44s-2.39-2.8-1.2-3.7c.56-.43,1,0,.74.77-.72,2.36,4.19,3.12,5.05.56.42-1.27-1.36-1.82-2.43-1.93h-.1l-.81-.08-.29-.07a2.74,2.74,0,0,1-1.64-1,2.7,2.7,0,0,1-.59-1.9,3,3,0,0,1,.79-2.11,3.11,3.11,0,0,1,.54-.35Zm1.21,4.53a4.35,4.35,0,0,0,.69.05A2.29,2.29,0,0,0,16.34,23a2.09,2.09,0,0,0-.53-3,2.25,2.25,0,0,0-2.7.35,2.13,2.13,0,0,0-.34,2A1.8,1.8,0,0,0,14.12,23.7Z"/><path class="cls-1" d="M24,24.58a.47.47,0,0,1-.58-.69.83.83,0,0,0,.07-.13,3.11,3.11,0,0,1-1.47.67,3.22,3.22,0,0,1-3.28-.9,1.75,1.75,0,0,1-.38-1.35,1.25,1.25,0,0,1,.21-.74,3.61,3.61,0,0,1,1.48-1.28A4.65,4.65,0,0,1,22.82,20c.14,0,.29.08.38,0s-.19-.63-.3-.76a1.71,1.71,0,0,0-.44-.37,2,2,0,0,0-2.4.18c-.41.51-1,.32-.92-.22.2-1.11,3.14-1.84,4.61-.2a4.21,4.21,0,0,1,.85,2c.12.81.13,3.7-.58,3.94ZM20,23.19a2.15,2.15,0,0,0,3.26-.91c.28-.89-.65-1.52-1.7-1.43a3.42,3.42,0,0,0-1.4.51C19.46,21.84,19.23,22.55,20,23.19Z"/><path class="cls-1" d="M46.05,24.58a.47.47,0,0,1-.58-.69l.07-.13a3.11,3.11,0,0,1-1.47.67,3.22,3.22,0,0,1-3.28-.9,1.8,1.8,0,0,1-.39-1.35,1.36,1.36,0,0,1,.22-.74,3.55,3.55,0,0,1,1.48-1.28A4.62,4.62,0,0,1,44.84,20c.15,0,.3.08.38,0s-.18-.63-.29-.76a1.71,1.71,0,0,0-.44-.37,2,2,0,0,0-2.41.18c-.41.51-1,.32-.91-.22.2-1.11,3.14-1.84,4.61-.2a4.1,4.1,0,0,1,.84,2c.13.81.13,3.7-.57,3.94ZM42,23.19a2.16,2.16,0,0,0,3.27-.91c.28-.89-.65-1.52-1.7-1.43a3.42,3.42,0,0,0-1.4.51C41.48,21.84,41.26,22.55,42,23.19Z"/><path class="cls-1" d="M57.44,24.58a.47.47,0,0,1-.58-.69l.07-.13a3.11,3.11,0,0,1-1.47.67,3.22,3.22,0,0,1-3.28-.9,1.8,1.8,0,0,1-.39-1.35,1.36,1.36,0,0,1,.22-.74,3.61,3.61,0,0,1,1.48-1.28A4.62,4.62,0,0,1,56.23,20c.15,0,.3.08.38,0s-.18-.63-.29-.76a1.71,1.71,0,0,0-.44-.37,2,2,0,0,0-2.41.18c-.41.51-1,.32-.91-.22.2-1.11,3.14-1.84,4.61-.2a4.1,4.1,0,0,1,.84,2c.13.81.13,3.7-.57,3.94Zm-4.06-1.39a2.16,2.16,0,0,0,3.27-.91c.28-.89-.65-1.52-1.7-1.43a3.42,3.42,0,0,0-1.4.51C52.87,21.84,52.65,22.55,53.38,23.19Z"/><path class="cls-1" d="M38.36,24.12a.88.88,0,0,1-1.08.31c-.19-.06-.33-.33-.48-.59a2.26,2.26,0,0,1-.21-.56c-.41-1.64-1.44-3.32-1.86-4.62-.25-.74.45-1.38,1.07-.85a3.15,3.15,0,0,1,.4.6c.17.41.56,1.76.82,2.5a14.92,14.92,0,0,0,.67,1.55c.61-1.48,1.17-3.34,1.65-4.6a.55.55,0,0,1,.65-.29c.66.28.64.85.42,1.43s-.75,1.76-1.18,2.81S38.62,23.64,38.36,24.12Z"/><path class="cls-1" d="M31.9,24.83A4,4,0,0,1,30,24.45c-1.38-.73-1.71-2.46-.66-3.06.47-.27.9.09.67.7-.69,1.77,2.86,2.54,3.67.62.29-.69-.11-1.07-.66-1.31-.93-.4-1.91-.38-2.85-1a1.34,1.34,0,0,1-.63-1.18,1.74,1.74,0,0,1,1.05-1.42c1.25-.63,3.17-.59,3.34.73.08.54-.52.71-.92.19a1.08,1.08,0,0,0-.84-.38c-.49,0-1.52.19-1.47.82,0,.25.31.49.66.69a19.31,19.31,0,0,0,2.42.75,1.66,1.66,0,0,1,1.06,2.14A2.87,2.87,0,0,1,31.9,24.83Z"/><path class="cls-2" d="M55.37,16.72h-.21a3.38,3.38,0,0,0-1.5.08c-.14,0-.43,0-.51,0-.83-.11-.76-1.41.13-1.3a27,27,0,0,0,4-.08.54.54,0,0,1,.5.5C57.72,17.35,56.07,16.75,55.37,16.72Z"/><path class="cls-1" d="M1.45,22.28A4.11,4.11,0,0,1,1.51,21c.31-1.33,1.24-2.1,1.92-1.58.21.16.46.6.84.36.9-.58.16-1.53-.57-1.8a1.81,1.81,0,0,0-2.16.81c-.32.49-.21-.29-.24-.44A.65.65,0,0,0,0,18.54a56.53,56.53,0,0,1,.17,5.68.54.54,0,0,0,.52.48C2,24.59,1.51,23,1.45,22.28Z"/><path class="cls-2" d="M7.86,16.72H7.64a3.31,3.31,0,0,0-1.49.08c-.15,0-.43,0-.51,0a.65.65,0,1,1,.13-1.3,26.88,26.88,0,0,0,4-.08.54.54,0,0,1,.5.5C10.2,17.35,8.55,16.75,7.86,16.72Z"/><path class="cls-3" d="M30.75,14.53a1.61,1.61,0,0,0,.92,0c.37-.07.52.06.9-.1a2.74,2.74,0,0,0,1.17-.2c.32-.31,0-5.76.15-6.39.24-1.6-.09-1,0-1.57a6.32,6.32,0,0,0,0-1.57c0-.53-.08-1.21-.08-1.72s.1-1.27-.23-1.51c0-.2.15-.38,0-.52s0-.61-.18-.67l0,0-.14,0A1.2,1.2,0,0,0,33,.18L31.83.07c-.46,0-.31.1-.35,0l-.27,0L30,.18a7.79,7.79,0,0,0-.07,1.29c.11.93-.06,2,.1,2.88a32.37,32.37,0,0,1,.13,4.29,18.39,18.39,0,0,0-.06,2.86c-.1.12,0-.05-.07.18l.11,2.71C30.49,14.65,30.23,14.56,30.75,14.53Z"/><path class="cls-3" d="M26.82,2.37l0,0c0,.25,0,0-.06.16-.05,0,0-.13,0-.18Zm-1.13-.7-.1.08.1-.08Zm-.11.09,0,0-.15.06.15-.09ZM25.29,2a.66.66,0,0,0,.13.21A.51.51,0,0,1,25.29,2ZM27.74.46a.8.8,0,0,1-.3-.19c-.13-.11-.06-.13-.32-.15L26,0a6.58,6.58,0,0,0-1.31.1c-.21,0-.07,0-.19,0-.37.29-.28.91-.27,1.65s0,1.27,0,1.91a34.46,34.46,0,0,1,0,3.66c0,.64,0,1.24,0,1.85,0,.89-.25,5,.09,5.4a5.05,5.05,0,0,0,1.93.05c1.46-.17,1.78.36,1.67-1.3,0-.2,0-.1,0-.28l0-2.14a4.53,4.53,0,0,1,.09-.74,15.83,15.83,0,0,0,0-1.67A10.67,10.67,0,0,1,28,7c0-.5,0-1.13,0-1.67L27.83,2c0-.26,0-.62,0-.88S28,.57,27.74.46ZM25.58,1.74l.11-.07-.11.07Z"/><path class="cls-1" d="M10.23,24.58a.47.47,0,0,1-.58-.69.83.83,0,0,0,.07-.13,3.12,3.12,0,0,1-1.46.67A3.23,3.23,0,0,1,5,23.53a1.75,1.75,0,0,1-.38-1.35,1.33,1.33,0,0,1,.21-.74,3.61,3.61,0,0,1,1.48-1.28A4.65,4.65,0,0,1,9,20c.14,0,.29.08.38,0s-.19-.63-.3-.76a1.71,1.71,0,0,0-.44-.37,2,2,0,0,0-2.4.18c-.41.51-1,.32-.92-.22.2-1.11,3.14-1.84,4.61-.2a4.21,4.21,0,0,1,.85,2c.12.81.13,3.7-.58,3.94ZM6.18,23.19a2.15,2.15,0,0,0,3.26-.91c.28-.89-.65-1.52-1.7-1.43a3.42,3.42,0,0,0-1.4.51C5.67,21.84,5.44,22.55,6.18,23.19Z"/><path class="cls-1" d="M48.71,22.28A3.83,3.83,0,0,1,48.77,21c.3-1.33,1.24-2.1,1.92-1.58.2.16.45.6.84.36.9-.58.15-1.53-.57-1.8a1.8,1.8,0,0,0-2.16.81c-.33.49-.22-.29-.24-.44a.65.65,0,0,0-1.29.19,53.72,53.72,0,0,1,.16,5.68.54.54,0,0,0,.53.48C49.26,24.59,48.77,23,48.71,22.28Z"/><path class="cls-1" d="M12.91,19.17a1.22,1.22,0,0,1,.22-1.56c1.47-1.65,4.41-.91,4.61.2.09.53-.51.73-.92.21a2.08,2.08,0,0,0-2.4-.17c-.26.13-.49.51-.4.71a.62.62,0,0,0,.3.23,4,4,0,0,1,.6,0A3,3,0,0,1,16.78,24a2.43,2.43,0,0,1,1.55,3.59c-1,1.79-3.73,2.15-5.48,1.44s-2.39-2.8-1.2-3.7c.56-.43,1,0,.74.77-.72,2.36,4.19,3.12,5.05.56.42-1.27-1.36-1.82-2.43-1.93h-.1l-.81-.08-.29-.07a2.74,2.74,0,0,1-1.64-1,2.7,2.7,0,0,1-.59-1.9,3,3,0,0,1,.79-2.11,3.11,3.11,0,0,1,.54-.35Zm1.21,4.53a4.35,4.35,0,0,0,.69.05A2.29,2.29,0,0,0,16.34,23a2.09,2.09,0,0,0-.53-3,2.25,2.25,0,0,0-2.7.35,2.13,2.13,0,0,0-.34,2A1.8,1.8,0,0,0,14.12,23.7Z"/><path class="cls-1" d="M24,24.58a.47.47,0,0,1-.58-.69.83.83,0,0,0,.07-.13,3.11,3.11,0,0,1-1.47.67,3.22,3.22,0,0,1-3.28-.9,1.75,1.75,0,0,1-.38-1.35,1.25,1.25,0,0,1,.21-.74,3.61,3.61,0,0,1,1.48-1.28A4.65,4.65,0,0,1,22.82,20c.14,0,.29.08.38,0s-.19-.63-.3-.76a1.71,1.71,0,0,0-.44-.37,2,2,0,0,0-2.4.18c-.41.51-1,.32-.92-.22.2-1.11,3.14-1.84,4.61-.2a4.21,4.21,0,0,1,.85,2c.12.81.13,3.7-.58,3.94ZM20,23.19a2.15,2.15,0,0,0,3.26-.91c.28-.89-.65-1.52-1.7-1.43a3.42,3.42,0,0,0-1.4.51C19.46,21.84,19.23,22.55,20,23.19Z"/><path class="cls-1" d="M46.05,24.58a.47.47,0,0,1-.58-.69l.07-.13a3.11,3.11,0,0,1-1.47.67,3.22,3.22,0,0,1-3.28-.9,1.8,1.8,0,0,1-.39-1.35,1.36,1.36,0,0,1,.22-.74,3.55,3.55,0,0,1,1.48-1.28A4.62,4.62,0,0,1,44.84,20c.15,0,.3.08.38,0s-.18-.63-.29-.76a1.71,1.71,0,0,0-.44-.37,2,2,0,0,0-2.41.18c-.41.51-1,.32-.91-.22.2-1.11,3.14-1.84,4.61-.2a4.1,4.1,0,0,1,.84,2c.13.81.13,3.7-.57,3.94ZM42,23.19a2.16,2.16,0,0,0,3.27-.91c.28-.89-.65-1.52-1.7-1.43a3.42,3.42,0,0,0-1.4.51C41.48,21.84,41.26,22.55,42,23.19Z"/><path class="cls-1" d="M57.44,24.58a.47.47,0,0,1-.58-.69l.07-.13a3.11,3.11,0,0,1-1.47.67,3.22,3.22,0,0,1-3.28-.9,1.8,1.8,0,0,1-.39-1.35,1.36,1.36,0,0,1,.22-.74,3.61,3.61,0,0,1,1.48-1.28A4.62,4.62,0,0,1,56.23,20c.15,0,.3.08.38,0s-.18-.63-.29-.76a1.71,1.71,0,0,0-.44-.37,2,2,0,0,0-2.41.18c-.41.51-1,.32-.91-.22.2-1.11,3.14-1.84,4.61-.2a4.1,4.1,0,0,1,.84,2c.13.81.13,3.7-.57,3.94Zm-4.06-1.39a2.16,2.16,0,0,0,3.27-.91c.28-.89-.65-1.52-1.7-1.43a3.42,3.42,0,0,0-1.4.51C52.87,21.84,52.65,22.55,53.38,23.19Z"/></g></g></svg>