<svg xmlns="http://www.w3.org/2000/svg" viewBox="0 0 36.83 34.78"><defs><style>.cls-1{fill:#bfb999;fill-rule:evenodd;}</style></defs><title>Asset 7</title><g id="Layer_2" data-name="Layer 2"><g id="Layer_1-2" data-name="Layer 1"><path class="cls-1" d="M17.49,14.07l-.13.17c.19.15.06,0,.25.07s.08.08.29.07c.52,0,.26.3.55.08-.07-.2-.27-.13-.43-.2a.93.93,0,0,0-.25-.1c-.17,0-.06,0-.28-.09Z"/><path class="cls-1" d="M13.66,20.53c.14.24.76.19.84.15-.09-.12-.67-.47-.84-.15Z"/><path class="cls-1" d="M15,32c.06-.05.36-.59.13-.8-.21,0-.19.18-.2.35v.37c0,.1,0,.05.08.08Z"/><path class="cls-1" d="M12.35,32.5c0-.06.31-.76,0-.75s-.16.6,0,.75Z"/><path class="cls-1" d="M16.77,21.38c0,.26.19.22.36.2s.23,0,.38-.1c-.13-.11-.54-.25-.74-.1Z"/><path class="cls-1" d="M16.5,13.61c-.1,0-.19.1-.25.11s0,0-.13,0-.07.05-.09.1.21,0,.47,0,.35.18.55.19c0-.13.21,0-.24-.18a1.5,1.5,0,0,1-.31-.24Z"/><path class="cls-1" d="M18.28,20.58v.16c.13.09.19.06.34.07.36,0,.18.11.38,0a.67.67,0,0,0-.71-.25Z"/><path class="cls-1" d="M17.49,24.54c-.06.14,0,0,0,.2a.82.82,0,0,0,.68.06.88.88,0,0,0-.65-.26Z"/><path class="cls-1" d="M12.09,20a.64.64,0,0,0,.6.31.77.77,0,0,0-.28-.35c-.15-.13-.19-.13-.32,0Z"/><path class="cls-1" d="M15.65,11.15c0,.22.1.17.28.18a1,1,0,0,0,.44-.05c-.18-.15-.52-.3-.72-.13Z"/><path class="cls-1" d="M18.61,24.36c-.09-.22-.61-.34-.67-.19s.19.21.28.21a1.25,1.25,0,0,0,.39,0Z"/><path class="cls-1" d="M19.82,14c.16-.09.09-.22.07-.52a.33.33,0,0,0-.05-.2.53.53,0,0,0-.15.36c0,.16,0,.22,0,.28s.12.08.13.08Z"/><path class="cls-1" d="M15.66,21.35c-.15-.12-.69-.39-.69-.09s.18.12.3.12.19.1.39,0Z"/><path class="cls-1" d="M17.78,11.41l.07-.05-.06-.06a1.86,1.86,0,0,0-.34-.19c-.17-.07-.2,0-.28.11.16.21.42.16.61.19Z"/><path class="cls-1" d="M17,23c0,.07,0,.06.1.14a1.15,1.15,0,0,0,.57,0c-.11-.13-.56-.44-.67-.16Z"/><path class="cls-1" d="M20,21.2l-.11.08.14.2a.61.61,0,0,0,.5.06.83.83,0,0,0-.27-.23l-.12-.08c-.13-.06-.05,0-.14,0Z"/><path class="cls-1" d="M16,24.26c.12.16.23.13.37.13a.93.93,0,0,0,.4-.06.66.66,0,0,0-.37-.13c-.25-.05-.22-.18-.4.06Z"/><path class="cls-1" d="M15.55,13.1c.1.19.1.17.3.13a1.16,1.16,0,0,0,.39-.06c-.22-.16-.56-.29-.69-.07Z"/><path class="cls-1" d="M17.3,13.2c-.06.14,0,.06,0,.21a.76.76,0,0,0,.61,0,.75.75,0,0,0-.59-.22Z"/><path class="cls-1" d="M17,11.89s-.1.15.3.13c.19,0,.2,0,.35,0,0-.06,0,0-.05-.1s-.5-.33-.6,0Z"/><path class="cls-1" d="M16.37,23.64s0,0,0,0,.39.19.63,0c-.18-.12-.52-.34-.64-.08Z"/><path class="cls-1" d="M14.91,13.63c.12.23.09.15.29.18s.13.1.35,0c-.1-.15-.13-.14-.29-.22s-.2-.13-.35,0Z"/><path class="cls-1" d="M15.65,5.14S15,4.77,15,5.05s.17.15.28.16.21.08.34-.07Z"/><path class="cls-1" d="M13.38,23.87c.1.21.15.16.32.15a.52.52,0,0,0,.35-.07.56.56,0,0,0-.35-.14c-.15,0-.18-.07-.32.06Z"/><path class="cls-1" d="M17,22.18l.08-.05L17,22.06c-.11,0-.36-.15-.45-.11a.11.11,0,0,0,0,.22.76.76,0,0,0,.45,0Z"/><path class="cls-1" d="M10.5,32.34a.42.42,0,0,0,.12-.32c0-.08.07-.28-.1-.28s-.16.43,0,.6Z"/><path class="cls-1" d="M18.8,25.28c0,.15.08.2.2.23a.34.34,0,0,0,.37-.1c-.16-.1-.41-.27-.57-.13Z"/><path class="cls-1" d="M17.32,20.74l.08-.07-.08-.08c-.23,0-.31-.13-.54.05l.07.17a1.78,1.78,0,0,0,.47-.07Z"/><path class="cls-1" d="M15.62,22.75c.06.3.47.18.63.1a1.12,1.12,0,0,0-.32-.14c-.2-.07-.19-.1-.31,0Z"/><path class="cls-1" d="M23.63,27.53c.18.08.14,0,.34-.12s.18,0,.27-.16c-.23-.22-.58.08-.61.28Z"/><path class="cls-1" d="M14.94,4.09c.17,0,.13-.13.12-.28s.07-.17,0-.34c-.16.12-.36.53-.11.62Z"/><path class="cls-1" d="M12.19,23.32c.05.21.42.29.58.24,0-.15-.14-.14-.27-.23s-.2-.19-.31,0Z"/><path class="cls-1" d="M14.86,23.91l-.11.13c.12.28.51.11.59.05a.76.76,0,0,0-.48-.18Z"/><path class="cls-1" d="M13.3,23c.09.26.41.17.57,0a.68.68,0,0,0-.3-.11c-.14,0-.21-.06-.27.09Z"/><path class="cls-1" d="M16.1,3.4c.17-.16.12-.12,0-.31s-.05-.29-.17-.24,0,.44.14.55Z"/><path class="cls-1" d="M14.68,2.44c.17-.09.09-.08.06-.27s0-.14-.06-.31c-.1.1-.18.17-.18.31l.08.22c.11.1.07,0,.1,0Z"/><path class="cls-1" d="M13.59,31.24c0,.15,0,.09.21.09s.19.07.35,0a.3.3,0,0,0-.41-.2l-.09,0a.11.11,0,0,0-.06.08Z"/><path class="cls-1" d="M11.75,22.61a1,1,0,0,0,.61.11.72.72,0,0,0-.6-.27v.16Z"/><path class="cls-1" d="M22.71,24.76c.13.15.14.11.31,0s.2,0,.34-.12a.83.83,0,0,0-.34-.07c-.17,0-.21,0-.31.14Z"/><path class="cls-1" d="M13.12,32c.14.17.12.08.35,0a1.09,1.09,0,0,0,.39-.11c-.1-.07-.59-.11-.74.09Z"/><path class="cls-1" d="M14.09,22.48c.09.17.06.16.26.14a1,1,0,0,0,.34-.05c-.19-.16-.41-.28-.6-.09Z"/><path class="cls-1" d="M13.09,33.37c-.1-.1-.65-.31-.64,0s.58,0,.64,0Z"/><path class="cls-1" d="M17.83,22.33a.35.35,0,0,0,.57,0,.46.46,0,0,0-.28-.11c-.14,0-.18-.05-.29.08Z"/><path class="cls-1" d="M14.63,23.24c.07.17.12.19.28.19s.22,0,.32-.06a.55.55,0,0,0-.6-.13Z"/><path class="cls-1" d="M25.79,24.83l.09-.07-.08-.08c-.2,0-.41,0-.53.18.17.14,0,.11.26,0s.17,0,.26-.06Z"/><path class="cls-1" d="M15.33,21.91c-.14-.07-.56-.23-.56,0s.47.06.56,0Z"/><path class="cls-1" d="M18.9,21.63l.13-.08-.11-.07c-.19-.08-.27-.12-.45,0,.12.2.24.2.43.11Z"/><path class="cls-1" d="M15.37,20.68c.09.22.46.08.51.05s-.28-.25-.41-.2-.1.14-.1.15Z"/><path class="cls-1" d="M10.55,29.31a.85.85,0,0,0,.11.56l.07-.1a.89.89,0,0,0,0-.46c-.1,0-.06,0-.17,0Z"/><path class="cls-1" d="M24.1,25.23l.3.43a.39.39,0,0,0-.14-.54l-.16.11Z"/><path class="cls-1" d="M12.72,22.29c0,.09,0,.09.1.14a1.49,1.49,0,0,0,.45-.07c-.06-.06-.44-.33-.55-.07Z"/><path class="cls-1" d="M11.8,33.93c.13.14.16.11.31.1s.19,0,.34-.07c-.16-.13-.14-.07-.34-.11s-.21-.06-.31.08Z"/><path class="cls-1" d="M19.78,13a1.66,1.66,0,0,0-.07-.47c-.27.16-.24.68.07.47Z"/><path class="cls-1" d="M11.23,23c.07.17.07.13.24.17s.13.07.32,0c-.22-.18-.38-.4-.56-.18Z"/><path class="cls-1" d="M13.9,30.4a.45.45,0,0,1,0,.11c.21.13.08,0,.28,0s.13.08.29,0a.37.37,0,0,0-.56-.15Z"/><path class="cls-1" d="M13.32,21.14c.16.19.07.12.28.1s.11,0,.3,0c-.21-.2-.45-.31-.58-.08Z"/><path class="cls-1" d="M12.44,30.1v.13a1.82,1.82,0,0,0,.58.05c-.19-.2-.41-.3-.58-.18Z"/><path class="cls-1" d="M19.77,23c0,.51.4,0,.3-.27-.17,0-.2.12-.3.27Z"/><path class="cls-1" d="M20.38,23.65l.16.16.21-.34c0-.11,0-.07,0-.14-.21,0-.28.12-.38.32Z"/><path class="cls-1" d="M10.8,31a.85.85,0,0,0,.11-.26.22.22,0,0,0-.08-.28c-.19.16-.24.39,0,.54Z"/><path class="cls-1" d="M11,33.93l.09-.07L11,33.8c-.18,0-.09,0-.23-.09s-.24.14-.24.14.34.09.47.08Z"/><path class="cls-1" d="M17.6,12.64c-.1-.11-.55-.27-.54,0s.15.11.24.1a.75.75,0,0,0,.3-.08Z"/><path class="cls-1" d="M11.3,32.68c.07-.1.22-.46,0-.46s-.13.1-.12.2a.24.24,0,0,0,.15.26Z"/><path class="cls-1" d="M25.51,26c.12.13.11.11.27,0a2.34,2.34,0,0,0,.27-.15.35.35,0,0,0-.54.13Z"/><path class="cls-1" d="M11.33,31.2a.46.46,0,0,0,.11.41.42.42,0,0,0,.11-.41l-.1-.16-.12.16Z"/><path class="cls-1" d="M11.6,29.89s-.19-.08-.1.24a.64.64,0,0,0,.1.26.38.38,0,0,0,.12-.29c0-.19,0-.16-.12-.21Z"/><path class="cls-1" d="M12.78,34.49c0,.07-.06,0,.15.24l.35-.11c-.15-.15-.13,0-.16-.14a.43.43,0,0,0-.17,0c-.12,0-.07,0-.17,0Z"/><path class="cls-1" d="M15.91,31.12a.63.63,0,0,0,0,.52.43.43,0,0,0,.13-.47l-.17-.05Z"/><path class="cls-1" d="M16.89,5.5c-.09-.11-.44-.46-.46-.18,0,.12.11.14.22.19s.13.09.24,0Z"/><path class="cls-1" d="M14.88,11.61c-.5.24-.24.92,0,.15,0-.12,0,0,0-.15Z"/><path class="cls-1" d="M23.13,25.67l.27.31a.29.29,0,0,0,0-.27.38.38,0,0,0-.13-.25c-.11.08-.13.06-.15.21Z"/><path class="cls-1" d="M26,24.21c-.1-.07-.51-.25-.5,0s.13.08.22.07.18,0,.28-.1Z"/><path class="cls-1" d="M18.63,11.38l0,.14c.1.11.32.22.43.1a.34.34,0,0,0-.39-.24Z"/><path class="cls-1" d="M15.8,4c-.19.07-.21.41,0,.47s.12-.09.1-.18A1.11,1.11,0,0,0,15.8,4Z"/><path class="cls-1" d="M15.51,3.26c.13-.13.13,0,.06-.23a.34.34,0,0,0-.14-.21c-.18.15-.14.35.08.44Z"/><path class="cls-1" d="M15.51,32.77c.15-.13.24-.31.05-.45a.26.26,0,0,0-.05.45Z"/><path class="cls-1" d="M28.29,23.75V23.6c0-.1,0-.14-.08-.17s-.16.05-.21.15l.21.28.08-.11Z"/><path class="cls-1" d="M25.08,26.66c.12.13.4,0,.54-.07a.54.54,0,0,0-.3-.09c-.16,0-.15,0-.24.16Z"/><path class="cls-1" d="M21.09,22.7s.09.13.15-.2c0-.14.05-.15-.06-.25-.16.13-.27.36-.09.45Z"/><path class="cls-1" d="M15.33,2.32l.21-.14a1.11,1.11,0,0,0-.24-.27c-.17.17-.12.3,0,.41Z"/><path class="cls-1" d="M28.7,24.72l0,.07.09-.11c0-.08.08-.18,0-.27s-.1-.08-.11-.08c-.21.1-.11.21,0,.39Z"/><path class="cls-1" d="M13.62,33.9a.47.47,0,0,0,.59,0,.53.53,0,0,0-.59,0Z"/><path class="cls-1" d="M24.28,24.51a.67.67,0,0,0,.46-.11c-.14-.16-.52-.2-.46.11Z"/><path class="cls-1" d="M13.47,21.66l.1-.06-.1-.05a.83.83,0,0,0-.44.05v.19l.43-.13Z"/><path class="cls-1" d="M19.28,24.17c.16-.1.29-.27.23-.44a1,1,0,0,0-.27.21c-.1.11-.1.16,0,.23Z"/><path class="cls-1" d="M17,4.61c.08-.13.07-.07,0-.22a.4.4,0,0,0-.14-.25c-.14.19-.14.38.1.47Z"/><path class="cls-1" d="M14.68,32.79s0,.1.13-.14a.85.85,0,0,0,0-.17c-.11-.08-.19-.1-.25.05a.39.39,0,0,0,0,.16c0,.2.07.09.1.1Z"/><path class="cls-1" d="M15,29.59c-.17-.15-.47-.13-.45.06s.12.09.19.07a.58.58,0,0,0,.26-.13Z"/><path class="cls-1" d="M14.45,13.32a1,1,0,0,0,.21-.5c-.06,0,0-.08-.12.06l-.12.15c-.1.15-.14.18,0,.29Z"/><path class="cls-1" d="M16,11.94c-.11.14-.31.3-.13.4s.14-.09.15-.11a.85.85,0,0,1,.11-.21c-.1-.11,0,0-.13-.08Z"/><path class="cls-1" d="M11.35,20.39l.1.26a.3.3,0,0,0,.14-.44l-.24.18Z"/><path class="cls-1" d="M11.93,21.9a.52.52,0,0,0,.24-.46c-.2.1-.4.27-.24.46Z"/><path class="cls-1" d="M13.87,32.41c.14.13,0,.12.21,0a.64.64,0,0,0,.26-.18.32.32,0,0,0-.25,0c-.13,0-.19.05-.22.18Z"/><path class="cls-1" d="M19.05,22.77c.15-.06.12,0,.13-.2a.28.28,0,0,0-.07-.24c-.17.13-.22.36-.06.44Z"/><path class="cls-1" d="M23.39,26.75a.82.82,0,0,0,.2.33.3.3,0,0,0,0-.44l-.16.11Z"/><path class="cls-1" d="M26.53,26.38c-.09-.05-.43-.17-.43.06s.36,0,.43-.06Z"/><path class="cls-1" d="M16,30.08l.2.34c.15-.22.1-.63-.2-.34Z"/><path class="cls-1" d="M15,11.12c.13-.1.09-.07.1-.19a.41.41,0,0,0-.07-.24.23.23,0,0,0,0,.43Z"/><path class="cls-1" d="M26.61,25.48c.12.14.07.1.23.05a.68.68,0,0,0,.25-.14c-.16-.08-.35-.14-.48.09Z"/><path class="cls-1" d="M18.54,12.83l.16.1a.37.37,0,0,0,0-.49l-.16.39Z"/><path class="cls-1" d="M13.86,33.18c.11.1.09.07.23.06s.15,0,.27-.09c-.17-.13-.37-.18-.5,0Z"/><path class="cls-1" d="M18.47,23.53c.1.09.14.13.22,0a.35.35,0,0,0,0-.35,1.07,1.07,0,0,0-.27.38Z"/><path class="cls-1" d="M19.45,21.86c.07.23.29.19.42.06a.4.4,0,0,0-.21-.12c-.13-.05-.1-.06-.21.06Z"/><path class="cls-1" d="M12.11,31c.14.19,0,.06.2.12s.11.06.25,0c-.06-.16-.26-.33-.45-.14Z"/><path class="cls-1" d="M27.35,23.8c-.13-.11-.41-.16-.4.06s.28.1.4-.06Z"/><path class="cls-1" d="M10,33.24a.3.3,0,0,0,.11.26c.27-.35.1-.55-.11-.26Z"/><path class="cls-1" d="M15,33.86c.12-.14.19-.29.06-.4-.22.09-.22.26-.06.4Z"/><path class="cls-1" d="M11.26,29c0,.22.23.26.39.09-.08-.07-.07-.08-.18-.11s-.11-.05-.21,0Z"/><path class="cls-1" d="M12.21,29.41c.15.17,0,.11.22.1a.48.48,0,0,0,.2,0c-.16-.18-.25-.26-.42-.06Z"/><path class="cls-1" d="M11.24,21.44c-.1,0-.42.29-.15.36s.18-.26.15-.36Z"/><path class="cls-1" d="M24.32,26.16c.14.19.24.18.41.09L24.47,26l-.15.14Z"/><path class="cls-1" d="M13.08,32.55l-.14.1.1.09c.14,0,.23,0,.35-.11a.28.28,0,0,0-.31-.08Z"/><path class="cls-1" d="M11.09,33.23c-.08.08-.13.13,0,.22a.3.3,0,0,0,.29,0c-.12-.12-.13-.18-.29-.2Z"/><path class="cls-1" d="M19.49,12.14c.19-.21.14-.18,0-.4-.13.18-.12.24,0,.4Z"/><path class="cls-1" d="M10.63,22.74l.16.15a.29.29,0,0,0,.11-.38l-.27.23Z"/><path class="cls-1" d="M27.32,26.18c.14.11.23.06.35-.09-.16-.14-.32-.12-.35.09Z"/><path class="cls-1" d="M27.47,24.3l-.22.17c.15.13.23.13.36,0,0-.09,0-.15-.14-.18Z"/><path class="cls-1" d="M11.72,19.6c-.14.07-.13.1-.1.22a.27.27,0,0,0,.33,0l-.23-.18Z"/><path class="cls-1" d="M18.66,13.9l.26-.16c-.26-.16-.48-.13-.26.16Z"/><path class="cls-1" d="M13.47,29.63c.06.17.2.09.35,0-.13-.11-.28-.22-.35,0Z"/><path class="cls-1" d="M12.19,20.93l.1.17a.31.31,0,0,0,.13-.39l-.23.22Z"/><path class="cls-1" d="M27.87,24.82,28,25c.21-.31,0-.48-.16-.21Z"/><path class="cls-1" d="M15.63,29.53c.12.13.22.1.35,0-.15-.16-.21-.18-.35,0Z"/><path class="cls-1" d="M28.07,26.08c.16.14.16.12.33,0-.18-.15-.18-.13-.33,0Z"/><path class="cls-1" d="M28.71,25.68c.13-.13.12-.13.09-.26-.2-.07-.31.08-.09.26Z"/><path class="cls-1" d="M27.62,25.37l.08.11a.42.42,0,0,0,.22-.2c-.12-.08-.24-.09-.3.09Z"/><path class="cls-1" d="M25.74,25.38c.1.07.09.08.19.06a.69.69,0,0,0,.21-.15.32.32,0,0,0-.4.09Z"/><path class="cls-1" d="M17.62,5.69c.06-.08,0-.17-.11-.28-.06.08-.08.1-.07.19s.11.11.18.09Z"/><path class="cls-1" d="M15.2,30.44l-.14.13c.15.16.15.12.34,0l-.2-.14Z"/><path class="cls-1" d="M19.51,14.8c.13.21.22.2.28,0l-.13-.11-.15.11Z"/><path class="cls-1" d="M10.69,28.65c.15,0,.09,0,.19-.12-.19-.2-.34-.07-.19.12Z"/><path class="cls-1" d="M19.2,14.57h0c-.15.16,0,.27.2.16l-.05-.09c-.1-.12.08,0,0-.05l-.06,0Z"/><path class="cls-1" d="M20.05,21.48l-.14-.2L20,21.2c-.1,0,0-.06-.14,0a.32.32,0,0,0,0,.13c.09.16.13.1.15.11Z"/><path class="cls-1" d="M11.33,31.2l.12-.16.1.16c0-.09.1,0-.1-.19a.19.19,0,0,0-.1.08c-.06.11,0,0,0,.11Z"/><path class="cls-1" d="M23.13,25.67c0-.15,0-.13.15-.21-.05,0,0,0-.1,0s-.06,0-.13.09l.08.11Z"/><path class="cls-1" d="M11.49,19.14l.08-.09.11.11L11.6,19c-.24.16-.1.11-.11.17Z"/><path class="cls-1" d="M13,32.74l-.1-.09.14-.1c-.09,0,0,0-.11,0s0,0-.06.09c.14.2.07.08.13.08Z"/><path class="cls-1" d="M17.32,20.74c.09,0,0,.07.14,0-.16-.26-.07-.07-.14-.1l.08.08-.08.07Z"/><path class="cls-1" d="M19.81,16.2c0-.08,0,0,0-.1s0,0-.07-.07l.1-.05c-.12,0,0-.06-.11,0s-.06,0,0,.09a.41.41,0,0,0,.1.13Z"/><path class="cls-1" d="M18.9,21.63l.16,0c0-.06.05,0,0-.11s0,0-.09,0l.11.07-.13.08Z"/><path class="cls-1" d="M28.7,24.72c0,.12-.06,0,.05.13,0,0,0,0,.05-.07s0,0,0-.1l-.09.11,0-.07Z"/><path class="cls-1" d="M13.47,21.55l.1.05-.1.06c.08,0,0,.08.14-.08-.15-.1-.08,0-.14,0Z"/><path class="cls-1" d="M11,33.93c.09,0,0,.09.13,0-.13-.21,0-.06-.13-.08l.09.06-.09.07Z"/><path class="cls-1" d="M25.79,24.83c.09,0,0,.1.13-.06,0-.05,0,0-.06-.06l-.06,0,.08.08-.09.07Z"/><path class="cls-1" d="M14.89,15.13s0,0,0,0,.07.1.07.1l.16-.09c-.06,0,0,0-.15.07l-.08-.11Z"/><path class="cls-1" d="M17.78,11.41c.07,0,0,.13.11-.06-.13-.14,0,0-.1,0l.06.06-.07.05Z"/><path class="cls-1" d="M11.86,18.54l-.09,0v-.1l0,.13c.11.07,0,.07.13,0Z"/><path class="cls-1" d="M28.85,26.36c.16,0,0,0,.2-.06,0,0,0,0,0,0s0,0,0,0,0,0-.12.06Z"/><path class="cls-1" d="M17,22.18c.08,0,0,.13.12-.06L17,22.06l.08.07-.08.05Z"/><path class="cls-1" d="M16,11.94c.16,0,0,0,.13.08,0-.08.06,0,0-.1l-.12,0Z"/><path class="cls-1" d="M18.56,16.78c0,.1,0,.08.1.11.1-.14,0,0,0-.11l0,.09-.07-.09Z"/><polygon class="cls-1" points="17.08 19.82 17.15 19.84 17.13 19.73 17.08 19.82 17.08 19.82"/><path class="cls-1" d="M14.67,34.51c.1,0,0,.09.16,0l-.16,0Z"/><path class="cls-1" d="M8.53,33.67l.17,0c-.17-.08-.08,0-.17,0Z"/><path class="cls-1" d="M13.18,34.48l.16,0c-.09,0,0-.06-.16,0Z"/><path class="cls-1" d="M21.77,18.86c0-.08,0,0-.05-.16l.05.16Z"/><path class="cls-1" d="M28,26.83l.14,0c-.07,0,0,0-.14,0Z"/><path class="cls-1" d="M16.78,15.94c.15.08.07,0,.14,0l-.14,0Z"/><path class="cls-1" d="M28.29,23.75c0-.09,0,0,0-.15v.15Z"/><polygon class="cls-1" points="27.31 26.69 27.47 26.64 27.31 26.69 27.31 26.69"/><path class="cls-1" d="M.81,32.85a4.9,4.9,0,0,1,1.33-.54,2.49,2.49,0,0,0,.68-.26,2.28,2.28,0,0,1,.67-.35c.27.06.56.76.35,1.18a12.56,12.56,0,0,0-1.51,0H1.21c-.21,0-.27,0-.4-.07Zm3.35,0c0-.19.07-.22,0-.41a1,1,0,0,0,.32-.37l1.33,1.14c-.42,0-1.37,0-1.66-.36Zm.44-2.69c0,.09-.72,1.45-.76,1.5-.28-.26-.11-.45.05-.79s.44-.69.71-.71Zm0,1.61.26-.48a17.18,17.18,0,0,1,2.49,2.07c-.15.09-.36,0-.7,0-.5,0-.23,0-.68-.39s-1-.8-1.37-1.16Zm1.46-.47c.33.34.13.31.65.35a2.67,2.67,0,0,1,.34.11c.14,0,.25,0,.34.14l-.51.62-1-.87s0,0,0,0v0l.16-.28Zm.15-1.1c0,.16-.14.2-.2.41A.54.54,0,0,0,6,31c-.12.13-.13.1-.2.26s0,.12-.11.21L5,31c.09-.36.36-.67.44-1a1.85,1.85,0,0,1,.74.13Zm.31.19a.55.55,0,0,1,.26.5,1.42,1.42,0,0,1-.29.5c-.42-.17-.35-.7,0-1Zm1,2.64a.85.85,0,0,1-.38-.35l.54-.8a2.61,2.61,0,0,1,.69.09c-.07.28-.23.28-.45.52a2,2,0,0,0-.19.28c0,.1-.12.23-.21.26Zm-.62-2.67c.42-.21.94.81.1,1-.08-.17.09-.25.09-.48s-.12-.32-.19-.53Zm-1.16-.57a.78.78,0,0,1,.14-.5c.13,0,.08,0,.21.08a3.09,3.09,0,0,1,.74.19.82.82,0,0,1-.24.43c-.51-.17-.66-.12-.85-.2Zm3,2.14h.15a1.49,1.49,0,0,1,.57.66l-.28.48a2.36,2.36,0,0,1-.56-.86c0-.14.1-.21.12-.28Zm.74-.13.28.09c-.05.12,0,.2-.15.31a.54.54,0,0,1-.22-.27l.09-.13Zm-2.12-.3a.67.67,0,0,1,.19-.2,3.46,3.46,0,0,1,1.37,0c.31,0,.29.05.49.36a4.62,4.62,0,0,1-2-.12ZM6.21,29a6.78,6.78,0,0,1,1.32-.93A4.6,4.6,0,0,1,7,29.26,5.33,5.33,0,0,1,6.21,29Zm2.5,1.11c-.23.36.12.35.2.8a7.09,7.09,0,0,1-1.21,0,1.07,1.07,0,0,0-.17-.48,5.56,5.56,0,0,1,1.11-.36l.2-.08c.18,0,.16-.07.35,0a4,4,0,0,1,.72,1.16.87.87,0,0,1-.14.46,7.37,7.37,0,0,1-.86-1.31l-.08-.12a.49.49,0,0,1-.12,0ZM10,29.79l.06.56c0,.17,0,.11-.05.25l-.46-.7a.55.55,0,0,1,.45-.11ZM8.56,27.64c0,.15-1.22,2.39-1.33,2.5L6.85,30l.69-1.33c.11-.21.29-.44.41-.65s0-.19.42-.34l.19,0ZM8,29.29c0-.16,0-.07.16-.44a2.4,2.4,0,0,1,.26-.42c.11.2.52.31.76.48a5.33,5.33,0,0,1-.88.29c-.19.07-.1.09-.3.09ZM9.9,28.9l.09.4c0,.23,0,.17-.62.35s-.82.19-1.55.44c-.13.05-.19.08-.3,0a2.27,2.27,0,0,1,.36-.58l1.24-.32c.33-.06.34-.22.62-.08l.16-.23ZM8.79,27.81a4.82,4.82,0,0,1,.66.36c.38.2.4.28.45.6-.15,0-.06,0-.23,0l-1.06-.52c0-.09.1-.32.18-.41Zm0-.3.37-.12,0,0,0,0,.23.25c.11.16,0,.1,0,.14l-.7-.33Zm4.54,7-.16,0h-.06c0,.09,0,0,.16.14l-.35.11c-.21-.19-.15-.17-.15-.24L8.7,33.7l-.17,0L7.8,33.5l-.07-.29c0-.21.42-.72.54-.85.11.1.28.44.43.64a.9.9,0,0,1,.21.33c0,.16-.11.16.08.34.28-.19.41-.6.72-1,.16-.21,0-.1.1-.34s.34-.92.44-1.36a7.37,7.37,0,0,0-.06-2c-.08-.37-.14-.33-.08-.68-.28-.35-.4-.61-.7-1,.14-.15.41-.13.59-.19a2.94,2.94,0,0,0,.52.8,5.84,5.84,0,0,0,4,1.38A6,6,0,0,0,16.18,29c.09.13.07.3.15.43.27.41.1-.06.24.59a1.27,1.27,0,0,1,.11.65A3.87,3.87,0,0,1,16,32.8a4.59,4.59,0,0,1-.33.44l-.3.43c-.16.23-.05.26-.32.36a6,6,0,0,1-1.75.43ZM10.28,27a.63.63,0,0,1,.88.11.86.86,0,0,1,.05.87,1.56,1.56,0,0,1-.93-1Zm1.11,1.13c.15-.34.3-.91,1.19-.67.61.17.56,1,.31,1.34a5.67,5.67,0,0,1-1.5-.67ZM10.16,26.7a1.33,1.33,0,0,1-.16-.65.56.56,0,0,1,.91.53c-.15.06-.22,0-.38,0s-.23.08-.37.09Zm1.4.64c-.15-.16-.07-.15-.15-.31s-.18-.17-.3-.33c.16-.55.41-.6.84-.49s.37.62.24.91a1.77,1.77,0,0,0-.63.22Zm5.18,4.85c-.23-.6.86-.36,1.23.14l-.27.22c-.18-.1-.29-.25-.46-.33s-.28,0-.5,0ZM9.92,24.81a1.48,1.48,0,0,1,.62-.18c.37.31.26.63,0,1L10,25.7c0-.14,0-.27,0-.42s-.08-.06-.1-.22a.67.67,0,0,1,0-.25Zm3.27,4a2.89,2.89,0,0,1,.16-.72c.21-.25,1.15-.4,1.44.11a1,1,0,0,1,.05.74,3.81,3.81,0,0,1-1.65-.13Zm3.65,2.72v-.16a1.41,1.41,0,0,1,.95-.07,1,1,0,0,1,.61.6c0,.15.06.13-.08.23s-.52-.34-.74-.43-.53-.06-.74-.17Zm-4.93-5.67c-.16.07-.21,0-.39,0a.48.48,0,0,0-.4.18c-.49-.46-.3-.25-.16-.71s-.08-.58.36-.59.89.13.71.68l-.12.39Zm1.35,2c-.14-.21,0-.29-.31-.48a4.69,4.69,0,0,0-.48-.21c.09-.67.38-.67.81-.64.14,0,.08,0,.19,0,.66,0,.49.74.42,1.09-.13.05-.2,0-.33.09a2.19,2.19,0,0,0-.3.16Zm-3.14-4.24.14.23a.37.37,0,0,1,.25-.11c.28.26.21.32.27.57s0,.06.05.21c-.16,0-.2-.14-.44-.1a3.2,3.2,0,0,0-.43.17c-.11-.26.12-.74.16-1ZM17,30.1a.62.62,0,0,1,.55.26.67.67,0,0,1,.23.57c-.15,0-.2,0-.37,0S17.19,31,17,31c-.11-.16,0-.65,0-.88a0,0,0,0,1,0,0Zm-6.77-6.86c.15.2.15.06,0,.22-.09-.2,0-.13,0-.22ZM12.27,26c-.14,0-.08,0-.17-.13l.09-.13c.13-.32-.1-.17.32-.48a1.09,1.09,0,0,1,.58-.18c.48,0,.45.89.17,1s-.21,0-.35,0-.27.15-.37.2L12.27,26ZM11.05,24.5c0-.12,0-.17,0-.25S11,24.17,11,24l.61.27.09,0,.08.09c-.09.23-.16.15-.35.15s-.24.06-.4,0Zm5.66,4.95c.21-.13.42-.05.67.06.51.22.88.37,1,1a1.94,1.94,0,0,1,0,.68,1.16,1.16,0,0,1-.44-.25c.16-.47-.23-1-.9-1.13-.3-.06-.2-.11-.33-.38ZM15,28c-.17-.14-.2-.25-.4-.34s-.29,0-.45-.11a.93.93,0,0,1,.12-.53c.6-.75,1.41.1,1.34.54-.33.18-.32,0-.61.44Zm.13.86a1.42,1.42,0,0,1,0-.58c.07-.47.71-.53,1-.35a4.93,4.93,0,0,1,.53.5,3.37,3.37,0,0,1-1.58.43Zm-.91-2.14c-.13-.14-.11-.23-.25-.35s-.22-.09-.36-.2l.12-.43c.28-.48.72,0,.89.21a.47.47,0,0,1,.05.48c-.18.06-.09,0-.23.09a2,2,0,0,0-.22.2Zm-2.28-2.11c.2-.28.25-.11.57,0a1.88,1.88,0,0,1,.61.16c-.16.21-.37.07-.68.3s-.11.1-.2-.08-.17-.19-.3-.35Zm8.12,6.12a8.47,8.47,0,0,1-1.32,1.08c-.06-.15,0-.1.23-.47a1.59,1.59,0,0,0,.22-.48.51.51,0,0,1,.87-.13Zm-3.46-1.55a.67.67,0,0,1-.08-.29l.62-.28c.39.24.35,0,.9.31a2.83,2.83,0,0,1,.86.83,1.15,1.15,0,0,1,.13.89,2.85,2.85,0,0,1-.17.46c0,.07-.06.15-.1.23a.47.47,0,0,1-.09.12c-.08.07,0,.05-.12.06,0-.18.07-.17.11-.43a2.15,2.15,0,0,0,0-.44,1.52,1.52,0,0,0-.31-.87,2.34,2.34,0,0,0-.86-.52,2,2,0,0,0-.89-.07Zm.85-.79c.08,0,0-.08.09,0s0,.05,0,.09-.09.05-.14-.08Zm-3.63-3-.13.07-.06-.15c-.09-.31-.18-.23-.28-.44.19-.17.16,0,.52,0a4.47,4.47,0,0,1,.52,0,.66.66,0,0,1-.05.41c-.23.06-.27-.09-.52.11Zm1.7,1.38-.61-.31c0-.3-.05-.76.36-.8s.51.47.57.74c-.14.1-.17.05-.23.13s.06,0-.09.24Zm.89.94c-.07,0-.49,0-.57-.29a1.11,1.11,0,0,1,0-.74c.38,0,0,.07.45,0,.25,0,.29.13.46.33-.12.22-.16.05-.26.31a2.61,2.61,0,0,0-.08.36Zm2.94,2.65a1.55,1.55,0,0,1,0-.33c.37-.3.91,0,1.28.28l-.23.24a1.87,1.87,0,0,0-.5-.2c-.22,0-.34.06-.52,0Zm-4.61-4.68-.25-.24c.15-.33.13-.41.21-.53a5.23,5.23,0,0,1,1.24.13l-.23.43a.88.88,0,0,0-.76,0c-.16.06-.14,0-.21.22Zm3,.36c-.05.13-.15.29-.21.44s0,.18,0,.43c-.66.24-1-.6-1-.8.1-.42,1-.33,1.24-.07Zm.63,2.75c.39-.22.86-.33,1.17.18-.56.1-.58.61-1.17-.18Zm2.36.84c.11,0,.24.16.31.26A.32.32,0,0,1,21,30c-.16.13-.09.05-.15.05-.3-.14-.4-.34-.76-.4a1,1,0,0,0-.81.09L19,29.4c.52-.43,1.43-.07,1.72.17Zm-2.52-.88c-.22-.14-.39-.14-.54-.26a3.53,3.53,0,0,1,.79-.55,1.41,1.41,0,0,1,2,1.19,1,1,0,0,1-.55-.18c-.19-.21-.25-.37-.54-.51a1,1,0,0,0-1.18.31ZM17,28.29c-.43-.35-.55-.93,0-1.07a1,1,0,0,1,.62,0c.29.06.37.32.62.06-.17-.19-.45-.32-.5-.5-.12-.45.65-1.39,1.35-.25A6.76,6.76,0,0,1,17,28.29Zm1.08-2.58h0c-.08,0-.72-.47-1.34-.15-.41.21-.33.28-.32.59s-.3,0-.39-.19-.11-.14-.05-.33v0c.06-.2,0-.22.13-.32s.45-.07.68-.09a4.31,4.31,0,0,1,1.26.44c.06.06,0,0,.05.08Zm.53,1.81c.42-1,2.13.07,2.38.89a1.21,1.21,0,0,1,0,.93c-.35-.18,0,0-.3-.71a1.74,1.74,0,0,0-.5-.8c-.78-.69-1.31-.16-1.61-.31Zm-7.09-8.38c0-.06-.13,0,.11-.17l.08.19a4.41,4.41,0,0,0,3.55,1.21l.87-.07c.33-.05.58-.11.9-.15a4.34,4.34,0,0,1,3.55,1,7.62,7.62,0,0,1,.93.75c.26.28.2.31,0,.91a7.18,7.18,0,0,1-2.25,3.54c-.09-.08-.26-.38-.39-.52a5.06,5.06,0,0,0-.58-.42,9.13,9.13,0,0,0-3.44-.93,8,8,0,0,1-2.29-.26,6.89,6.89,0,0,1-1.15-.42,4.12,4.12,0,0,1-1.14-.91A9.45,9.45,0,0,1,10.75,21c.06-.19.14-.3.18-.47l.56-1.43Zm8.92,8.16c-.1,0,.05.08-.1,0s0,0-.07-.09c.1-.16.09-.16.24-.17a.78.78,0,0,1,.74.23l-.37.32-.44-.26Zm-8.59-8.46a.78.78,0,0,1,1-.1c.49.29.42.64.31,1a2.17,2.17,0,0,1-1.33-.91Zm9.44,10.71c0-.11,0-.09.14-.37a1,1,0,0,1,.22-.37,1.21,1.21,0,0,1,.76-.36c.18.2.06,0,.1.17s0,.09,0,.19c-.18.18-.61.38-.93.65-.17.14-.16.18-.32.09Zm.12-.71-.1-.49c0-.16.22-.37.38-.48a1.15,1.15,0,0,1,1,.05l-.07.3c-.62.14-.49-.13-1.2.62Zm-1.71-1.91c.45-.47.6-.63,1.1-.54.29.06.89.2,1,.59-.36.38-.22-.16-1.05-.22-.29,0-.24,0-.52.21-.12.11-.1.16-.52,0Zm-7.81-8.39c-.15.06,0,.06-.13,0l0-.13c.15-.2.31-.75.45-1,.38,0,.73-.29,1.23.29a1.1,1.1,0,0,1,.21.62c0,.29,0,.34-.27.59-.28-.17-.22-.43-.73-.55a.76.76,0,0,0-.8.17Zm9.33,9.53L21,27.74a1.64,1.64,0,0,1,.91-.49c.28-.05.84.08.85.31-.15.1-.26,0-.76,0-.34,0-.49.3-.76.53Zm-7.8-8.24,0-.61c.2-.16.34-.34.57-.38A1,1,0,0,1,15.09,20a2.64,2.64,0,0,1-.85,0,4.19,4.19,0,0,1-.85-.14Zm6.14,7.09c-.12,0-.19,0-.3-.08.19-.26.56-.58.8-.84.6-.67,2.15.3,2.35,1-.37.14-.34-.29-.64-.52a2,2,0,0,0-.82-.29c-.37-.07-.42-.14-.77.07a1.28,1.28,0,0,0-.62.68Zm3.19-.11c.05.15.06.07,0,.25-.08-.14-.08-.12,0-.28a2.25,2.25,0,0,1-.22-.35c-.12-.16-.24-.21-.33-.38.52-.64.65.62.62.76Zm-8.84-8.28c0-.24-.05-.69.14-.86s.63-.08.83,0c.4.15.52.23.64.63s-.14.52-.29.82c-.3-.21-.48-.52-1-.54h-.15c-.16,0,0,0-.17,0Zm7.44,7.1a.58.58,0,0,1,1,0l-.48.3a1.79,1.79,0,0,1-.56-.3Zm-.27,0a2.79,2.79,0,0,0-.41-.08c-.11,0-.05,0-.11-.06l.64-1a1.88,1.88,0,0,1,.72.56c-.16.12-.21,0-.42.17a2,2,0,0,0-.42.41ZM12.81,15.9c.15,0-.05.15.26.06a.79.79,0,0,1,.91.48,3.12,3.12,0,0,1-.21,1.26c-.24-.26-.33-.46-.69-.57s-.5,0-.72,0l.45-1.24Zm4.32,3.83,0,.11-.07,0-.43.05a6.93,6.93,0,0,1-1.29.15,1.68,1.68,0,0,1,0-.74.82.82,0,0,1,.73-.39.84.84,0,0,1,1,.84Zm-3-2.45a2,2,0,0,0,.08-.35c.07-.76,1-.67,1.2,0a.62.62,0,0,1-.12.6c-.84-.31-.5-.19-1-.22-.1,0,0,0-.14,0Zm1.67,1.38c-.08-.15,0,0-.06-.34s-.06-.14.07-.32a.68.68,0,0,1,.66-.25,1.16,1.16,0,0,1,.65.19.82.82,0,0,1,.32.61l-.28.22,0,0h0l0,0c-.24-.05-.35-.18-.65-.2a1.27,1.27,0,0,0-.61,0Zm-2.63-3.94h0l.07,0h0l.18,0a.86.86,0,0,1,.9.21,1,1,0,0,1,.38,1.17,1.43,1.43,0,0,0-.28.07c-.13.06-.13.1-.25.15s-.28-.47-.62-.6-.6,0-.74,0a8,8,0,0,0,.3-1Zm4,4.37c.9-.92,1.71,0,1.44.79a2.21,2.21,0,0,1-.34-.06c-.37-.05-.8,0-1-.05-.08-.21,0-.33-.14-.68ZM15.6,17.84c-.21-.24.05-.4.05-.66s0-.17.11-.35c.27-.44.76-.16,1,0s.18.42.23.65c-.18.05,0,0-.21,0a1.24,1.24,0,0,0-.49,0c-.34,0-.36.1-.64.36Zm3.26,2.06c.06-.33,0-.51.48-.69.72-.29,1.56.12,1.1,1.48-.09,0,0,0-.13-.05L20,20.45c-.39-.24-1.12-.5-1.17-.55ZM15,16.1a.72.72,0,0,1,0-.22c0-.1,0-.15,0-.22.06-.39,1.26-.79,1.34.15.06.72-.17.49-.41.54s-.25.15-.4.28c-.11-.11-.14-.21-.24-.31s-.2-.12-.33-.22Zm.13-.93-.16.09s-.09,0-.07-.1,0,0,0,0a1.31,1.31,0,0,0-.77-.65c-.51-.19-.6,0-.85,0a1.75,1.75,0,0,1,.35-.86c1.33,1.44,1,.82,1.71,1.41l-.21.14Zm2.53,3.29c-.43-.87,1.15-1,1.68-.28a.45.45,0,0,1,.09.37v.33a2.44,2.44,0,0,0-.55.32c-.22-.25-.1-.41-.53-.65s-.44-.07-.7-.09Zm3,2.41a.1.1,0,0,1,0,0l.05-.22c.13-.44,0-.55.13-.71s.73-.33.9,0a4.46,4.46,0,0,1,0,1.89c-.2-.18-.31-.32-.55-.52s-.34-.26-.54-.43ZM17.1,17.42c.08-.25-.27-.9.4-.87.31,0,.33-.07.66.2s.34.34.33.65c-.43.17-.51-.17-1.07.43L17,17.6l.08-.18Zm-.66-2.17a.75.75,0,0,1,.51,0c-.24.2-.21.28-.35.49l-.16-.52Zm3.37,3.08c-.1-.54.87-.54,1.35,0,.28.31.2.46.2.77a.29.29,0,0,1-.22.33l-.37.14c-.18-.23-.07-.36-.5-.61-.27-.15-.43-.08-.64-.14-.12-.48.15-.47.18-.49Zm-3-2.39.14,0,.07,0c-.19-.48.31-.52.66-.41a.6.6,0,0,1,.44.81,3.68,3.68,0,0,0-.53-.05c-.61.06-.48.17-.63.28s0,.05-.1,0a1.1,1.1,0,0,1-.25-.17c-.17-.21.07-.29.2-.47Zm4.8,3.54c-.1-.13-.09-.07,0-.22.12.21.09.09,0,.22Zm5.89,7.16-.16.05c-.16,0-.34.07-.53.14-.65.22-.85.23-1.64.55s-1.92,1-2.15,1.13c-.16-.21,0-.31.07-.54a3.56,3.56,0,0,0-.25-2.07c-.61-1.33-.53-.82-1.06-1.51a3.36,3.36,0,0,1,.87-.18c1-.13,1.55-.31,2.5-.51s2.65-.75,3.33-.86l.49.76a7.77,7.77,0,0,1,.28.76l0,.16,0,.16c0,.1.08,0,0,.15a1.19,1.19,0,0,1,0,.73,1.49,1.49,0,0,1-.13.37c-.15.33.13.1,0,.37-.15.1,0,.06-.2.06s0,0-.15,0l-1.23.28ZM17.93,15.31a1,1,0,0,1,.58.16l-.23.26-.35-.42ZM18.65,17c.23-.09.1,0,.24-.22a.45.45,0,0,1,.28-.23c.55-.12,1.56.22,1.26,1.05-.17.07-.27,0-.47.13a1.79,1.79,0,0,0-.44.27,1.67,1.67,0,0,0-.62-.46c-.36-.19-.13-.25-.25-.54Zm0-.22c0,.1.09,0,0,.11-.08,0-.08,0-.1-.11-.5-.55-.13-.25-.25-.77.19-.08.06,0,.24,0,0-.19,0-.19.19-.36.4.1.61.13.8.42s.07.09.19.22a.84.84,0,0,0-1.06.52Zm1.14-.58a.41.41,0,0,1-.1-.13c-.08-.13,0,.07,0-.09s0,0,.11,0a4.35,4.35,0,0,1,.58.27l.28.22c.21.14.09,0,.28.09a3,3,0,0,1,.12.4,2.88,2.88,0,0,0,.09.4c0,.15.09.24.14.41s0,.23.09.39c-.52-.51-.5-.31-.71-.51,0-1.39-.46-1.06-.86-1.45Zm9.46,10c.22-.48.14-.58.29-.68l.57.56a1.42,1.42,0,0,1-.86.12Zm1.5-.24c-.28.19-.44-.18-.91-.59-.31-.28-.23-.14-.33-.47s-.11-.23,0-.45a5.57,5.57,0,0,1,.62.76l.51.55.07.1c.06.09,0,0,.05.1ZM14.63,9.69a3.09,3.09,0,0,0,2.26,1.21,7.52,7.52,0,0,1,2.26.31,1.91,1.91,0,0,1,.58.36c.38.31.36,0,.48.35A8.33,8.33,0,0,1,20.4,15l-.14.28c0,.16.52.62.51.94-.07,0-.32-.23-.46-.3l-.43-.2a6.23,6.23,0,0,0-2.69-.8,4.68,4.68,0,0,1-1.8-.21,4.29,4.29,0,0,1-1.51-1.23l-.09-.13-.06-.1c0-.2.23-.61.3-.88.23-.92.37-1.23.55-2.24a3.15,3.15,0,0,1,.05-.43Zm.18-.31a.82.82,0,0,1,1.09.77v.18a2.56,2.56,0,0,1-1-.82v0l0,0s0,0,0,0,0,0,0,0Zm1.27.52c.34-.16.24-.58.77-.44.33.09,1,1.3.07,1.15a5.8,5.8,0,0,1-.8-.19c0-.19,0-.26,0-.52ZM31.67,25.32v-.16c0-.13,0,0,0-.12a2.24,2.24,0,0,1,.63.25,5.44,5.44,0,0,1,.65.31,6.35,6.35,0,0,1-1.17.18c-.17-.25-.06-.24-.12-.46ZM31.33,24c.11.17.16.19,0,.34s0,0,0,.07.08.1,0,.31l0,0V25c.06.1.05,0,0,.11s0,0,0,.13,0,0,0,.1.05.06,0,.22a.89.89,0,0,1,0,.28.54.54,0,0,1-.56-.38l0-.18c-.22-.21-.08-.09-.32-.17s-.48-.55-.66-.82.23-.68.5-.85c.19.19,0,.57.18.8s.09.08.15.31v-.09c0-.1,0,0,0-.1l0-.57a5.3,5.3,0,0,0-.09-.56c.16-.16.23-.24.39-.27s.08.11.1.27l.24.81ZM28.68,22.8a8.61,8.61,0,0,1,1.66-.31,7.07,7.07,0,0,1-1.11,1c-.15-.16-.11-.22-.19-.39s-.22-.22-.36-.34ZM14.86,7.09c.26,0,.59-.41,1.08-.18s.47.75.54,1l-.28.28A.92.92,0,0,0,14.89,8c-.08-.16,0-.07,0-.27V7.09ZM31.59,24.15a12,12,0,0,1,2.29,1.35,1.15,1.15,0,0,1-.6.06c-.07-.21.14-.11-.13-.25l-.84-.37c-.54-.23-.73-.23-.74-.67,0-.12,0-.05,0-.12ZM16,9.6c-.17-.08-.37-.45-.62-.53a1.58,1.58,0,0,0-.65,0,1.77,1.77,0,0,1,.08-.73c.16,0,0,0,.23,0,.1-.22.13-.27.37-.25a.91.91,0,0,1,.47.18.65.65,0,0,1,.26.45l0,.23c0,.23,0,.15.09.16s.11-.2.09-.32c0-.3-.09-.14.12-.41a.7.7,0,0,1,.74-.26c.6.2.5.71.45,1.09,0,.14-.11.22-.25.36-.35-.24-.16-.4-.72-.46-.36-.05-.42.34-.68.46Zm3.2,1.17c.1-.17,0-.1.06-.3a1.06,1.06,0,0,1,.49.47,2.05,2.05,0,0,1,.22.48,6.7,6.7,0,0,1-.61-.42c-.16-.07-.41-.14-.59-.2a4,4,0,0,0-1.2-.18,1.59,1.59,0,0,0-.09-.72c.28-.26.48-.61,1.09-.1s.24.91.63,1Zm10,12.87c.35,0,.31,0,.55-.3a5.86,5.86,0,0,1,.89-.76c.21-.14.17-.38.79-.4,0,.13-.07.12-.2.23l-.8.65c-.38.31-.69.72-1.05,1a.92.92,0,0,1-.18-.43ZM17.86,9.2c0-.66.62-1,1.15-.57.29.26.2.29.22.36s-.06,0,.09.16.07,0,.1.15a.69.69,0,0,1-.28.69c-.11-.05-.41-.42-.62-.56a1.19,1.19,0,0,0-.34-.16c-.17,0-.16,0-.32-.07ZM14.79,5.76a3.53,3.53,0,0,0,1.49.86,1.88,1.88,0,0,1,.48.12l-.26.43c-.28-.32-.35-.6-.81-.61a1.52,1.52,0,0,0-.83.28,4.83,4.83,0,0,1-.07-1.08ZM31.24,22.7c.13-.13.4-.29.46-.36s-.11-.22.25-.32a3.83,3.83,0,0,1,.87-.17l-1.3,1.71a2,2,0,0,1-.28-.86Zm3,2.74c-.21.07,0,.06-.2,0l.14-.17c.05-.17.09-.2.06-.36l-.07-.35a4.87,4.87,0,0,1,1.1.63,3.3,3.3,0,0,1-1,.25Zm-.37-1.36c.07.13,0,0,0,.12s0,0,0,.12l0,.07c.07.17,0,0,.05.15s0,0,0,.09,0,.05-.07.06a.94.94,0,0,1,0,.4,1.28,1.28,0,0,1-.53-.32c0-.22,0,0,0-.13,0,0,0,0,0,0l0-.1c-.23-.77-.21-1.14-.33-1.57l.36-.36c.21-.14.18.13.21.32a4.78,4.78,0,0,1,.2,1.18Zm.28,0,0-.19c.12-.12,0,0,.11,0a12.82,12.82,0,0,1,1.5.94c.11,0,.1.08.11.08s0,0,0,0c-.19.15,0,0-.15,0s-.55-.26-.8-.39-.7-.37-.74-.5ZM18.42,7.16l.15.1c.25.15.27,0,.34.34a3.08,3.08,0,0,1,.06.61c-.15,0-.31-.1-.55-.09s-.33.13-.55.28c-.63-.92-1-.41-1.24-.61,0-.21.07-.11.12-.31s0-.15.05-.31a.57.57,0,0,1,.57-.28c.24.08.29.38.34.59s-.19.39,0,.61c.4-.19-.18-.4.68-.93Zm.79,1.29c-.15-.15-.13-.06-.08-.21,0,0,0-.1.09.06s0,.08,0,.15ZM34.92,23.33c-.53.58-.88,0-.91-.09-.09-.37-.12-.46,0-.6l.92.69ZM17.76,6.82c.16-.05.26,0,.44.12l-.29.25a.76.76,0,0,1-.15-.37ZM35.48,24.25l-.17-.12c.19-.24.2-.16.23-.16.21-.22.58-.36.73-.53l.17,0c.09.13.06,0,.05.18v.13a.61.61,0,0,1-.14.33c-.09.2,0,.3-.26.55l-.6-.36Zm-3.73-.41h-.16c0-.08-.12,0,.05-.13s1.5-1.93,1.61-2,.69-.13.86,0c-.34.15-.28.08-.57.45-.17.2-.38.39-.51.58-.4.56-1,.95-.88,1.21.23,0,.5-.49.73-.69a3.66,3.66,0,0,1,.23,1.28,8,8,0,0,1-1.36-.71Zm3.72-1c.15.05.06,0,.18.12-.17.13-.06.05-.15,0-.21.19-.24.17-.45,0l-.42-.29c-.81-.6-.58-.18-.91-.44a3.71,3.71,0,0,1,.31-.34,9.81,9.81,0,0,1,1.44.89Zm-.69,1a6.57,6.57,0,0,1,1.7-1c.14.19.08.27-.12.41s-.56.31-.84.54a3.64,3.64,0,0,1-.41.29l-.33-.24ZM18.66,6.91c-.21-.12-.26-.25-.52-.34a3,3,0,0,0-.5-.11,3.31,3.31,0,0,1-2.53-.81c-.26-.25-.37-.29-.43-.48a3.64,3.64,0,0,1-.07-.52,4.17,4.17,0,0,1-.11-.74,12.88,12.88,0,0,0-.71-2.76c-.11-.32-.3-.77.26-.86s2.15,1.92,2.47,2.62c.16.33.39.63.56,1s.31.64.5,1a13.68,13.68,0,0,1,1.08,2ZM34.32,21.67a4,4,0,0,1,1,.09,1.77,1.77,0,0,1,1,.69.36.36,0,0,1-.23.22c-.23.1-.4-.13-.75-.34-.14-.09-.94-.6-1-.66ZM5.6,29.09l-.11.16c.12-.11,0-.09.18,0-.15.08-.26.1-.09.25l-.1.07a.43.43,0,0,0,0,.05,9.61,9.61,0,0,0-.67,1.32,5.92,5.92,0,0,0-.65,1.31c-.36-.39.34-1.36.68-2,.21-.41.08-.33.49-.62l-.23,0a.49.49,0,0,1,0-.11c.1-.16,0-.07.15-.08s0,0,0-.12a5.9,5.9,0,0,0-1.42,1.12,3.55,3.55,0,0,0-.34.71c-.09.3,0,.26-.58.56C2.1,32.09.57,32.33,0,33c.23.28.44.17.75.17l1.52,0c.6,0,.91-.11,1.51-.09.24,0,.14-.1.37,0,.63.38,1,.2,1.52.32a1.2,1.2,0,0,0,.38,0l.17,0c.32,0,.66,0,1,.12l4.25.94a6.47,6.47,0,0,0,2.63,0c.15,0,.4-.12.54-.14l.16,0a3.89,3.89,0,0,1,.53-.21c.19-.07.39-.17.56-.25a17.38,17.38,0,0,0,1.75-1.12c-.21-.18-.05,0-.26-.18a11.35,11.35,0,0,0-1.27.86l-.07.11.1,0-.22.09h0c-.21-.18-.1,0-.11-.16s0-.06.09-.19a5.41,5.41,0,0,0,.51-.81c.15-.23.07-.22.35-.22s.27,0,.42.1.12,0,.24.16c.3.71,1.88-.87,2.61-1.54a16.45,16.45,0,0,1,6.64-4A10.13,10.13,0,0,1,28,26.83c.13-.07.07,0,.14,0,.28-.09.6-.13.92-.21l.33-.06c.5-.16,1.65-.27,1.87-.33,1-.27,2.13-.25,3.46-.55a1.93,1.93,0,0,0,.78-.22,1.64,1.64,0,0,0,1.09-1.3c0-.29.13-.47.2-.78s.13-.3-.11-.77a2.15,2.15,0,0,0-1.42-1.11,5.42,5.42,0,0,0-1.55-.08,21.65,21.65,0,0,0-3.06.69c-1.33.3-2.49.52-3.83.88l-.77.21c-.27.07-.47.14-.78.2-.83.16-1.27.32-2.32.48L21.78,24c-.19,0-.27.08-.4,0l.41-1.26a9.44,9.44,0,0,0,.23-1.3,6.78,6.78,0,0,0-.11-1.95,3.88,3.88,0,0,0-.14-.64l-.05-.16c0-.2-.42-1.69-.52-2.08-.31-1.13-.7-1-.56-1.57a9.21,9.21,0,0,0-.11-2.7,4.78,4.78,0,0,0-.39-1,3.07,3.07,0,0,0-.74-1.08,1,1,0,0,0,.28-.68,3.56,3.56,0,0,0-.08-.68L19.17,7.5a5.44,5.44,0,0,1-.28-.68C18.7,6.18,17.82,5,17.44,4.11a7.31,7.31,0,0,0-.35-.68A8.05,8.05,0,0,0,14.52.18,2.56,2.56,0,0,0,13.81,0c-.32.29-.42.39-.38.63,0,.09,0,.13,0,.22s.4,1,.54,1.67.19.84.3,1.66l.2,1.67a4.42,4.42,0,0,1,.09.84c0,.31.06.51,0,.83l-.36,2.92a29.23,29.23,0,0,1-1.21,3.78,21.68,21.68,0,0,1-.87,2.51c-.31.69-.53,1.41-.88,2.08l-.33.83c-.06.16-.08.27-.14.44-.21.6-.43,1.11-.59,1.67,0,.14-.06.24-.11.4l-.14.62c0,.09,0,.13,0,.22a9.5,9.5,0,0,0-.3,1.67v.84a11.85,11.85,0,0,0,.2,1.3.29.29,0,0,1-.13.05,5.51,5.51,0,0,0-.93.27,8.77,8.77,0,0,0-2.68,1.57,5.24,5.24,0,0,0-.55.4Z"/></g></g></svg>