<?xml version="1.0" encoding="UTF-8"?>
<!DOCTYPE svg PUBLIC "-//W3C//DTD SVG 1.1//EN" "http://www.w3.org/Graphics/SVG/1.1/DTD/svg11.dtd">
<!-- Creator: CorelDRAW X8 -->
<svg xmlns="http://www.w3.org/2000/svg" xml:space="preserve" width="96px" height="120px" version="1.1" style="shape-rendering:geometricPrecision; text-rendering:geometricPrecision; image-rendering:optimizeQuality; fill-rule:evenodd; clip-rule:evenodd"
viewBox="0 0 14 17"
 xmlns:xlink="http://www.w3.org/1999/xlink">
 <defs>
  <style type="text/css">
   <![CDATA[
    .fil4 {fill:#020102}
    .fil1 {fill:#5057A9}
    .fil0 {fill:#C68EB1}
    .fil2 {fill:#FAB355}
    .fil3 {fill:#FEFEFE}
   ]]>
  </style>
 </defs>
 <g id="Layer_x0020_1">
  <metadata id="CorelCorpID_0Corel-Layer"/>
  <g id="_2450606468288">
   <polygon class="fil0" points="1,15 1,15 1,15 2,15 2,15 2,15 2,16 2,16 2,16 2,17 2,17 1,17 1,17 0,16 0,16 0,16 0,15 0,15 "/>
   <polygon class="fil0" points="5,15 5,15 5,15 5,15 6,15 6,14 6,14 6,14 6,15 6,15 6,16 6,16 6,16 6,16 6,17 5,17 5,17 5,17 4,17 4,16 4,16 4,16 4,15 5,15 "/>
   <polygon class="fil1" points="5,12 5,12 6,12 6,12 6,12 6,12 7,12 7,12 7,12 6,13 6,14 6,14 6,15 5,15 5,15 5,15 5,14 5,13 5,13 5,12 "/>
   <polygon class="fil1" points="1,12 1,12 1,12 2,12 2,12 2,12 2,12 2,13 2,13 2,13 2,14 2,15 1,15 1,15 1,15 1,14 1,14 1,13 1,12 "/>
   <polygon class="fil0" points="1,12 1,12 1,12 2,12 2,12 2,12 2,11 3,11 3,10 3,10 3,10 4,10 4,11 4,11 5,11 5,11 5,11 5,12 5,12 6,12 7,12 7,11 8,11 8,12 9,11 10,11 11,11 11,11 11,11 12,11 12,11 13,11 13,8 13,8 12,8 12,8 10,9 9,9 8,9 8,9 8,9 8,9 7,9 7,10 7,9 6,9 5,10 5,10 4,9 4,9 3,9 3,9 2,9 2,9 1,9 1,9 1,9 1,10 "/>
   <polygon class="fil1" points="8,12 9,12 9,11 9,11 10,11 10,11 10,11 10,12 10,12 10,13 10,13 10,14 10,14 10,14 10,15 10,15 9,15 9,15 9,15 8,15 9,15 9,14 8,14 8,13 8,13 8,12 8,12 "/>
   <polygon class="fil0" points="12,15 12,14 12,14 12,14 13,14 13,14 13,14 13,15 13,15 13,15 13,15 13,15 13,16 13,16 13,16 13,16 13,16 12,16 12,16 11,16 11,16 11,16 11,15 11,15 12,15 "/>
   <path class="fil1" d="M11 11l0 0 1 0 0 0 1 0 0 0 0 1 0 0 0 1 0 1 0 0 -1 0c0,0 0,1 0,1l0 -1 0 0 -1 -1 0 -1 0 0 0 -1z"/>
   <polygon class="fil0" points="8,16 8,16 8,16 8,17 8,17 9,17 9,16 10,16 10,16 10,15 10,15 10,15 10,15 9,15 9,15 9,15 8,15 8,15 "/>
   <polygon class="fil1" points="1,9 1,7 1,7 1,7 2,7 2,7 2,7 3,7 3,8 3,8 3,8 3,8 4,9 4,9 3,9 3,9 1,9 "/>
   <polygon class="fil1" points="7,9 8,9 8,9 8,9 7,9 7,9 7,8 7,8 7,9 7,9 7,9 "/>
   <polygon class="fil1" points="8,9 8,9 9,9 10,9 11,9 11,9 12,8 13,8 13,7 13,6 12,5 12,5 11,6 10,6 10,6 10,7 10,7 10,7 9,8 9,8 8,8 8,8 8,9 8,9 "/>
   <polygon class="fil2" points="2,6 2,6 2,6 2,6 2,5 2,5 2,5 2,4 2,4 3,4 3,4 4,5 4,5 5,5 5,6 5,6 5,7 5,7 5,8 5,9 5,9 5,9 5,10 5,10 5,10 4,9 4,9 4,9 4,9 3,8 3,8 3,8 3,8 3,7 3,7 2,7 2,7 "/>
   <polygon class="fil3" points="5,8 6,8 6,8 7,8 6,8 7,8 7,8 7,8 8,8 8,9 8,9 8,9 8,9 8,9 8,9 7,9 7,8 7,8 7,9 7,9 7,9 7,9 7,9 6,9 6,9 6,9 6,9 5,9 5,8 "/>
   <polygon class="fil1" points="6,9 5,9 5,9 6,9 6,9 7,9 6,9 6,9 "/>
   <polygon class="fil0" points="7,4 7,4 6,4 5,4 5,4 4,4 4,4 3,4 3,4 2,3 2,4 2,4 2,4 2,4 3,4 3,4 4,5 4,5 4,5 4,5 5,5 5,5 6,5 6,5 7,5 7,6 8,6 8,6 8,6 9,6 9,6 9,6 9,6 9,5 9,5 8,5 8,5 8,5 8,5 7,4 "/>
   <polygon class="fil2" points="5,8 6,8 6,8 7,8 7,8 6,8 7,8 7,8 7,8 7,8 8,8 8,8 9,8 9,8 10,7 10,7 10,6 10,6 10,5 10,5 10,5 9,4 8,4 8,3 8,3 7,3 7,3 6,2 6,2 6,2 6,1 6,1 7,1 6,1 6,1 6,1 6,1 6,1 6,0 6,0 6,0 5,0 5,1 5,1 6,2 6,3 6,3 7,4 8,4 9,5 9,5 9,6 9,6 9,6 8,6 8,6 7,5 7,5 6,5 5,5 5,5 5,5 5,6 5,7 5,8 "/>
   <polygon class="fil0" points="1,7 1,6 1,5 1,5 2,5 2,4 2,4 2,5 2,5 2,5 2,5 2,6 2,6 2,6 2,6 2,7 2,7 2,7 2,7 1,7 "/>
   <polygon class="fil1" points="2,3 2,3 3,3 3,3 3,3 3,2 3,2 3,2 4,2 6,2 6,2 6,3 6,3 7,4 7,4 7,4 7,4 5,4 4,4 3,4 3,4 "/>
   <polygon class="fil0" points="10,6 11,6 11,6 12,5 12,5 13,6 13,6 13,6 13,6 13,6 13,7 14,6 13,6 13,6 13,5 12,5 12,4 12,4 12,3 11,3 10,4 9,4 9,4 9,4 10,5 10,5 10,5 "/>
   <polygon class="fil1" points="9,4 9,4 10,4 10,4 11,3 11,3 11,3 11,3 11,2 10,1 10,1 9,1 9,2 8,2 7,2 6,2 6,2 6,2 7,3 8,3 9,4 "/>
   <polygon class="fil0" points="6,0 7,0 7,0 8,1 9,1 9,1 10,1 9,1 9,2 7,2 6,2 6,2 6,1 6,1 6,1 6,1 6,1 6,1 6,1 6,0 "/>
   <polygon class="fil3" points="6,6 6,6 6,6 7,6 7,6 7,6 7,6 6,6 6,6 6,6 "/>
   <polygon class="fil0" points="3,2 4,2 4,2 4,1 5,1 5,1 5,1 5,1 5,2 6,2 5,2 4,2 4,2 "/>
   <path class="fil4" d="M6 6c0,0 0,0 0,0 0,0 0,0 0,0 0,0 0,0 0,0 0,0 0,0 0,0zm0 -6c0,1 0,1 0,1 0,0 0,0 0,0 0,0 0,0 0,0 0,0 0,0 0,0 0,-1 0,-1 0,-1zm-1 6c0,0 0,0 0,0 -1,0 -1,-1 -1,-1l0 0c1,0 1,0 1,1zm-1 -4c0,0 -1,0 -1,0 0,0 0,0 0,1 0,0 0,0 0,0 1,-1 1,-1 1,-1zm0 0c0,0 0,1 -1,1 0,0 0,0 0,0 0,0 0,0 0,0l0 0c0,0 0,0 0,0l0 0c0,0 1,0 1,-1 0,0 0,0 0,0zm-1 6l0 0 0 0c0,0 0,0 0,0 0,0 0,0 0,0l0 0zm0 -1c0,0 0,0 0,0 0,0 -1,0 -1,0 0,0 0,0 0,0 1,0 0,0 1,0 0,0 0,0 0,0zm0 0l0 0 0 0c0,0 0,0 0,0 0,0 0,0 0,0 0,0 0,0 0,0zm5 -6c0,0 0,0 0,0l0 0c0,0 -1,0 -2,0 0,0 1,0 1,0l0 -1c0,0 0,0 0,0 0,0 0,0 0,0 1,0 1,1 1,1zm-3 0l0 0c0,0 0,0 0,0 0,0 0,0 0,0 0,0 0,0 0,0zm4 0c0,0 0,0 1,0 0,0 0,0 0,0 0,1 -1,1 -1,0zm-4 0l0 0 -1 1c0,0 0,0 0,0 0,0 0,0 0,0l0 -1c1,0 1,0 1,0zm4 0c0,0 -1,0 -1,0l-2 0c0,0 0,0 0,1 0,0 2,-1 2,-1 1,0 1,0 1,0l0 0c0,0 0,0 0,0 0,0 0,1 0,1 0,0 -1,0 -1,0 0,0 -2,0 -2,0 0,0 0,-1 0,-1 0,0 0,0 0,0 1,0 1,0 1,0 0,0 0,0 0,0 1,0 1,0 1,0 0,0 0,0 1,0 0,0 0,0 0,0zm1 1l0 0c0,0 -1,0 -1,0 0,0 0,0 0,0 0,0 0,0 1,0 0,0 0,0 0,0zm0 0c0,0 0,0 0,0 0,0 -1,0 -1,0 0,0 0,0 0,0 0,0 0,0 0,0 0,0 0,0 0,0 1,0 1,0 1,0zm-1 0c0,0 -1,0 -1,0 0,0 0,0 1,0 0,0 0,0 0,0zm-3 0l-2 0c0,0 0,0 0,0l0 0c-1,0 0,0 -1,0 1,0 1,0 1,0 0,0 1,0 1,0 0,0 0,0 0,0 0,0 1,0 1,0zm0 0c0,0 0,0 0,0 0,0 0,0 0,0zm5 0c-1,0 -1,0 -1,0 0,0 0,0 -1,0 0,0 0,0 0,0 0,0 0,0 0,0 0,0 0,0 1,0 0,0 0,0 1,0zm-4 0c0,0 0,0 0,0l0 0c0,0 0,0 0,0 0,0 0,0 0,0 0,0 0,0 0,0zm-1 0c-1,0 -1,0 -1,0 0,0 1,0 1,0 0,0 0,0 0,0zm3 0c0,0 0,0 0,0 0,1 -1,1 -1,0 0,0 0,0 0,0 0,0 0,0 0,0 0,1 1,0 1,0zm-2 1c0,0 -1,0 0,-1l0 0c0,0 0,0 0,1 0,0 0,-1 0,-1 0,1 0,1 0,1zm2 -1l0 0c0,1 0,1 -1,1 0,0 0,-1 -1,-1 1,0 1,0 1,0 0,0 0,0 0,0 0,1 0,1 1,1 0,0 0,0 0,-1zm-3 1c0,0 -1,0 -1,-1 0,0 0,0 0,0 1,1 1,1 1,1l0 0zm4 0c0,0 0,0 0,0l0 -1c0,1 0,1 0,1 0,0 0,0 0,0zm-2 0c0,0 0,0 -1,0 0,0 0,0 0,0 0,0 0,0 1,0 0,0 0,0 0,0l0 0zm2 -1l0 1c0,0 -1,0 -2,0 0,0 0,0 0,0 0,-1 0,-1 -1,-1 0,0 0,0 0,0l0 0c0,0 0,0 1,0 0,0 0,1 0,1 1,0 1,0 1,0 1,0 0,0 1,-1zm1 1l0 0c0,0 0,0 0,0 0,0 0,0 0,0zm-1 -1l0 0c1,1 0,1 0,1 0,0 0,0 -1,0 1,0 1,0 1,0 0,0 0,0 0,-1zm-6 0c0,0 0,0 1,0 -1,1 -1,1 -2,1l0 0c0,0 0,0 0,0 0,0 0,0 0,0 1,0 1,0 1,0 0,0 0,-1 0,-1zm2 1c0,0 -1,0 -1,0 0,0 0,0 0,0 0,0 0,0 0,0 0,0 0,0 0,0 1,0 1,0 1,0 0,0 0,0 0,0zm5 -1l0 0c0,0 0,0 0,0 0,1 0,1 -1,1 0,0 0,0 0,0 -1,0 -1,0 -1,0l0 0c0,0 1,0 1,0 0,0 0,0 1,0 0,0 0,0 0,0 0,-1 0,-1 0,-1zm-2 1c0,0 -1,0 -1,0 1,0 1,0 1,0l0 0zm-3 0l0 0c0,0 0,0 0,0 0,0 0,0 -1,0 0,0 0,0 0,0l0 0c0,0 0,0 1,0 0,0 0,0 0,0zm-1 -1l0 0c0,0 0,0 0,1 0,0 -1,0 -1,0 0,1 -1,1 -1,1 0,0 -1,-1 -1,-1l1 0c0,0 0,1 1,0 0,0 0,0 0,0 1,-1 1,-1 1,-1zm6 1c0,0 0,0 0,0 0,0 0,0 0,0l-1 1 -1 0c0,0 0,-1 0,-1 0,0 0,0 0,0 0,0 0,0 0,0 1,1 1,0 1,0 1,0 1,0 1,0 0,0 0,0 0,0zm-2 1c0,0 -1,0 -1,0 0,-1 0,-1 0,-1 0,0 0,0 0,0 0,0 1,1 1,1 0,-1 0,-1 0,0zm-2 0c0,0 -1,0 -1,0 0,-1 0,-1 0,-1 1,0 1,1 1,1zm-3 0c0,0 0,0 0,0l0 0 0 0c0,0 0,0 0,0zm0 0c0,0 -1,0 -1,0 0,0 0,0 1,0 0,0 0,0 0,0 0,0 0,0 0,0 0,0 0,0 0,0 0,0 0,0 0,0zm5 0l0 0c0,0 0,0 0,0 0,0 0,0 0,0 0,0 0,0 0,0 0,0 0,0 0,0zm-5 -1c0,0 0,0 1,0 0,0 0,1 0,1 0,0 -1,0 -1,0 0,0 0,0 0,-1zm1 0l0 0c0,0 0,0 0,0 0,1 0,1 0,1 0,0 0,0 0,0 0,0 0,0 0,0 0,-1 0,0 0,-1zm6 0c1,0 1,0 1,0 0,1 -2,1 -2,1 -1,0 -1,0 -1,0 0,0 0,0 0,0 0,0 0,0 1,0 0,0 1,0 1,-1 0,0 0,0 0,0zm-5 1l-1 0c0,0 0,0 0,0 0,0 0,0 0,-1l0 1c0,0 0,0 1,0zm1 0l0 0c0,0 0,0 0,0 -1,0 -1,0 -1,0 0,0 0,0 0,0 0,0 0,0 0,0 0,0 0,0 0,0 1,0 1,0 1,0 0,0 0,0 0,0zm-1 0c0,0 0,0 -1,0 0,0 1,0 1,0 0,0 0,0 0,0 0,0 0,0 0,0zm-3 0c-1,0 -1,0 -1,0 0,0 0,0 1,0 0,0 0,0 0,0zm9 0c0,0 0,0 0,0 0,0 -1,0 -1,0 0,0 0,1 -1,1 0,0 0,0 0,0 0,0 0,0 0,0 0,0 0,-1 -1,-1l2 0c0,0 1,0 1,0zm-9 1c0,0 0,-1 0,-1 0,0 0,0 0,1zm5 0c0,0 -1,0 -2,0 0,0 0,-1 -1,0 0,-1 0,0 0,0 0,0 -1,-1 -1,-1 0,0 0,1 0,0 0,0 0,0 0,0 -1,0 -1,0 -2,0 0,0 0,0 0,0 0,0 0,0 0,0 0,0 0,0 0,0 0,0 0,0 1,0l0 0c0,0 1,0 2,0 0,0 1,0 2,0 0,0 0,0 0,0 0,0 1,0 1,1zm-5 0c0,0 0,0 0,-1 1,0 0,1 0,1zm1 0c0,0 0,0 1,0 0,0 0,0 0,0 0,0 0,0 -1,0 0,0 0,0 0,0zm-1 0c0,0 0,0 0,0l0 0 0 0zm1 0c0,0 0,0 0,0 0,0 0,0 0,0 0,0 0,0 0,0zm-1 0c0,0 -1,0 -1,0 0,0 1,0 1,0 0,0 0,0 0,0zm5 0l-1 0c0,0 0,0 0,0 0,0 0,0 0,0 0,0 0,0 1,0 0,0 0,0 0,0 0,0 0,0 0,0zm-5 0c0,0 0,0 1,0 0,0 -1,0 -1,0 0,0 0,0 0,0zm9 -1l0 0c0,0 -1,1 -1,1 0,0 0,0 0,0 0,0 -1,0 -1,0 0,0 0,0 0,0 0,0 0,0 0,0 1,0 2,-1 2,-1zm-10 1c0,0 0,0 0,0l0 0c0,0 0,0 0,-1 0,0 0,1 0,1 0,0 0,0 0,0 0,0 0,0 0,0zm0 0c0,0 0,0 0,0 0,0 0,0 0,0 0,0 0,0 0,0 0,0 0,-1 0,-1 0,1 0,1 0,1 0,0 0,0 0,0zm2 0c0,0 0,0 0,0 0,0 0,0 0,0 0,0 0,0 0,0 0,0 0,0 0,0zm0 0l0 0c0,0 0,0 0,0 0,0 0,0 0,0zm-1 0c-1,0 -1,0 -1,0 0,0 0,0 0,0l1 0zm0 0l0 0c0,0 0,0 0,0 0,0 0,0 0,0 0,0 0,0 0,0 0,0 0,0 0,0zm5 0c0,0 0,0 0,0 0,1 -1,1 -1,0 0,0 1,0 1,0 0,0 0,0 0,0zm-5 0c0,0 0,0 0,0 0,0 0,0 0,0 0,0 0,0 0,0 0,0 0,0 0,0 0,0 0,0 0,0zm1 0l0 0c0,0 0,0 0,1 0,0 0,0 0,0 0,0 0,0 0,0 0,0 0,-1 0,-1 0,0 0,0 0,0 0,0 0,0 0,0zm-2 0c0,0 0,0 0,0 0,0 0,0 -1,0 0,0 0,0 1,0 0,0 0,0 0,0 0,0 0,0 0,0zm2 0c0,0 0,0 0,1 0,0 0,-1 0,-1zm8 -1c0,0 0,1 0,1 0,0 0,0 -1,0 0,0 0,1 -1,1l0 -1c0,0 1,0 1,0 0,0 1,0 1,0 0,0 0,-1 0,-1zm-10 2c0,-1 0,0 0,-1 0,0 0,0 0,0 1,1 1,0 1,0 0,1 0,1 0,1 -1,0 -1,0 -1,0zm1 0c0,0 0,0 0,0 0,0 0,0 0,0 0,0 0,0 0,0 0,0 0,0 0,0zm6 -1c0,0 0,1 0,1l0 0c0,0 -1,0 -1,0 0,0 0,0 0,0 0,0 0,-1 1,-1zm-7 1l0 0 0 0 0 -1c0,0 0,1 0,1 0,0 0,0 0,0l0 0zm2 0l0 0c-1,0 -1,0 -1,0 0,0 0,0 0,0 0,0 0,0 0,0 1,0 1,0 1,0zm8 -1c0,1 0,1 -1,1l1 -1zm-8 1c0,0 0,0 0,0 0,0 0,0 0,0 0,0 0,0 0,0 0,0 0,0 0,0zm0 0l0 0c0,0 0,0 0,0 0,0 0,0 0,0 0,0 0,0 0,0zm-2 0c0,0 -1,0 -1,0l0 0 1 0c0,0 0,0 0,0zm1 0l0 0c0,0 -1,0 -1,0 0,0 0,0 0,0 1,0 1,0 1,0zm9 -1l0 0c0,1 0,1 0,1 0,0 -1,0 -1,0l0 0c0,0 1,0 1,0 0,0 0,0 0,0 0,-1 0,-1 0,-1zm-9 1c0,0 0,0 0,0 0,0 0,0 0,0 0,0 0,0 0,0 0,0 0,0 0,0zm2 0l0 0c0,0 0,0 0,0 0,0 0,0 0,0zm4 0c0,0 0,0 -1,0 0,0 0,0 0,0 0,0 0,0 0,0 0,0 1,0 1,0 0,0 0,0 0,0zm-5 0c-1,0 -1,0 -1,0 0,0 0,0 1,0 0,0 0,0 0,0zm7 0l0 0c0,0 0,0 0,0 0,0 0,0 0,0 1,0 1,0 1,0 0,0 0,0 0,0 0,0 0,0 0,0l0 0c0,0 0,0 0,0 0,0 0,0 0,0 0,0 -1,0 -1,0zm-8 0c0,0 0,0 0,0 0,0 0,0 0,0 0,0 0,0 0,0zm2 0c-1,0 -1,1 -1,1 0,-1 0,-1 0,-1 1,0 1,0 1,0 0,0 0,0 0,0zm6 0c0,0 0,0 0,0 0,0 0,0 -1,0 0,0 1,0 1,0 0,0 0,0 0,0zm-9 0c0,0 0,0 0,0 0,0 0,0 0,0l0 0zm2 0l0 0c0,0 0,0 0,0 0,0 0,0 0,0zm-2 0c0,0 -1,0 -1,0l0 0c0,0 0,0 1,0 0,0 0,0 0,0zm11 0c0,0 0,0 0,0 0,0 0,0 0,0 0,0 0,0 0,0 -1,-1 0,-1 -1,-1 0,0 0,0 0,0 0,0 0,0 -1,1 0,0 0,0 -1,0l0 0c0,0 0,0 0,0l2 -1c0,0 0,0 0,0l1 1c0,0 0,0 0,0zm-3 0l0 0c0,0 0,0 0,0 1,0 1,0 1,0 0,0 0,0 0,0 0,0 0,0 0,0 0,0 0,0 -1,0zm-5 0l0 1 0 0c0,0 0,0 0,-1 0,0 0,0 0,0zm-2 0c0,1 0,0 0,0 0,0 0,0 0,0l0 0c0,0 0,0 0,0zm10 0c0,0 -1,0 -1,0 0,0 0,0 1,0l0 0zm-12 0c0,0 1,0 1,0 0,0 0,0 0,0l0 1c0,0 -1,0 -1,0l0 -1zm2 0c0,0 0,0 0,0l0 0c0,0 0,0 0,1 0,0 0,0 0,-1l0 0zm1 1c0,0 0,0 0,0 0,0 -1,0 -1,0 1,-1 1,-1 1,-1 0,0 0,1 0,1zm7 -1c0,1 0,1 -1,1 0,0 0,0 0,0 1,0 1,-1 1,-1 0,0 0,0 0,0zm2 1c-1,0 -1,-1 -1,-1 0,0 0,0 0,0 0,1 1,1 1,1l0 0zm-10 0c0,0 0,0 0,0 0,0 0,0 0,0l0 0zm1 0c0,0 0,0 0,0 0,0 0,0 0,0 0,0 0,0 0,0zm1 0c0,0 0,0 0,0 0,0 0,0 -1,0 0,0 0,0 1,0zm-4 0c0,0 0,0 0,0 0,0 0,0 0,0 0,0 0,0 0,0 0,0 0,0 0,0zm2 0c0,0 0,0 0,0l0 0c0,0 0,0 0,0zm9 0c0,0 -1,0 -1,0 0,0 0,0 0,0 0,0 -1,0 -1,0 0,0 1,0 1,0 0,0 0,0 1,0zm-7 0l0 0c0,0 0,0 0,0 0,0 0,0 0,0zm-2 0c0,0 0,0 0,0 0,0 0,0 0,0 0,0 0,0 0,0zm10 0c0,0 0,0 0,0l0 0c-1,0 -1,0 -1,-1 0,0 0,0 0,0 0,0 0,1 0,1 0,0 0,0 0,0 1,0 1,0 1,0zm-9 0c0,0 0,0 0,0 0,0 0,0 0,0 -1,0 0,0 0,0zm-2 0c0,0 -1,0 -1,0 0,0 0,0 0,0 1,0 0,0 1,0zm2 0c0,0 0,0 0,0 0,0 0,0 0,0 0,0 0,0 0,0zm8 0c0,0 -1,0 -1,0 0,0 1,0 1,0 0,0 0,0 0,0zm-9 0c-1,0 -1,0 -1,0 0,0 0,0 0,0 0,0 0,0 0,0 0,0 0,0 1,0zm0 0c0,0 0,0 0,0 0,0 0,0 0,0 0,0 0,0 0,0zm7 0c0,0 1,0 1,0 0,0 -1,0 -1,0 0,0 0,0 0,0zm-5 0c0,0 0,0 0,0 0,1 0,1 0,1 -1,-1 0,-1 0,-1zm8 1c-1,-1 -1,-1 -1,-1 0,-1 0,-1 0,-1l0 0c0,1 0,1 0,1 0,0 0,0 1,0l0 1zm-11 -1l0 0c0,0 0,0 -1,0 0,0 0,1 0,0 0,0 0,0 0,0 1,0 1,0 1,0zm10 0c0,1 0,1 -1,0 0,0 0,0 0,0 0,0 0,0 0,0 1,1 1,0 1,0zm-9 0c0,1 0,0 0,1 0,0 0,0 0,-1 0,0 0,0 0,0zm1 0c0,1 0,1 0,1l0 0c-1,0 0,-1 0,-1 0,0 0,0 0,0zm1 0l0 1 0 0c0,-1 0,-1 0,-1zm-2 0c0,0 0,0 0,0 0,1 -1,1 -1,1 0,0 0,0 0,0l0 -1c0,0 0,1 0,1 1,0 1,-1 1,-1zm8 1c0,0 0,0 0,0 -1,0 -1,-1 -1,-1 0,0 0,1 0,1 0,0 0,0 1,-1l0 1zm1 0l0 0 0 0c0,0 0,0 0,0 -1,0 -1,0 -1,-1l0 0c0,0 0,0 0,0 0,0 0,1 1,1 0,0 0,0 0,0 0,0 0,-1 0,-1l0 1zm-8 -1c0,1 0,1 0,1 0,0 0,0 0,0 0,0 0,0 0,0 0,0 0,-1 0,-1zm-3 1c0,0 1,-1 1,-1 0,0 0,0 0,0 0,0 -1,1 -1,1l0 0zm2 0c0,0 0,0 0,0 0,0 0,0 0,0l0 0c0,0 0,0 0,0zm1 0c0,0 0,0 0,0 0,0 0,0 0,0 -1,0 -1,0 0,0zm7 0c0,0 -1,0 -1,0 0,0 0,0 0,0 0,0 0,0 0,0 1,0 1,0 1,0zm-8 0c0,0 0,0 0,0 -1,0 -1,0 -1,0 0,0 0,0 0,0 0,0 0,0 0,0 0,0 0,0 1,0zm2 0l0 0c0,0 0,0 0,0 0,0 0,0 0,0 0,0 0,0 0,0 0,0 0,0 0,0l0 0zm-1 0c0,0 0,0 0,0 0,0 0,0 0,0 0,0 0,0 0,0zm9 0c0,0 0,0 0,0 0,0 0,0 0,0zm0 0l0 0c0,0 -1,0 -1,0 0,0 0,0 -1,0 0,0 0,0 0,0 0,0 0,0 0,0 0,0 0,0 0,0 0,-1 0,-1 0,-1l0 0c0,0 0,0 0,1 0,0 1,0 2,0zm-8 0c0,0 0,0 0,0 0,0 0,0 0,0 0,0 0,0 0,0l0 0zm5 0c0,0 0,0 -1,0l0 0c0,0 0,0 0,0 0,0 0,0 1,0zm-6 0c0,0 0,0 0,0 0,0 0,0 0,0 0,0 0,0 0,0zm6 0c0,0 0,0 0,0 0,0 0,0 0,0 0,0 0,0 0,0 1,0 1,0 1,0 0,0 0,0 0,0 0,0 0,0 -1,0 0,0 0,0 0,0zm-4 -7c0,0 0,0 0,0 0,0 0,0 0,0 0,0 0,0 0,0 0,0 0,0 0,0 0,1 0,1 0,1 0,0 0,1 1,1 0,0 0,0 0,0l1 0c0,0 0,1 0,1 0,0 1,0 1,0 0,1 1,1 1,1 0,0 0,0 0,0 0,0 0,0 0,0 0,1 0,2 0,2 0,0 0,1 -1,1 0,0 0,0 0,0 0,0 0,0 0,0 0,0 -1,0 -1,0 -1,0 -1,0 -1,0 0,0 0,0 -1,0 0,0 0,0 1,0 -1,0 -1,0 -2,0 0,0 0,0 0,-1 0,0 0,0 0,-1 0,0 0,0 0,-1 0,0 0,0 0,0 -1,0 0,0 0,0 0,0 1,0 1,0 1,0 1,0 1,0 0,0 0,0 0,0 0,1 0,1 1,1 0,0 0,1 1,0 0,0 0,0 0,0 0,-1 0,-1 0,-1 -1,0 -1,0 -1,0l-1 -1c0,0 0,0 0,-1 -1,0 -1,0 -1,0 0,0 0,0 0,-1 0,0 -1,-1 -1,-1 0,0 1,0 1,0 0,-1 -1,-1 0,-1 0,0 0,1 0,1 0,0 0,0 0,0 0,0 0,0 0,0 0,0 0,0 0,0zm-3 7c0,0 -1,0 -1,0 0,0 0,0 0,0 0,0 0,0 0,0 0,0 0,0 0,0 0,0 0,0 0,0 1,0 1,0 1,0zm0 0c0,0 0,0 0,0 0,0 0,0 0,0 0,0 1,0 1,0l0 0c0,0 0,0 -1,0zm2 0c0,0 0,0 0,0 0,0 0,0 0,0l0 0zm3 0c0,0 0,0 0,0 0,1 0,0 0,0l0 0zm1 0c0,0 0,0 0,0 0,0 0,0 0,0 0,0 0,0 0,0 0,0 0,0 0,0zm3 0c0,0 0,0 0,0 -1,0 -1,1 -1,1 0,0 0,-1 0,-1 0,0 0,0 0,0 0,0 0,0 0,0 0,0 0,0 0,0 1,0 1,0 1,0l0 0zm-8 1c0,-1 0,-1 0,-1 0,0 0,0 0,1l0 0zm-2 -1c0,1 0,1 0,1 0,0 0,0 0,0 0,0 0,0 0,-1l0 0zm3 1c0,0 0,0 0,0 0,0 0,0 0,0 0,-1 0,-1 0,-1l0 1zm2 0c0,0 0,0 0,0 0,0 0,-1 0,-1 0,0 0,0 0,1zm-3 0c0,-1 0,-1 0,-1 0,0 0,0 1,1l-1 0zm5 -1c0,1 0,0 0,1 0,0 0,-1 0,-1 0,0 0,0 0,0 0,0 0,0 0,0zm-8 1c0,0 0,0 0,0l0 -1c0,0 0,1 0,1zm7 0c1,0 0,0 0,0 0,0 0,0 0,0 0,0 0,0 0,0zm-6 -1c0,1 0,1 0,1 0,0 0,0 0,-1 0,0 -1,0 -1,0l0 0c1,0 1,0 1,0 0,0 0,0 0,0zm2 0c0,0 0,0 0,1 0,0 0,0 0,0 0,0 0,0 0,-1zm6 1c0,0 0,0 0,-1 0,0 0,0 0,0 0,1 0,1 1,1l-1 0zm-9 -1c0,0 0,0 0,0 0,0 0,1 0,1 0,0 0,0 0,0 0,0 0,-1 0,-1 0,0 0,0 0,0zm0 0c0,0 0,0 0,0 0,0 0,0 0,0 1,0 1,1 1,1l-1 0c1,-1 0,-1 0,-1 0,0 0,0 0,0l0 0zm6 1c0,0 0,0 0,0 0,0 0,0 0,0 0,0 0,0 0,0l0 0c0,0 0,0 0,0zm-2 0c0,0 0,0 0,0 0,0 0,0 0,0 0,0 0,0 0,0zm0 0c0,0 0,0 0,0 0,0 0,0 0,0 0,0 0,0 0,0zm4 -1c0,0 0,0 0,1 0,0 0,0 0,0 0,0 0,0 -1,-1l1 0zm1 1c0,0 0,-1 0,-1 0,0 0,0 0,0 0,1 0,1 0,1l0 0zm-9 0c0,0 0,0 0,0 0,0 0,0 0,0l0 0 0 0zm2 -1c0,1 0,1 0,1 -1,0 -1,0 0,0 0,0 0,-1 0,-1zm3 1c0,0 0,0 0,0 0,0 0,0 -1,0 1,0 1,0 1,0zm-1 0c0,0 0,0 0,0l-1 0c0,0 0,0 1,0 0,0 0,0 0,0l0 0zm4 0c0,0 0,0 -1,0 0,0 0,0 0,0 0,0 0,0 0,0 0,0 0,0 1,0 0,0 0,0 0,0zm1 0c0,0 0,0 0,0 0,0 0,0 0,0 0,0 -1,0 -1,0 0,-1 0,-1 1,-1l0 0c0,0 0,1 0,1 0,0 0,0 0,0l0 0 0 0zm-3 0c0,0 0,0 0,0l0 0c0,0 0,0 0,0 0,0 0,0 0,0 0,0 0,0 0,0 0,0 0,0 0,0 0,0 0,0 0,0l0 0zm-4 0c0,0 0,0 0,0l0 0c0,0 0,0 0,0 0,0 0,-1 0,0 0,0 0,0 0,0 0,0 0,0 0,0zm0 0c0,0 0,0 0,0 0,0 0,0 0,0 0,0 0,0 0,0l0 0c0,0 0,0 0,0l0 0 0 0zm1 0c0,0 0,0 0,0 0,0 0,0 0,0l0 0c0,0 0,0 0,0 0,0 0,0 0,0 0,0 0,0 0,0zm1 0c0,0 0,0 0,0 0,0 0,0 0,0l0 0zm4 0c-1,0 0,0 -1,0 0,0 1,0 1,0 0,0 0,0 0,0 0,0 0,0 0,0 0,0 0,0 1,0l-1 0zm-5 0c0,0 0,0 0,0l0 0c0,0 0,0 0,0zm1 0c0,0 1,1 0,0 0,0 0,0 0,0 0,0 0,0 0,0zm-1 0c0,0 0,0 0,0 0,0 -1,0 -1,0 0,0 0,0 1,0zm1 0c-1,0 0,0 -1,0 0,0 1,0 1,0 0,0 0,0 0,0 0,0 0,0 0,0l0 0zm2 0c0,0 0,0 0,0 0,0 0,0 0,0 0,0 0,0 1,0 0,0 0,0 0,0l-1 0zm0 -1c0,0 0,0 0,0 0,0 0,0 0,0 1,0 0,0 1,0 0,0 0,1 0,1 0,0 0,0 0,0 0,0 0,0 0,0l-1 -1c0,0 0,0 0,0zm-1 1c0,0 0,0 0,0l0 0 0 0c0,0 0,0 0,0 0,0 0,0 0,0 0,0 0,0 0,0 0,0 0,0 0,0 0,0 0,0 0,0zm1 0c0,0 0,0 0,0 0,1 0,0 0,0 -1,0 -1,0 -1,0 0,0 0,0 -1,-1l1 0c0,0 0,0 0,0 1,1 0,1 1,1zm-6 0c0,0 0,0 0,0l0 1c0,0 0,-1 0,-1 0,0 0,0 0,0zm4 0c0,0 0,0 0,0 0,0 0,0 0,0 0,0 0,0 0,1 0,-1 0,-1 0,-1zm0 1c0,0 0,0 0,0 0,0 0,-1 0,-1l0 1zm-4 -1c0,0 0,1 0,1l0 0c0,0 0,0 0,0 0,-1 0,0 0,-1 0,0 0,0 0,0zm3 0c0,0 -1,1 -1,1 0,0 0,0 0,0 0,0 0,0 0,0 0,0 0,0 0,0 1,-1 0,0 0,-1l1 0zm0 0c0,1 0,1 0,1 0,0 0,0 0,0 0,0 -1,0 -1,0 0,0 1,-1 1,-1l0 0c0,1 0,1 0,1 0,0 0,0 0,0 -1,0 0,0 0,0 0,0 0,0 0,0 0,0 0,0 0,0 0,0 0,-1 0,-1zm-2 0c0,1 -1,1 -1,1 0,0 0,1 0,1l0 -1 0 0 1 -1 0 0 0 0zm3 1c0,0 -1,0 -1,0 0,0 0,0 0,1l0 -1c0,0 0,0 0,0 0,0 0,0 1,0zm0 0c0,0 0,0 -1,1l0 0 0 0 1 -1c0,0 0,0 0,0zm0 0c0,1 0,1 0,1 0,-1 0,-1 0,-1 0,0 0,0 0,0l0 0zm1 -1c0,1 0,1 0,1 -1,0 -1,0 -1,0 0,0 0,1 0,1 0,0 0,0 0,-1 0,-1 0,0 0,0 1,0 1,-1 1,-1zm6 0c0,1 -1,1 -1,1l0 1c0,0 0,0 0,0 0,0 0,-1 0,-1 0,0 0,0 0,0 1,-1 1,-1 1,-1 0,0 0,0 0,0 0,0 0,0 0,0 0,-1 0,-1 0,-1 0,0 1,0 1,0l-1 1zm1 -1c0,0 0,1 0,1 0,0 0,0 0,0l-1 0c0,1 0,1 0,1l-1 1c0,0 0,0 0,0 0,0 0,0 0,0 0,0 0,0 0,0l1 -1c0,0 0,-1 0,-1 0,0 0,0 1,0 0,-1 0,-1 0,-1zm-1 3c0,0 0,0 1,0 0,0 0,0 0,-1l0 1 -1 0zm-6 -1c0,0 0,0 0,0 0,0 -1,1 -1,1l0 0c0,0 0,0 0,0 0,-1 0,-1 0,-1 1,0 0,0 1,0 0,0 0,0 0,0zm7 0c0,0 -1,1 -1,1 0,0 0,0 0,0 0,0 0,0 0,0l1 -1c0,0 0,0 0,0l0 0zm0 0c0,0 -1,0 -1,1 0,0 0,0 0,0 0,0 0,0 0,0 0,0 0,0 0,0 0,-1 1,-2 1,-2l0 1zm-3 -1c-1,0 -1,1 -1,1 0,0 0,0 0,0 0,0 0,0 0,0 0,1 -1,1 -1,1l1 -1c0,-1 0,-1 1,-1zm3 0c0,0 0,0 0,0 0,0 0,0 0,0 0,0 0,1 -1,1 0,0 0,0 0,0 0,0 0,0 0,0l-1 1c0,0 0,0 0,0 0,0 1,0 1,0l1 -2zm-5 0c0,1 -1,2 -1,2 0,0 0,0 0,0l0 0 0 -1c0,0 0,0 0,0 1,-1 1,-1 1,-1zm0 0c0,1 0,1 0,2 0,0 0,0 0,0 -1,0 -1,0 -1,0l0 0 1 -2 0 0zm1 0c0,1 -1,1 -1,1 0,0 0,0 0,1 0,0 0,0 0,0 0,0 0,0 -1,0 1,0 1,0 1,0 0,-1 0,-1 0,-1 0,0 0,0 0,0 0,0 0,0 0,0 0,0 0,0 0,0 0,-1 0,0 0,-1 1,0 0,0 1,0zm4 2c0,0 0,1 0,1 -1,0 -1,-1 -1,-1 0,0 0,0 1,0 0,0 0,0 0,0zm-4 -2c0,0 0,1 -1,1l0 1c0,0 0,0 0,0l1 -1c0,-1 0,-1 0,-1zm-7 0c0,0 0,1 0,1 0,0 0,0 0,0 -1,1 -1,1 -1,1l0 1c0,-1 0,-1 0,-1 0,0 0,0 0,0 0,0 0,-1 0,-1 0,0 1,0 1,0 0,-1 0,-1 0,-1l0 0zm8 2c0,0 0,0 0,0 0,0 0,0 1,0 0,-1 0,-1 0,-1 0,-1 0,-1 0,-1 1,0 1,0 1,-1 0,0 0,0 0,0 0,0 0,1 0,1 0,0 0,0 0,0 0,0 -1,0 -1,1 0,0 0,1 0,1 -1,0 -1,0 -1,0zm0 -2c0,0 0,1 0,1 -1,0 -1,0 -1,0 0,0 0,1 0,1 0,0 -1,0 -1,0 0,0 0,0 0,0l0 0c0,0 1,0 1,-1l0 0c0,0 0,0 1,-1 0,0 0,0 0,0zm-4 1c0,0 0,0 0,0 0,0 0,0 0,1 -1,0 -1,0 -1,0 0,0 0,1 0,1l0 -1c0,0 0,0 0,0 0,0 0,0 0,0l0 -1c1,0 1,0 1,0 0,0 0,0 0,0zm4 -1c0,1 0,1 0,1l0 1c0,0 0,0 0,0 -1,0 -1,0 -1,0 0,0 0,0 0,0 0,0 1,0 1,-1l1 -1c0,0 0,0 0,0l0 0 -1 0zm1 0c0,1 0,1 -1,1 0,1 0,1 0,1 0,0 0,0 0,0 0,0 0,0 0,0 0,0 0,0 0,0 0,0 0,0 -1,0 1,0 1,0 1,0 0,-1 0,-1 0,-1l0 0c0,0 1,0 1,-1 0,0 0,0 0,0l0 0c0,0 0,0 1,0l-1 0zm1 2c0,0 -1,1 -1,1l0 -1c0,0 0,0 0,0 0,0 1,0 1,0zm-2 -2c0,0 0,1 0,1 0,0 -1,1 -1,1 0,0 0,0 0,0 0,0 0,0 0,0 0,0 0,0 0,0l1 -2c0,0 0,0 0,0zm0 2c0,1 0,1 0,1 0,0 0,0 0,-1 0,0 0,0 0,0zm-1 1c0,0 0,0 0,0 -1,0 -1,0 -1,0l0 0c0,0 1,0 1,0zm-6 -3c0,0 -1,1 -1,1 0,0 0,0 0,1l-1 1 0 0c0,0 1,-1 1,-2 0,0 0,0 0,0 0,0 0,-1 0,-1l1 0zm4 3c-1,0 -1,0 -1,0 0,0 0,0 0,-1 0,0 0,0 1,0l0 1zm-4 -1c0,0 0,0 -1,0 0,1 0,1 0,1 0,0 0,0 0,0 0,0 0,-1 0,-1 0,0 1,-1 1,-1 0,0 0,0 0,-1l0 0c0,0 0,1 0,1 0,0 0,1 0,1zm4 -1c0,0 0,0 0,0 -1,0 -1,0 -1,0 0,0 -1,2 -1,2 0,0 0,0 0,0 0,0 0,0 0,0 0,0 0,0 0,0 0,-1 0,-1 1,-1 0,-1 0,-1 0,-1 0,0 1,0 1,0l0 0zm0 -1c0,1 0,1 0,1 0,0 0,0 0,0 0,0 0,0 0,0l-1 1c0,0 0,1 0,1l0 0c0,0 1,-1 1,-2 0,0 0,0 0,0 0,0 0,0 0,-1zm-5 1c0,1 0,1 0,2 -1,0 -1,0 -1,0 0,0 0,0 0,0l0 0c0,0 0,0 0,0 0,0 0,0 0,-1l1 -1c0,0 0,0 1,0 0,-1 0,-1 0,-1l-1 1zm5 0c0,0 0,0 0,0l-1 1c0,0 0,0 0,0 -1,1 0,1 -1,1l1 -1c0,0 0,0 0,0 0,0 0,0 0,0 0,-1 1,-1 1,-1l0 0zm5 2c0,-1 0,0 0,-1 0,0 0,0 0,0 0,0 0,0 0,0 0,1 1,1 1,1 0,0 -1,0 -1,0 0,0 0,0 0,0zm0 -1c0,0 0,0 0,0 -1,1 0,1 -1,1l0 0c0,0 0,0 1,0 0,0 0,-1 0,-1 0,0 0,0 0,0l0 0zm-3 1c0,0 0,0 -1,0l0 0c0,0 1,0 1,0 0,0 0,0 0,0l0 0zm-7 0c0,0 0,0 0,0l0 0 0 0zm3 0c0,0 0,0 0,0 0,0 0,0 0,0 0,0 0,0 0,0zm5 0c0,0 -1,0 0,0 0,0 0,0 0,0 0,0 0,0 0,0l0 0zm2 0c0,0 0,0 0,0 0,0 0,0 0,0 0,0 1,0 1,0l0 0c-1,0 -1,0 -1,0 0,0 0,0 0,0 0,0 0,0 0,0 0,0 0,0 0,0zm-3 0c0,0 0,1 -1,0l0 0c0,0 0,0 1,0 0,0 0,0 0,0 0,0 0,0 0,0zm3 0c0,0 -1,0 -1,0l0 0 0 0c0,0 1,0 1,0zm-10 1c0,0 -1,-1 0,-1l0 0c0,0 0,0 0,0l0 1zm10 -1c0,0 0,0 0,0 0,1 0,0 1,0l0 1c-1,0 -1,0 -1,-1 0,0 0,0 0,0 0,0 0,0 0,0 0,0 0,0 0,0zm-2 1c0,0 -1,-1 0,-1 0,0 0,0 0,0l0 1c0,0 0,0 0,0 0,0 0,0 0,0l0 0zm-5 -1c0,0 1,0 1,0 -1,1 -1,1 -1,1 0,-1 0,0 0,-1 0,0 0,0 0,0zm7 1c0,0 -1,0 -1,0 0,0 1,0 1,0 0,0 0,0 0,-1l0 1zm-2 -1c0,0 0,0 -1,0 0,0 0,0 0,0 0,1 0,1 -1,1 0,0 0,0 0,0l1 0c0,0 0,-1 0,-1 0,0 0,0 0,0 0,-1 0,0 1,0zm-1 1c0,0 0,0 0,0 0,0 0,0 0,0 0,0 0,0 0,0 0,0 0,0 0,0zm2 0c0,0 0,0 0,0 0,0 0,0 0,0l0 0c1,0 1,0 1,0 0,0 0,0 0,0 0,0 0,0 -1,0 0,0 0,0 0,0zm-10 -1c0,0 0,0 0,0 0,0 0,0 0,0 0,1 0,1 0,1 0,0 0,0 0,0 0,0 0,0 0,0l0 -1zm0 0l0 0c0,0 0,0 0,0l0 0c0,0 1,1 1,1 0,0 0,0 0,0 0,0 -1,0 -1,0 0,-1 0,-1 0,-1zm5 0c0,0 0,0 0,0 0,0 0,0 0,0l0 0c0,0 0,1 0,1 -1,0 -1,0 -1,0 0,0 0,0 0,0 0,0 0,0 0,0 0,0 0,0 0,0 0,0 0,0 0,0 0,0 0,0 0,0 1,0 1,-1 1,-1l0 0zm7 1l-1 0c0,0 0,0 1,0 0,0 -1,0 0,0l0 0zm-4 0c1,0 1,0 1,0 0,0 -1,0 -1,0 0,-1 0,-1 0,-1 0,0 0,1 0,1zm-3 -1c1,0 1,0 1,0l0 0c0,1 -1,1 -1,2 0,-1 0,-1 0,-1 0,0 0,0 0,-1 0,0 0,0 0,0zm4 1c-1,0 -1,0 -1,0 0,0 0,0 0,0 0,0 0,0 0,0 0,0 0,0 1,0zm2 0c0,0 0,0 0,0l0 0c0,0 0,0 0,0 0,0 0,0 0,0l-1 0c1,0 1,0 1,0 0,0 0,0 0,0 0,0 0,0 0,0 0,0 0,0 0,0zm-10 0c0,0 -1,0 -1,0 0,0 0,0 0,-1 0,0 0,0 0,0 0,0 0,0 0,0 0,0 0,0 0,0 0,0 0,1 0,1 0,0 1,0 1,0zm-1 0c0,0 0,0 0,0l0 0 0 0c0,0 0,0 0,0 0,0 0,0 0,0zm12 1c-1,0 -1,-1 -1,-1 0,0 0,0 0,0 0,0 0,0 0,0 0,0 0,0 0,0l1 0 0 1zm-7 -2c0,0 0,0 0,0 0,0 0,0 0,0 0,1 -1,1 -1,1 0,0 1,0 1,0 0,0 0,-1 0,-1l0 0zm6 1c0,0 0,0 0,0 0,0 0,0 0,0 0,0 0,0 0,0zm-10 0c0,0 -1,0 -1,1 0,0 0,0 0,0l0 -1c0,0 0,0 0,0 0,0 0,0 0,0 1,0 0,0 1,0zm8 0l0 0 0 0c0,0 0,0 -1,0 0,1 0,1 0,0 -1,0 -1,0 -1,0 0,0 1,0 1,0 0,0 0,0 0,0 1,0 1,0 1,0zm-5 1c0,0 0,0 0,0 0,0 0,0 0,0 0,0 0,0 0,0 0,0 0,0 0,0 0,-1 0,-1 0,-1 0,0 0,0 0,0 0,1 0,1 0,1zm7 -1c0,0 0,1 0,1 0,0 0,0 0,0 0,-1 0,-1 0,-1zm0 0l0 0c0,0 0,0 0,0 0,0 0,0 0,0 0,1 1,1 1,1 0,0 -1,0 -1,0 0,0 0,0 0,0 0,0 0,0 0,-1zm-2 1c0,0 0,0 0,0 0,0 0,0 0,0 -1,0 -1,0 -1,0 0,0 0,0 0,0 0,0 0,0 0,0 1,0 1,-1 1,-1l0 1zm-8 0c0,0 0,0 0,0 -1,0 0,0 -1,0 0,0 0,0 0,0 0,0 0,0 0,0 0,0 0,0 0,0 0,0 1,0 1,0l0 0zm8 0c0,0 0,0 -1,0 1,0 1,0 1,0l0 0zm-5 -1c1,1 0,1 0,1l0 0c0,0 0,0 0,-1l0 0zm7 1c0,0 0,0 0,0l0 0c0,0 0,0 0,0 0,0 0,0 0,0 0,0 0,0 0,0l0 0c0,0 0,0 0,0zm-11 0c0,0 0,0 0,0 0,0 0,0 0,0l0 0c0,0 0,0 1,0 0,0 0,0 0,0 -1,0 -1,0 -1,0zm11 0c0,0 0,0 0,0l0 0c0,0 0,0 0,0 0,0 0,0 0,0zm-6 -1c0,1 0,1 0,1 -1,1 -1,0 -1,0 0,1 0,1 0,1 0,0 0,-1 0,-1 0,0 0,0 0,0 1,0 1,0 0,-1l1 0zm3 1c0,0 0,0 1,0l0 1c-1,0 -1,0 -1,-1 0,0 0,0 0,0zm-4 1c0,0 0,0 0,-1 0,1 0,1 0,1zm-3 -1c0,0 0,1 -1,1 0,0 0,0 0,0 0,0 0,0 0,-1 0,0 0,0 0,0 0,0 1,0 1,0zm4 -1c0,1 0,1 0,1 0,0 0,0 0,0 0,1 -1,1 -1,1 0,0 0,0 0,0 1,-1 0,-1 1,-1 0,0 0,-1 0,-1 0,0 0,0 0,0zm4 2c-1,0 -1,0 -1,0 0,0 0,0 0,0 0,-1 0,-1 0,-1 0,0 0,0 0,0 0,1 0,1 1,1zm-4 -1c0,0 0,1 0,1l0 0c0,0 0,0 0,0 0,0 0,0 0,0 0,0 0,0 0,0l0 0c0,0 0,0 0,0 0,0 0,-1 0,-1zm3 0l0 0c0,0 0,0 0,0 0,1 0,1 0,1 0,0 0,0 0,0 0,0 0,0 0,-1 0,0 0,0 0,0l0 0zm-3 1c0,0 0,0 0,0 0,0 0,0 0,0 0,0 -1,0 -1,0 1,0 1,0 1,0zm4 0c0,0 0,0 0,1 0,0 0,0 0,0 0,0 0,0 0,0 0,-1 -1,-1 -1,-1 1,0 1,0 1,0zm3 -1l0 0c0,0 0,0 0,0 0,1 -1,1 0,1l0 0c0,1 0,1 0,1 0,0 0,0 0,0l0 -1c0,0 0,0 0,0 0,0 0,0 -1,0l0 -1c0,0 0,0 0,0 0,0 0,0 1,0zm-3 2l-1 -1 0 0c0,0 1,0 1,1l0 0c0,0 0,0 0,0zm2 -1c0,0 0,0 0,0 0,0 1,1 1,1 0,0 0,0 0,0 0,0 0,0 0,0 0,0 0,0 -1,0 0,-1 0,-1 0,-1 0,0 0,0 0,0 0,0 0,0 0,0zm-2 1c-1,0 -1,0 -1,0 0,0 0,-1 0,-1l0 0c0,0 0,0 0,0 0,0 0,0 0,1 1,0 1,0 1,0zm-8 -1c0,0 0,0 0,0 0,0 0,0 0,0 0,1 0,1 0,1 0,0 0,0 0,0 0,0 -1,-1 -1,-1l1 0zm10 0l0 0c0,1 1,1 1,1l-1 0c0,0 0,0 0,0 0,-1 0,-1 0,-1 0,0 0,0 0,0 0,0 0,0 0,0zm-3 0c0,0 0,0 -1,0l0 0 0 0 0 0c0,0 0,0 0,0 0,0 0,0 1,0 0,0 0,0 0,0 0,0 0,0 0,0l0 1c0,0 0,0 0,0 0,0 0,0 0,0 0,0 0,-1 0,-1zm3 1c0,0 0,0 0,0 0,0 0,0 0,0 -1,0 -1,-1 0,-1l0 1c0,0 0,0 0,0zm-6 0c0,0 0,0 0,0 0,0 0,0 0,0 0,0 -1,-1 -1,-1 0,0 0,0 0,0 0,0 0,0 0,0l1 0c0,1 0,0 0,1 0,0 0,0 0,0 0,0 0,0 0,0l0 0zm-6 0c0,0 0,0 0,0 0,0 1,0 1,0 -1,0 -1,0 -1,0zm11 0c0,0 0,0 0,0 0,0 1,0 1,0 0,0 0,0 0,0 0,1 -1,0 -1,0 0,0 0,0 0,0zm-3 -1c0,0 0,0 0,0 1,1 1,1 1,1l0 0 0 0 0 0c-1,-1 -1,-1 -1,-1zm-6 1l0 0 0 0 0 1 -1 -2c0,0 0,0 0,0 0,0 1,0 1,1zm-1 -1c0,0 0,0 0,0 0,0 0,0 0,0 0,0 0,0 0,0 0,0 1,1 1,2l0 0c-1,-1 -1,-1 -1,-1 0,0 0,-1 0,-1zm4 0c0,0 0,0 0,1 0,0 0,0 0,0l1 0c0,0 0,0 0,1 0,0 0,0 0,0 0,0 -1,-2 -1,-2l0 0zm3 1c0,0 0,0 0,0 0,0 1,0 1,1l0 0c0,-1 -1,-1 -1,-1 0,0 0,0 0,0zm-8 -1c1,0 1,1 1,2 0,0 0,0 0,0 0,-1 0,-1 -1,-1 0,0 0,0 0,0 0,0 0,0 0,0l0 -1zm1 0c0,0 0,0 0,0 0,0 0,0 0,0 0,1 0,1 0,1 0,1 0,1 0,1 0,-1 0,0 0,-1 0,0 0,0 0,0l0 -1c0,0 -1,0 0,0zm7 1c0,0 0,0 0,0 0,0 0,0 0,0 0,0 0,0 0,1 0,0 0,0 0,-1 0,0 0,0 0,0zm-4 0c0,0 0,0 0,0l1 1c-1,0 -1,0 -1,0 0,-1 0,-1 0,-1zm1 0c-1,0 0,0 -1,-1 0,0 0,0 0,0 1,0 1,0 1,1 0,0 1,1 1,1l-1 0 0 -1c0,0 0,0 0,0 0,0 0,0 0,0zm-1 0c0,0 0,0 0,0l0 0c1,0 1,0 1,0 0,0 0,1 0,1 0,0 0,0 0,0 0,0 0,0 0,0 0,0 0,0 0,0 0,0 0,0 0,-1 -1,0 -1,0 -1,0zm-2 -1c0,0 0,0 0,0 0,0 0,-1 0,-1 0,-1 0,-1 0,-2 0,0 0,0 0,-1 1,0 1,-1 1,-1 0,0 0,0 0,0l1 1c0,0 0,0 1,0 0,0 0,1 0,1 0,1 0,1 0,1 0,0 0,1 0,1 0,0 -1,0 0,0 0,0 0,0 0,0 0,0 0,0 0,0 0,1 -1,1 -1,2 0,0 0,1 1,1 0,0 0,0 0,0 1,0 1,0 1,0 0,-1 0,-1 0,-1 0,0 0,0 0,0 0,0 0,0 0,0 0,0 0,-1 0,-1 0,0 0,0 0,0 0,-1 0,-2 1,-2 0,0 0,-1 0,-2 0,0 1,0 1,0 0,0 0,1 0,1 0,0 0,0 0,0 0,0 0,0 0,0l0 0c0,0 0,0 0,1 0,0 1,1 0,2 0,0 0,0 0,0 0,1 0,1 0,1 0,0 0,1 0,1 1,0 1,0 1,0 0,0 0,-1 1,-1 0,0 0,0 0,0 0,-1 0,-1 0,-1 0,-1 0,-1 0,-1 0,0 0,0 0,-1 0,0 0,0 0,0 0,-1 0,-1 0,-1 0,0 0,0 0,0 0,0 1,-1 1,-1 0,0 0,0 0,0l0 1c0,0 0,1 0,2l1 0c0,1 -1,2 -1,2 0,0 0,1 1,1 0,0 0,-1 1,-1 0,0 0,0 0,0 0,0 0,0 0,0 1,-1 0,-1 0,-1 0,-1 0,-2 0,-3 0,-1 0,-1 0,-2 0,0 0,0 0,-1 0,0 0,-1 0,-2 0,0 0,-1 0,-1 0,0 0,0 0,0 0,0 0,0 0,0 0,0 0,0 0,0 0,1 0,1 0,1 0,0 0,0 0,0 1,0 1,0 1,0 0,-1 0,-1 0,-1 0,0 -1,0 -1,0l0 -1c0,0 -1,-1 -1,-1 0,0 0,0 0,0 0,-1 -1,-1 -1,-2l-1 0c0,0 0,0 0,-1l0 0c0,0 0,0 0,0 -1,0 -1,0 -1,0 0,0 -1,-1 -1,-1 -1,0 -2,0 -2,0 0,0 0,0 0,0 -1,0 -1,0 -1,1l0 0c0,0 -1,0 -1,0 0,0 0,0 0,0l0 1c0,0 0,0 0,0l0 0c-1,0 -1,0 -1,0l0 0c0,1 0,1 0,1 0,0 0,0 0,0 -1,0 -1,1 -1,1 0,0 0,0 -1,1l0 0c0,0 0,0 0,0 0,0 0,0 0,0 0,1 0,1 0,2 0,0 0,0 0,1 0,0 0,0 0,0 0,1 0,1 0,2 0,0 0,0 0,1 0,0 0,3 0,3 -1,1 -1,1 -1,2 0,0 0,0 0,0 0,0 0,0 0,1 0,0 1,0 1,0 0,0 0,0 1,0 0,0 0,0 1,-1 0,0 0,0 -1,-1 0,0 0,0 0,0zm5 -9c0,0 0,0 0,0l0 0c0,0 0,0 0,0 0,0 0,0 0,0zm-1 0c0,0 0,0 0,0 0,0 1,1 1,1 0,-1 0,-1 0,-1 0,0 0,0 -1,0 0,0 0,0 0,0l0 0z"/>
  </g>
 </g>
</svg>
