<?xml version="1.0" encoding="UTF-8"?>
<!DOCTYPE svg PUBLIC "-//W3C//DTD SVG 1.1//EN" "http://www.w3.org/Graphics/SVG/1.1/DTD/svg11.dtd">
<!-- Creator: CorelDRAW X8 -->
<svg xmlns="http://www.w3.org/2000/svg" xml:space="preserve" width="304px" height="154px" version="1.1" style="shape-rendering:geometricPrecision; text-rendering:geometricPrecision; image-rendering:optimizeQuality; fill-rule:evenodd; clip-rule:evenodd"
viewBox="0 0 117 59"
 xmlns:xlink="http://www.w3.org/1999/xlink">
 <defs>
  <style type="text/css">
   <![CDATA[
    .fil1 {fill:#C7212C}
    .fil0 {fill:white}
   ]]>
  </style>
 </defs>
 <g id="Layer_x0020_1">
  <metadata id="CorelCorpID_0Corel-Layer"/>
  <g id="_2417357441760">
   <path class="fil0" d="M77 49c0,1 -1,1 -2,0 0,0 0,0 -1,-1 0,0 0,-1 0,-1 -1,-3 -3,-7 -4,-9 0,-2 1,-3 2,-2 0,0 1,1 1,1 0,1 1,4 2,5 0,1 1,2 1,3 1,-3 2,-6 3,-9 1,0 1,-1 2,-1 1,1 1,2 1,3 -1,2 -2,4 -3,6 -1,2 -1,4 -2,5z"/>
   <path class="fil0" d="M64 50c-1,0 -2,0 -4,-1 -2,-1 -3,-5 -1,-6 1,0 2,0 1,2 -1,3 6,5 8,1 0,-2 0,-2 -1,-3 -2,-1 -4,-1 -6,-2 -1,-1 -2,-1 -1,-2 0,-1 0,-3 2,-3 2,-1 6,-1 6,1 1,1 -1,2 -1,1 -1,-1 -1,-1 -2,-1 -1,0 -3,0 -3,2 0,0 0,1 1,1 2,1 4,1 5,1 2,1 3,3 2,5 -1,3 -3,4 -6,4z"/>
   <path class="fil0" d="M112 34c0,0 -1,0 -1,0 -1,0 -2,0 -3,0 0,0 -1,0 -1,0 -1,0 -1,-3 1,-3 3,1 4,0 8,0 0,0 1,1 1,1 0,3 -4,2 -5,2z"/>
   <path class="fil0" d="M3 45c0,-1 0,-2 0,-3 1,-2 3,-4 4,-3 0,1 1,1 2,1 1,-1 0,-3 -2,-4 -1,0 -3,0 -4,2 -1,1 0,-1 0,-1 -1,-2 -3,-1 -3,0 1,4 0,8 0,12 0,0 1,1 1,1 3,0 2,-4 2,-5z"/>
   <path class="fil0" d="M16 34c0,0 0,0 -1,0 -1,0 -2,0 -3,0 0,0 0,0 -1,0 -1,0 -1,-3 1,-3 3,1 4,0 8,0 0,0 1,1 1,1 0,3 -4,2 -5,2z"/>
   <path class="fil1" d="M62 29c1,1 1,1 2,0 1,0 1,1 2,0 0,0 2,0 2,0 1,-1 0,-12 0,-13 1,-3 0,-2 0,-3 1,-1 0,-2 0,-3 0,-2 0,-3 0,-4 0,-1 0,-2 0,-3 0,0 0,-1 0,-1 0,0 0,-1 -1,-1 0,0 0,0 0,0l0 -1c0,0 0,0 0,0l-3 0c-1,0 0,0 0,0l-1 0 -3 0c0,1 0,2 0,3 1,2 0,4 1,6 0,1 0,7 0,8 0,2 -1,5 0,6 -1,0 0,0 0,1l0 5c1,1 0,0 1,0z"/>
   <g>
    <path class="fil1" d="M54 5c0,0 0,0 0,0 0,0 0,0 0,0 0,0 0,0 0,0zm-2 -2l0 1 0 -1zm0 1l0 0c-1,0 -1,0 -1,0 0,0 0,0 1,0l0 0zm-1 0c0,0 0,0 0,1 0,-1 0,-1 0,-1zm5 -3c0,0 0,0 -1,0 0,-1 0,-1 0,-1l-3 0c0,0 -2,0 -2,0 -1,0 0,0 -1,0 0,1 0,2 0,3 0,2 0,3 0,4 0,3 0,5 0,8 0,1 0,2 0,3 0,2 -1,11 0,11 1,1 4,1 4,0 3,0 4,1 3,-2 0,-1 0,0 0,-1l0 -4c0,-1 1,-1 1,-2 0,-1 0,-2 -1,-3 0,-1 0,-1 0,-3 1,-1 0,-2 0,-3l0 -7c0,0 0,-1 0,-2 0,0 0,-1 0,-1zm-4 3c0,-1 0,-1 0,-1l0 1zm2 23c-1,0 0,1 0,0z"/>
   </g>
   <path class="fil0" d="M21 50c-1,0 -2,-1 -2,-2 1,0 1,0 1,0 -1,1 -2,1 -3,1 -3,1 -5,1 -7,-1 -1,-1 -1,-2 -1,-3 0,-1 0,-1 1,-2 0,-1 1,-2 3,-2 1,-1 3,-1 5,-1 1,0 1,1 1,0 0,0 0,-1 -1,-1 0,0 0,-1 0,-1 -2,-1 -4,-1 -5,1 -1,1 -2,0 -2,-1 0,-2 6,-4 9,0 1,1 2,2 2,4 0,1 0,7 -1,8zm-9 -3c2,1 6,1 7,-2 1,-2 -1,-3 -3,-3 -1,0 -2,1 -3,1 -2,1 -2,3 -1,4z"/>
   <path class="fil0" d="M98 45c0,-1 0,-2 0,-3 1,-2 3,-4 4,-3 1,1 1,1 2,1 2,-1 0,-3 -1,-4 -2,0 -3,0 -5,2 0,1 0,-1 0,-1 0,-2 -3,-1 -3,0 1,4 1,8 1,12 0,0 0,1 1,1 2,0 1,-4 1,-5z"/>
   <path class="fil0" d="M26 39c0,-1 -1,-2 0,-3 3,-4 9,-2 10,0 0,1 -1,1 -2,0 -1,-1 -3,-1 -5,0 0,0 -1,1 -1,1 0,1 1,1 1,1 0,0 1,0 1,0 7,0 7,8 4,10 3,1 5,5 3,8 -2,3 -8,4 -11,3 -4,-2 -5,-6 -2,-8 1,-1 2,0 1,2 -1,4 8,6 10,1 1,-3 -3,-4 -5,-4 0,0 0,0 0,0l0 0 -2 0c0,0 0,0 0,0 -1,-1 -3,-1 -3,-2 -1,-2 -2,-3 -2,-4 0,-2 1,-4 2,-5 0,0 1,0 1,0zm3 9c0,0 0,0 1,0 1,0 2,-1 3,-2 1,-1 1,-4 -1,-6 -2,-1 -4,0 -6,1 0,1 -1,3 0,4 0,2 1,3 3,3z"/>
   <path class="fil0" d="M48 50c0,0 -1,-1 -1,-2 0,0 0,0 0,0 0,1 -1,1 -3,1 -2,1 -5,1 -6,-1 -1,-1 -1,-2 -1,-3 0,-1 0,-1 1,-2 0,-1 1,-2 3,-2 1,-1 3,-1 5,-1 0,0 1,1 1,0 0,0 -1,-1 -1,-1 0,0 0,-1 -1,-1 -1,-1 -4,-1 -5,1 0,1 -2,0 -1,-1 0,-2 6,-4 9,0 1,1 1,2 2,4 0,1 0,7 -2,8zm-8 -3c2,1 6,1 7,-2 0,-2 -1,-3 -4,-3 0,0 -2,1 -2,1 -2,1 -2,3 -1,4z"/>
   <path class="fil0" d="M93 50c-1,0 -2,-1 -1,-2 0,0 0,0 0,0 -1,1 -2,1 -3,1 -2,1 -5,1 -7,-1 0,-1 -1,-2 0,-3 0,-1 0,-1 0,-2 1,-1 2,-2 3,-2 1,-1 4,-1 6,-1 0,0 0,1 0,0 1,0 0,-1 0,-1 -1,0 -1,-1 -1,-1 -2,-1 -4,-1 -5,1 -1,1 -2,0 -2,-1 0,-2 6,-4 9,0 1,1 2,2 2,4 0,1 0,7 -1,8zm-8 -3c1,1 5,1 6,-2 1,-2 -1,-3 -3,-3 -1,0 -2,1 -3,1 -1,1 -2,3 0,4z"/>
   <path class="fil0" d="M116 50c-1,0 -2,-1 -1,-2 0,0 0,0 0,0 -1,1 -2,1 -3,1 -2,1 -5,1 -7,-1 0,-1 -1,-2 0,-3 0,-1 0,-1 0,-2 1,-1 2,-2 3,-2 1,-1 4,-1 6,-1 0,0 0,1 0,0 1,0 0,-1 0,-1 -1,0 -1,-1 -1,-1 -2,-1 -4,-1 -5,1 -1,1 -2,0 -2,-1 0,-2 6,-4 9,0 1,1 2,2 2,4 0,1 0,7 -1,8zm-8 -3c1,1 5,1 6,-2 1,-2 -1,-3 -3,-3 -1,0 -2,1 -3,1 -1,1 -2,3 0,4z"/>
   <path class="fil0" d="M77 49c0,1 -1,1 -2,0 0,0 0,0 -1,-1 0,0 0,-1 0,-1 -1,-3 -3,-7 -4,-9 0,-2 1,-3 2,-2 0,0 1,1 1,1 0,1 1,4 2,5 0,1 1,2 1,3 1,-3 2,-6 3,-9 1,0 1,-1 2,-1 1,1 1,2 1,3 -1,2 -2,4 -3,6 -1,2 -1,4 -2,5z"/>
   <path class="fil0" d="M64 50c-1,0 -2,0 -4,-1 -2,-1 -3,-5 -1,-6 1,0 2,0 1,2 -1,3 6,5 8,1 0,-2 0,-2 -1,-3 -2,-1 -4,-1 -6,-2 -1,-1 -2,-1 -1,-2 0,-1 0,-3 2,-3 2,-1 6,-1 6,1 1,1 -1,2 -1,1 -1,-1 -1,-1 -2,-1 -1,0 -3,0 -3,2 0,0 0,1 1,1 2,1 4,1 5,1 2,1 3,3 2,5 -1,3 -3,4 -6,4z"/>
   <path class="fil0" d="M112 34c0,0 -1,0 -1,0 -1,0 -2,0 -3,0 0,0 -1,0 -1,0 -1,0 -1,-3 1,-3 3,1 4,0 8,0 0,0 1,1 1,1 0,3 -4,2 -5,2z"/>
   <path class="fil0" d="M3 45c0,-1 0,-2 0,-3 1,-2 3,-4 4,-3 0,1 1,1 2,1 1,-1 0,-3 -2,-4 -1,0 -3,0 -4,2 -1,1 0,-1 0,-1 -1,-2 -3,-1 -3,0 1,4 0,8 0,12 0,0 1,1 1,1 3,0 2,-4 2,-5z"/>
   <path class="fil0" d="M16 34c0,0 0,0 -1,0 -1,0 -2,0 -3,0 0,0 0,0 -1,0 -1,0 -1,-3 1,-3 3,1 4,0 8,0 0,0 1,1 1,1 0,3 -4,2 -5,2z"/>
   <path class="fil1" d="M62 29c1,1 1,1 2,0 1,0 1,1 2,0 0,0 2,0 2,0 1,-1 0,-12 0,-13 1,-3 0,-2 0,-3 1,-1 0,-2 0,-3 0,-2 0,-3 0,-4 0,-1 0,-2 0,-3 0,0 0,-1 0,-1 0,0 0,-1 -1,-1 0,0 0,0 0,0l0 -1c0,0 0,0 0,0l-3 0c-1,0 0,0 0,0l-1 0 -3 0c0,1 0,2 0,3 1,2 0,4 1,6 0,1 0,7 0,8 0,2 -1,5 0,6 -1,0 0,0 0,1l0 5c1,1 0,0 1,0z"/>
   <g>
    <path class="fil1" d="M54 5c0,0 0,0 0,0 0,0 0,0 0,0 0,0 0,0 0,0zm-2 -2l0 1 0 -1zm0 1l0 0c-1,0 -1,0 -1,0 0,0 0,0 1,0l0 0zm-1 0c0,0 0,0 0,1 0,-1 0,-1 0,-1zm5 -3c0,0 0,0 -1,0 0,-1 0,-1 0,-1l-3 0c0,0 -2,0 -2,0 -1,0 0,0 -1,0 0,1 0,2 0,3 0,2 0,3 0,4 0,3 0,5 0,8 0,1 0,2 0,3 0,2 -1,11 0,11 1,1 4,1 4,0 3,0 4,1 3,-2 0,-1 0,0 0,-1l0 -4c0,-1 1,-1 1,-2 0,-1 0,-2 -1,-3 0,-1 0,-1 0,-3 1,-1 0,-2 0,-3l0 -7c0,0 0,-1 0,-2 0,0 0,-1 0,-1zm-4 3c0,-1 0,-1 0,-1l0 1zm2 23c-1,0 0,1 0,0z"/>
   </g>
   <path class="fil0" d="M21 50c-1,0 -2,-1 -2,-2 1,0 1,0 1,0 -1,1 -2,1 -3,1 -3,1 -5,1 -7,-1 -1,-1 -1,-2 -1,-3 0,-1 0,-1 1,-2 0,-1 1,-2 3,-2 1,-1 3,-1 5,-1 1,0 1,1 1,0 0,0 0,-1 -1,-1 0,0 0,-1 0,-1 -2,-1 -4,-1 -5,1 -1,1 -2,0 -2,-1 0,-2 6,-4 9,0 1,1 2,2 2,4 0,1 0,7 -1,8zm-9 -3c2,1 6,1 7,-2 1,-2 -1,-3 -3,-3 -1,0 -2,1 -3,1 -2,1 -2,3 -1,4z"/>
   <path class="fil0" d="M98 45c0,-1 0,-2 0,-3 1,-2 3,-4 4,-3 1,1 1,1 2,1 2,-1 0,-3 -1,-4 -2,0 -3,0 -5,2 0,1 0,-1 0,-1 0,-2 -3,-1 -3,0 1,4 1,8 1,12 0,0 0,1 1,1 2,0 1,-4 1,-5z"/>
   <path class="fil0" d="M26 39c0,-1 -1,-2 0,-3 3,-4 9,-2 10,0 0,1 -1,1 -2,0 -1,-1 -3,-1 -5,0 0,0 -1,1 -1,1 0,1 1,1 1,1 0,0 1,0 1,0 7,0 7,8 4,10 3,1 5,5 3,8 -2,3 -8,4 -11,3 -4,-2 -5,-6 -2,-8 1,-1 2,0 1,2 -1,4 8,6 10,1 1,-3 -3,-4 -5,-4 0,0 0,0 0,0l0 0 -2 0c0,0 0,0 0,0 -1,-1 -3,-1 -3,-2 -1,-2 -2,-3 -2,-4 0,-2 1,-4 2,-5 0,0 1,0 1,0zm3 9c0,0 0,0 1,0 1,0 2,-1 3,-2 1,-1 1,-4 -1,-6 -2,-1 -4,0 -6,1 0,1 -1,3 0,4 0,2 1,3 3,3z"/>
   <path class="fil0" d="M48 50c0,0 -1,-1 -1,-2 0,0 0,0 0,0 0,1 -1,1 -3,1 -2,1 -5,1 -6,-1 -1,-1 -1,-2 -1,-3 0,-1 0,-1 1,-2 0,-1 1,-2 3,-2 1,-1 3,-1 5,-1 0,0 1,1 1,0 0,0 -1,-1 -1,-1 0,0 0,-1 -1,-1 -1,-1 -4,-1 -5,1 0,1 -2,0 -1,-1 0,-2 6,-4 9,0 1,1 1,2 2,4 0,1 0,7 -2,8zm-8 -3c2,1 6,1 7,-2 0,-2 -1,-3 -4,-3 0,0 -2,1 -2,1 -2,1 -2,3 -1,4z"/>
   <path class="fil0" d="M93 50c-1,0 -2,-1 -1,-2 0,0 0,0 0,0 -1,1 -2,1 -3,1 -2,1 -5,1 -7,-1 0,-1 -1,-2 0,-3 0,-1 0,-1 0,-2 1,-1 2,-2 3,-2 1,-1 4,-1 6,-1 0,0 0,1 0,0 1,0 0,-1 0,-1 -1,0 -1,-1 -1,-1 -2,-1 -4,-1 -5,1 -1,1 -2,0 -2,-1 0,-2 6,-4 9,0 1,1 2,2 2,4 0,1 0,7 -1,8zm-8 -3c1,1 5,1 6,-2 1,-2 -1,-3 -3,-3 -1,0 -2,1 -3,1 -1,1 -2,3 0,4z"/>
   <path class="fil0" d="M116 50c-1,0 -2,-1 -1,-2 0,0 0,0 0,0 -1,1 -2,1 -3,1 -2,1 -5,1 -7,-1 0,-1 -1,-2 0,-3 0,-1 0,-1 0,-2 1,-1 2,-2 3,-2 1,-1 4,-1 6,-1 0,0 0,1 0,0 1,0 0,-1 0,-1 -1,0 -1,-1 -1,-1 -2,-1 -4,-1 -5,1 -1,1 -2,0 -2,-1 0,-2 6,-4 9,0 1,1 2,2 2,4 0,1 0,7 -1,8zm-8 -3c1,1 5,1 6,-2 1,-2 -1,-3 -3,-3 -1,0 -2,1 -3,1 -1,1 -2,3 0,4z"/>
  </g>
 </g>
</svg>
