<?xml version="1.0" encoding="UTF-8"?>
<!DOCTYPE svg PUBLIC "-//W3C//DTD SVG 1.1//EN" "http://www.w3.org/Graphics/SVG/1.1/DTD/svg11.dtd">
<!-- Creator: CorelDRAW X8 -->
<svg xmlns="http://www.w3.org/2000/svg" xml:space="preserve" width="134px" height="86px" version="1.1" style="shape-rendering:geometricPrecision; text-rendering:geometricPrecision; image-rendering:optimizeQuality; fill-rule:evenodd; clip-rule:evenodd"
viewBox="0 0 20 13"
 xmlns:xlink="http://www.w3.org/1999/xlink">
 <defs>
  <style type="text/css">
   <![CDATA[
    .fil0 {fill:#09090A}
    .fil7 {fill:#0C0A0C}
    .fil3 {fill:#0D0C12}
    .fil4 {fill:#0E1114}
    .fil6 {fill:#15131A}
    .fil5 {fill:#1D1B23}
    .fil12 {fill:#696678}
    .fil8 {fill:#767688}
    .fil10 {fill:#8F90B1}
    .fil11 {fill:#BBC3D7}
    .fil2 {fill:#DF5924}
    .fil9 {fill:#EBECF3}
    .fil1 {fill:#F1BD6A}
   ]]>
  </style>
 </defs>
 <g id="Layer_x0020_1">
  <metadata id="CorelCorpID_0Corel-Layer"/>
  <g id="_2450303730624">
   <path class="fil0" d="M5 11l1 0 0 0c0,0 0,0 0,0 0,0 0,0 -1,0 0,0 0,0 0,0zm0 -3c0,0 0,0 0,0 0,0 0,0 0,0 0,0 0,1 0,1 0,1 -1,1 0,1 0,1 0,1 0,1 0,0 0,1 0,1 0,0 0,0 0,0l0 0c0,0 0,0 0,0 0,0 0,0 0,0 0,1 0,0 0,0 1,0 1,0 1,0 0,0 0,0 0,0 0,0 0,-1 0,-1 0,0 0,0 1,0 0,-1 0,-1 1,-1 0,0 0,0 0,0 0,0 0,0 0,0 0,1 0,1 0,1 1,0 1,0 1,0 1,0 1,0 1,0 1,0 2,0 2,0 0,0 1,0 1,0 0,0 0,0 0,0 0,0 1,0 2,0 0,0 0,0 0,0 0,0 1,0 1,0 0,0 0,0 0,0l1 0c0,1 0,1 0,1 0,0 1,0 1,0 0,1 0,1 0,1 1,0 1,-1 1,-1 0,0 0,0 0,-1 1,0 1,0 1,0 0,0 0,0 0,-1 0,0 0,0 0,-1 0,0 0,0 0,0 0,0 0,0 0,0 -1,-1 -1,-1 -1,-1 0,0 0,-1 0,-1 0,0 0,0 -1,0 0,0 0,0 0,0 -1,-1 0,-1 -1,-1 0,0 0,0 0,-1 0,0 0,0 -1,0 0,0 0,0 0,0 -1,-1 -1,-1 -1,-1 0,0 0,0 0,0 0,0 0,0 1,0 0,0 0,0 0,0 0,-1 1,0 1,-1 0,0 -1,0 -1,0 0,0 0,-1 0,-1 0,0 0,0 0,0l0 0c0,-1 0,-1 0,-1 0,0 0,0 -1,0 0,0 0,0 0,0 0,-1 0,-1 0,-1 -1,0 -1,1 -1,1 0,1 -1,1 -1,2 0,0 0,0 -1,0 0,1 -1,1 -1,1 0,0 0,0 0,0 0,0 0,0 0,0 0,-1 0,-1 0,-1 1,0 1,-1 1,-1 0,0 -1,0 -1,0 0,0 0,0 0,0 0,-1 0,-1 0,-1 -1,0 0,0 -1,0l0 0c-1,-1 -1,0 -1,0 0,-1 0,-1 -1,-1 -1,0 0,0 -1,0 0,0 0,0 -1,0 0,0 0,0 0,0 0,0 -1,0 -1,0 0,0 0,0 -1,0 0,0 0,0 0,0 -1,0 -1,0 -1,1 -1,-1 -1,-1 -1,-1 -1,0 -1,1 -1,1 0,0 0,0 0,0 -1,0 -1,0 -1,0 0,1 0,1 0,1 1,1 1,1 1,1 1,1 1,1 1,1 0,0 0,1 0,1 1,0 1,0 1,0 0,1 0,1 0,1 0,1 0,1 0,1 1,1 1,1 1,1 0,0 1,0 1,0zm12 3c0,0 0,0 0,0 0,0 0,0 0,0 0,0 1,0 1,0 0,0 0,0 0,1 0,0 0,0 0,0 0,0 -1,-1 -1,-1zm-8 0l1 0c0,0 0,0 0,0 0,0 0,0 0,0l0 0c0,0 0,0 -1,0 0,0 0,0 0,0zm9 0c0,0 0,0 0,0 0,0 1,0 1,0 0,0 0,0 0,0 -1,0 -1,0 -1,0 0,0 0,0 0,0l0 0zm-3 -1c0,0 0,0 0,0 0,0 0,0 1,0 0,0 0,0 0,1 0,0 -1,0 -1,-1zm-2 0c0,0 0,0 0,1 0,0 -1,0 -1,0l0 -1c0,0 1,0 1,0zm-3 0c1,0 1,0 1,1l0 0c0,0 0,0 -1,0l0 -1c0,0 0,0 0,0zm1 0c0,0 0,0 0,0l0 0c0,0 0,0 0,0 0,0 0,0 0,0l0 1c0,0 0,0 0,0 0,-1 0,-1 0,-1 0,0 0,0 0,0zm-4 0l0 0c0,0 0,0 0,0 0,1 -1,1 -1,1 0,0 0,0 0,0 0,0 0,0 0,0 0,0 -1,0 -1,-2 0,0 0,0 0,0 0,0 1,-1 1,-1 0,0 1,1 1,1 0,0 0,1 0,1zm7 0l-1 0c0,0 0,0 0,0 0,0 0,-1 0,-1 1,0 1,1 1,1 0,0 0,0 0,0zm-2 0c0,0 0,0 0,1 0,0 0,0 0,0 0,0 0,-1 0,-1 0,0 0,0 0,0zm5 0c0,0 0,0 1,0 0,0 0,0 0,0 1,0 1,0 1,0 0,0 0,1 0,1 0,0 0,0 0,0 -1,-1 -1,-1 -1,-1 0,0 0,0 -1,0 0,0 0,0 0,0l0 0zm-7 0c0,0 0,0 1,0 -1,0 -1,0 -1,0 0,0 0,0 0,0zm6 -1c0,0 0,0 0,1 1,0 1,1 1,1 -1,0 0,0 -1,0 0,-1 0,-1 0,-1l0 -1zm-2 1l0 0c1,0 1,0 1,-1 0,0 0,0 0,0 0,0 0,0 0,0 0,0 0,1 0,1 0,0 0,0 0,0 0,0 0,1 -1,0zm-6 -1c0,0 0,0 1,0 0,1 0,1 0,1 0,0 0,0 -1,0 0,0 0,0 0,-1zm6 0c0,0 0,0 0,0 0,0 0,0 0,0 1,0 1,0 0,0 0,0 0,0 0,0zm-5 0c0,0 1,0 1,0 0,1 0,1 0,1 0,0 0,0 -1,1l0 0c0,0 0,0 0,-1 0,0 0,0 0,0 0,-1 0,-1 0,-1zm3 0c0,0 0,0 0,0 0,0 0,0 0,0 0,0 0,0 0,0 0,0 0,0 0,0 0,0 0,0 0,0 0,0 0,0 0,0 0,0 0,0 0,0zm5 0c0,0 0,0 0,0 0,0 0,0 0,0 1,0 1,0 2,0 0,0 0,0 0,0 0,0 0,1 0,1l0 0 -1 -1c0,0 0,0 -1,0l0 0c0,0 0,0 0,0zm-6 0c0,0 0,0 0,0l0 0c0,0 0,0 0,0 0,0 0,0 0,0l1 0c0,0 0,0 0,-1 0,1 0,1 0,1 -1,0 -1,1 -1,1 0,0 0,0 0,-1zm0 0c0,0 0,0 0,0l0 0 0 0c0,0 0,0 0,0zm-2 -1c1,0 1,0 1,1l-1 0 0 0c0,-1 0,-1 0,-1zm6 0l1 0c0,0 0,0 0,0 -1,0 -1,0 -1,0zm-2 0l0 0c0,0 0,1 0,1l0 -1zm4 0c0,0 0,0 0,0 0,0 1,0 1,0 0,0 1,0 1,1 0,0 0,0 -1,0l-1 -1zm-11 0c0,0 1,0 1,0 0,1 0,1 0,1 0,0 0,0 0,0 0,-1 0,0 -1,-1 0,0 0,0 0,0zm2 0c0,0 0,0 0,0 0,0 0,0 0,0 0,0 0,0 0,0 0,0 0,0 0,0 0,0 0,0 0,0zm5 1c0,0 0,0 0,1 -1,0 -1,0 -1,0 0,0 0,0 0,0 0,0 0,0 0,0 0,0 1,0 1,0 0,-1 -1,-1 0,-1 0,0 0,0 -1,-1 0,0 0,0 0,0 0,0 0,0 0,0 0,0 0,0 0,0 0,0 1,0 1,1 0,0 0,0 0,0zm1 -1c0,0 0,0 0,0 0,0 0,0 0,1 0,0 0,0 0,0 0,0 -1,0 -1,0 0,0 0,0 0,0l1 0c0,0 0,0 0,0 0,-1 0,-1 0,-1zm-4 0l0 0c0,0 0,0 0,0 0,0 0,0 0,0 0,0 0,0 0,0 0,1 1,1 0,1 0,0 0,0 0,0 0,0 0,-1 0,-1l0 0zm6 0c0,0 0,0 0,0 0,1 0,1 0,1 0,0 0,0 0,0 0,0 0,0 0,0 0,0 0,0 0,0 0,0 0,0 0,-1 0,0 0,0 0,0l0 0c0,0 0,0 0,-1 0,0 0,1 0,1 0,0 0,0 0,0zm-2 -1c1,0 1,0 1,1l-1 0c0,0 0,0 0,0l0 -1zm-4 0l1 0c0,0 0,0 0,1 -1,0 -1,0 -1,0 0,-1 0,-1 0,-1zm1 1c0,0 0,0 0,0l0 0c0,0 0,0 0,0 0,-1 0,-1 0,-1 0,0 0,0 0,0 0,1 0,0 0,1 0,0 0,0 0,0 0,0 0,0 0,0 0,0 0,0 0,0zm-2 1c-1,0 -1,0 -1,0l0 0c0,0 0,0 0,0 0,0 0,0 1,0 0,0 0,-1 0,-1 0,0 0,0 0,0 0,0 0,0 0,-1 0,0 0,0 0,0 0,0 0,0 0,0 0,0 0,0 0,1 0,0 0,1 0,1 0,0 0,0 0,0zm8 -2c0,0 0,0 0,0 1,0 0,0 1,0 0,0 0,0 0,0 0,0 0,0 0,0 0,0 0,0 -1,0 0,0 0,0 0,0zm-13 0c0,0 0,0 0,0 0,0 0,0 0,0 0,0 0,0 0,0 1,0 0,0 1,0l0 0c0,0 -1,0 -1,0 0,0 0,0 0,0zm2 0c0,0 0,0 1,0l-1 0zm7 0c0,0 0,0 0,0 0,0 0,0 0,0 0,0 0,0 0,0zm-4 0l1 0c0,0 0,0 -1,0 0,0 0,0 0,0 0,0 0,0 0,0 0,0 0,0 0,0zm-1 2c-1,0 -1,-1 -1,-1 0,0 -1,0 -1,0 0,0 0,0 0,0 1,-1 1,-1 1,-1l1 -1c0,0 0,0 0,0 1,1 0,1 0,1 0,1 0,1 0,1 -1,0 0,1 0,1zm4 -2c-1,0 -1,0 0,-1 0,0 0,1 0,1 0,0 0,0 0,0zm3 1c0,0 0,0 0,0 0,0 0,0 0,0l0 0c0,0 0,0 0,0 0,0 0,0 0,0l0 0c0,0 0,-1 0,-1 0,0 0,0 0,0 -1,0 -1,0 -1,0 0,-1 1,-1 1,-1 0,1 0,1 0,1 0,1 0,1 0,1zm1 -1c0,0 0,0 -1,0 0,0 0,0 0,0 0,0 0,-1 1,0zm-12 0c0,-1 0,-1 0,-1 0,0 0,0 0,0 0,1 0,0 0,0 0,1 0,1 0,1zm6 0c0,0 0,0 0,0 0,-1 0,-1 0,-1 0,0 0,1 0,1zm-4 0c-1,0 -1,0 -1,0 0,-1 1,-1 2,-1 0,0 0,0 0,0 0,1 0,0 0,1 0,0 0,-1 -1,-1 0,1 0,1 0,1zm7 -1c1,0 1,0 1,0 0,1 0,2 -1,2 0,0 0,0 0,0 0,0 0,0 0,0l0 0c0,0 0,-1 1,-1l0 0c0,0 0,0 0,0 0,-1 0,-1 -1,-1l0 0zm-4 1c-1,-1 -1,-1 -1,-1 0,0 0,0 0,0 0,0 1,0 1,1zm8 -1c0,0 0,0 0,1l0 0 0 -1 0 0c0,0 0,0 0,0zm-2 0c0,0 0,0 0,0 1,0 1,0 1,0 0,0 0,1 0,1 0,0 0,0 0,-1 0,0 0,0 0,0 -1,0 -1,0 -1,0 0,0 0,0 0,0 0,0 0,0 0,0l0 0zm-8 0c0,0 0,0 0,0 0,0 0,0 0,0 0,0 0,0 0,0 0,0 0,0 0,0zm5 1c0,-1 0,-1 0,-1 0,0 0,0 0,0l0 0c0,0 0,0 0,0 0,0 0,0 1,1 0,0 -1,1 -1,1l0 -1c0,0 0,0 0,0zm-2 -1c0,0 1,0 1,0 0,0 0,0 0,0 -1,0 -1,0 -1,0zm-5 0c0,0 0,-1 0,-1 1,0 1,1 1,1l0 0 -1 0zm-2 0c0,-1 0,0 0,0 1,-1 1,-1 1,0 0,0 0,0 0,0 0,0 -1,0 -1,0zm5 0c-1,0 0,0 -1,0 0,0 0,0 -1,0 0,0 0,-1 1,-1 0,0 1,0 1,1 0,0 0,0 0,0zm3 0c0,0 0,0 0,0 0,0 0,-1 0,-1l0 0c0,1 1,1 0,1 0,1 0,1 -1,1 1,0 1,0 1,-1zm2 -1c0,0 0,1 0,1 0,0 0,0 0,0 0,0 0,0 0,0 0,0 0,0 0,0 0,0 0,0 0,0 0,-1 0,-1 0,-1zm2 1c0,-1 0,-1 0,-1 0,0 0,0 0,0 1,0 1,0 1,0 0,0 0,0 0,0l0 1c0,0 0,-1 -1,-1 0,0 0,1 0,1zm-3 -1c1,1 0,1 0,0 0,0 0,0 0,0 0,0 0,0 0,0zm-3 0c1,0 0,0 1,0 0,0 0,0 0,0 0,0 0,0 0,0 0,0 1,0 1,0 0,0 -1,1 -2,1 0,0 0,0 0,0 0,0 0,0 0,0 0,0 0,0 0,0 0,0 0,-1 0,-1zm5 0c0,0 0,0 0,0 0,0 0,0 0,0 0,0 0,0 0,0l0 0zm-6 0c1,0 1,0 1,0 0,0 0,0 0,0 0,0 -1,0 -1,0zm-5 0c0,0 0,0 0,0 0,0 1,0 1,0 0,0 0,0 0,0 0,0 0,0 0,0 -1,0 -1,0 -1,0zm11 1c0,0 0,0 0,-1 0,0 0,0 1,0l0 0c0,0 0,0 0,0 0,0 -1,1 -1,1 0,0 0,0 0,0zm-3 -1c0,0 0,0 0,0 0,0 0,0 0,0zm-6 0c0,0 0,-1 0,0 0,0 0,0 0,0 0,0 0,0 0,0 0,0 0,0 0,1 0,0 0,0 0,0 0,0 0,1 0,1 0,0 0,0 0,0 0,0 -1,-1 -1,-2 1,0 1,0 1,0zm2 0c0,0 0,0 0,-1 0,0 0,0 0,0 0,0 0,0 0,0 0,0 0,0 0,1l0 0zm2 0c0,0 0,-1 -1,-1 0,1 0,1 0,1 -1,0 0,-1 1,-1 0,0 0,0 0,1 0,0 0,0 0,0zm3 0c0,0 0,0 0,0l0 0c0,0 0,0 0,0 -1,0 -1,0 -1,0 0,0 0,0 0,0 0,-1 1,-1 1,-1 0,0 0,0 0,0 1,0 1,0 1,0 0,-1 0,0 0,0 0,0 0,0 0,1 0,0 0,0 0,0 -1,0 -1,0 -1,0zm-2 -1c0,0 0,0 0,0 0,1 0,0 0,0zm-6 1c0,-1 0,-1 0,-1 1,0 1,0 1,0l0 0c0,0 0,1 -1,1zm-1 -1c0,0 0,0 0,0 0,0 0,0 0,0 -1,0 0,0 0,0 0,0 0,0 0,0zm6 0c0,-1 1,-1 1,-1 0,0 1,1 1,1l0 0c0,0 0,0 0,0 -1,0 -1,0 -1,0 0,0 -1,0 -1,0zm-3 1c0,0 0,0 0,0 0,0 0,-1 0,-1 0,0 0,0 0,0 1,0 1,-1 1,0 0,0 0,0 -1,0 0,0 0,0 0,1 0,0 0,0 0,0 0,0 0,0 0,0 0,0 0,0 0,0zm-2 -1c0,0 -1,0 0,0 0,0 0,0 0,-1 0,0 0,0 0,0 1,0 1,0 1,0 0,0 0,0 0,0 0,0 1,0 1,0 0,1 0,1 0,1 0,0 0,0 0,0 -1,0 0,0 -1,0 0,0 1,0 0,0 0,0 0,0 0,0 0,0 -1,0 -1,0 0,0 0,0 0,0zm4 0c0,0 0,-1 0,-1 1,0 1,1 1,1l-1 0zm5 -1c0,0 1,1 1,1 0,0 0,0 0,0 0,0 -1,-1 -1,-1zm-11 0c1,0 1,0 1,0 0,0 0,0 0,0 0,0 0,0 0,0 0,0 0,0 0,0 0,0 0,1 -1,1 0,-1 0,-1 0,-1zm5 0c0,0 0,0 0,0 0,0 0,0 0,0 -1,0 -1,0 -1,0l0 0c0,0 0,0 1,0zm3 0c0,0 0,0 0,0 1,0 1,0 1,0 0,-1 0,-1 0,-1 0,1 0,1 0,1 0,0 0,0 0,0 -1,0 -1,0 -1,0zm-6 0c0,0 0,0 0,0l0 0c0,0 0,0 0,0 0,0 0,0 0,0zm4 0c0,0 0,0 0,-1 0,1 0,1 1,1 0,0 0,0 0,0 0,0 -1,0 -1,0 0,0 0,1 0,1 -1,0 -1,0 -1,0 0,-1 0,-1 1,-1zm2 0c0,0 -1,0 -1,0 1,0 1,0 1,0zm-7 0c0,0 0,0 0,0 0,0 0,0 0,0 0,0 0,0 0,0zm4 -1c0,0 0,0 0,0 0,0 0,0 0,1 0,0 0,0 0,0 0,0 0,0 0,0 0,0 0,0 0,0 -1,-1 -1,0 -2,0 0,0 1,0 1,-1 1,0 0,0 1,0zm-2 1c0,0 0,0 -1,0 0,-1 0,-1 0,-1 0,0 0,0 0,0 0,0 0,0 0,0 1,0 1,1 1,1zm5 0c0,-1 0,0 0,-1 0,0 0,0 0,0 1,-1 1,0 1,0 -1,0 -1,0 -1,0 0,0 0,0 0,1 0,0 0,0 0,0zm-1 -1c0,0 0,0 0,0 0,-1 0,-1 0,-1l0 0c1,0 1,0 1,1 0,0 0,0 -1,0 0,0 0,0 0,0 0,0 0,0 0,0zm-7 0c0,0 0,0 0,1 0,0 0,0 0,0l0 0c0,0 0,0 -1,0l0 -1c0,0 0,0 0,0 0,-1 0,-1 0,-1 0,0 0,0 0,0 0,1 1,1 1,1zm12 2c0,0 0,-1 0,-1 -1,0 -1,0 0,0 0,-1 0,-1 0,-1 0,0 0,0 0,0 0,0 0,0 0,-1 1,0 1,0 1,0 0,0 0,0 0,1 0,0 0,0 1,0 0,0 0,0 0,0 0,0 0,0 0,1 0,0 0,0 0,0 0,0 0,0 0,0 0,0 0,0 -1,0 0,1 0,1 0,1 0,0 0,0 0,0 0,0 -1,0 -1,0zm-9 -3c0,0 0,0 0,0 0,0 0,1 1,1 -1,0 -1,0 -1,0 0,0 0,0 0,0l0 0c0,0 0,0 0,0 0,0 0,0 0,0 0,0 0,0 0,0 -1,0 -1,-1 -1,-1 0,0 0,0 0,0 0,0 0,-1 0,-1 1,0 1,0 1,1 0,0 0,0 0,0 0,0 0,0 0,0zm-3 0c0,0 0,0 0,0 0,0 0,0 1,0 0,1 0,1 0,1 0,0 0,0 0,0l-1 -1c0,0 0,0 0,0 0,0 0,0 0,0zm6 1c0,0 0,0 0,0 0,0 0,0 0,-1 0,0 0,0 0,-1 0,0 0,1 0,1 1,0 1,0 1,0 0,0 0,1 -1,1 0,0 0,0 0,0zm-4 0c0,0 0,0 -1,0 0,0 0,0 0,0 0,-1 0,-1 0,-1 0,-1 1,-1 1,0 0,0 0,0 0,0 0,0 0,0 0,0 0,0 0,1 0,1zm2 -1c0,0 0,0 0,0 0,1 0,1 0,1l0 0c0,0 0,-1 0,-1zm1 0c0,0 0,1 0,1 0,0 0,0 0,0 0,0 0,0 0,0 0,0 0,0 0,0 0,-1 0,-1 0,-1 0,0 0,0 0,0l0 0c0,0 0,0 0,0z"/>
   <path class="fil1" d="M6 10c-1,0 -1,0 -1,0 1,0 1,0 1,0 0,0 0,0 0,0zm1 0c0,0 0,-1 0,-1 0,0 -1,-1 -1,-1 0,0 -1,1 -1,1 0,0 0,0 0,0 0,2 1,2 1,2 0,0 0,0 0,0 0,0 0,0 0,0 0,0 1,0 1,-1 0,0 0,0 0,0l0 0z"/>
   <path class="fil1" d="M15 3l0 0c0,0 0,0 0,0 -1,0 0,0 -1,0 0,0 0,0 0,0 1,0 1,0 1,0 0,0 0,0 0,0zm0 0c0,0 0,0 1,0 0,0 0,0 0,0 -1,0 -1,0 -1,0zm-1 0c0,0 0,0 0,0 0,0 0,-1 0,0 0,0 0,0 0,0 0,0 0,0 0,0zm1 -1l0 0c0,0 0,0 0,0 0,0 0,0 0,0 0,0 0,1 0,0zm-1 0c0,0 0,0 0,0 1,0 1,0 0,0l0 0zm0 2c0,0 1,0 1,0 0,0 0,0 0,0 0,0 0,0 0,-1 1,0 1,0 1,0 0,0 0,0 0,0 0,0 0,0 0,0 0,-1 0,-1 0,-1 0,0 0,0 0,0 -1,0 -1,0 -1,0 0,-1 0,-1 0,-1 0,0 0,0 -1,0 0,1 0,1 0,1 0,0 0,0 0,0 0,0 0,0 0,1 -1,0 -1,0 0,0 0,0 0,1 0,1z"/>
   <path class="fil2" d="M2 3l0 0c0,0 0,0 0,0 0,-1 0,-1 0,-1 0,0 -1,0 -1,-1 0,0 0,0 0,0 0,0 0,0 0,1 0,0 0,0 0,0l0 1c1,0 1,0 1,0z"/>
   <path class="fil1" d="M7 8c0,0 -1,0 0,-1 0,0 0,0 0,1 0,0 0,-1 0,-1 0,1 0,1 0,1 0,0 0,0 0,0zm0 -1c0,0 0,0 0,0 1,0 1,0 1,0 0,0 0,0 -1,0zm1 2c0,0 -1,-1 0,-1 0,0 0,0 0,-1 0,0 1,0 0,-1 0,0 0,0 0,0l-1 1c0,0 0,0 -1,1 0,0 0,0 0,0 0,0 1,0 1,0 0,0 0,1 1,1z"/>
   <path class="fil2" d="M4 4c0,0 0,0 0,0 0,0 1,0 1,0 0,0 0,0 0,0 1,0 0,0 0,0 1,0 0,0 1,0 0,0 0,0 0,0 0,0 0,0 0,-1 0,0 -1,0 -1,0 0,0 0,0 0,0 0,0 0,0 -1,0 0,0 0,0 0,0 0,1 0,1 0,1 -1,0 0,0 0,0z"/>
   <path class="fil2" d="M4 1c0,0 0,1 1,1 0,0 0,0 0,0 0,0 0,0 0,0 0,0 0,0 0,0l0 0c0,0 0,0 0,0 0,0 0,0 1,0 -1,0 -1,-1 -1,-1 0,0 0,0 0,0 0,0 0,0 0,0 0,0 0,0 0,0 0,-1 0,-1 -1,-1 0,0 0,1 0,1 0,0 0,0 0,0z"/>
   <path class="fil1" d="M12 4c0,0 0,0 1,0 0,0 0,0 0,0 0,0 0,1 -1,0zm-1 1l1 0 0 0c0,-1 0,-1 0,-1 0,1 0,1 0,1 0,0 0,0 0,0l0 0 0 0c0,0 0,0 1,0 0,0 0,0 0,0 0,-1 0,-1 0,-1 0,0 0,-1 0,0 0,0 0,0 -1,0 0,0 0,0 0,0 0,0 -1,0 -1,1 0,0 0,0 0,0z"/>
   <path class="fil2" d="M18 10c0,0 0,0 1,1 0,0 0,0 0,0 0,0 0,-1 0,-1 0,0 0,0 -1,0 0,0 0,0 0,0 -1,0 -1,0 -1,0l0 0c0,0 0,0 0,0 1,0 1,0 1,0z"/>
   <path class="fil2" d="M8 2c0,0 0,0 0,0 1,0 1,-1 1,-1 0,0 0,0 -1,0 0,0 0,-1 0,-1 0,1 0,1 0,1 0,1 0,1 0,1 0,0 0,0 0,0z"/>
   <path class="fil2" d="M4 2c0,0 0,-1 0,-1 0,0 0,0 0,0 0,0 0,0 0,0 0,-1 -1,-1 -1,0 0,0 0,0 0,1 0,0 0,0 0,0 1,0 1,0 1,0z"/>
   <path class="fil2" d="M18 11c0,0 -1,0 -1,0 0,0 0,0 0,0 0,0 0,0 0,0 0,0 1,1 1,1 0,0 0,0 0,0 0,-1 0,-1 0,-1z"/>
   <path class="fil2" d="M5 5c0,0 0,0 -1,0 0,1 1,2 1,2 0,0 0,0 0,0 0,0 0,-1 0,-1 0,0 0,0 0,0 0,-1 0,-1 0,-1 0,0 0,0 0,0 0,0 0,0 0,0 0,-1 0,0 0,0z"/>
   <path class="fil2" d="M18 9c1,0 1,0 1,0 0,-1 -1,-1 -1,-1 0,0 -1,0 -1,0 0,0 0,0 0,0l1 1z"/>
   <path class="fil2" d="M17 9c1,0 1,0 1,0l1 1 0 0c0,0 0,-1 0,-1 0,0 0,0 0,0 -1,0 -1,0 -2,0 0,0 0,0 0,0 0,0 0,0 0,0 0,0 0,0 0,0l0 0z"/>
   <path class="fil2" d="M8 6c0,0 0,0 0,0 0,-1 -1,-1 -1,-1 -1,0 -1,1 -1,1 1,0 1,0 1,0 1,0 0,0 1,0z"/>
   <path class="fil2" d="M9 2c0,0 0,0 0,0 0,0 0,0 0,0 1,0 1,0 1,0 0,-1 0,-1 -1,-1l0 0c0,0 0,0 0,1 0,0 0,0 0,0z"/>
   <path class="fil2" d="M6 7c0,0 0,0 0,-1 1,0 1,1 1,1 0,-1 0,0 0,-1 0,0 0,0 0,0 -1,0 -2,0 -2,1 0,0 0,0 1,0z"/>
   <path class="fil2" d="M10 9c0,0 -1,0 -1,0 0,0 0,0 0,1 0,0 0,0 0,0 0,1 0,1 0,1l0 0c1,-1 1,-1 1,-1 0,0 0,0 0,-1z"/>
   <path class="fil1" d="M9 6c0,0 0,0 0,0 0,0 0,0 0,0 0,0 0,0 0,0 0,0 0,0 0,0zm1 -1c0,0 0,0 0,0l0 0 0 0c0,0 0,0 0,0l0 0 0 0c0,0 0,0 0,0 0,0 0,0 -1,0 0,0 0,1 0,1 0,0 0,0 0,0 0,0 0,0 0,0 0,0 0,0 0,0 1,0 2,-1 2,-1 0,0 -1,0 -1,0z"/>
   <path class="fil2" d="M6 2l0 0c0,0 0,0 0,-1 0,0 0,0 0,0 0,0 0,1 0,1z"/>
   <path class="fil2" d="M14 10c1,1 1,0 1,0 0,0 0,0 0,0 0,0 0,-1 0,-1 0,0 0,0 0,0 0,0 0,0 0,0 0,1 0,1 -1,1l0 0z"/>
   <path class="fil2" d="M8 3c-1,0 -1,0 -1,1 0,0 0,0 1,0 0,0 0,-1 0,-1 0,0 1,0 1,0 0,0 0,0 0,0 -1,0 -1,0 -1,-1 0,1 0,1 0,1z"/>
   <path class="fil2" d="M7 2c-1,0 0,0 -1,0 0,1 -1,1 -1,1 1,0 1,-1 2,0 0,0 0,0 0,0 0,0 0,0 0,0 0,0 0,0 0,0 0,-1 0,-1 0,-1 0,0 0,0 0,0z"/>
   <path class="fil2" d="M6 5c0,0 0,0 0,0 0,0 0,0 0,0 0,0 0,0 0,0 0,-1 0,-1 0,-1 1,0 1,0 1,0 0,-1 0,0 -1,0 0,0 0,0 0,0 0,0 0,1 0,1 0,0 0,0 0,0z"/>
   <path class="fil2" d="M3 2c0,0 0,0 0,-1 -1,0 -1,0 -1,0 0,0 0,0 0,0 0,0 0,0 0,0 0,0 0,0 0,0l1 1c0,0 0,0 0,0z"/>
   <path class="fil2" d="M9 5c0,0 0,0 0,0 0,-1 0,-1 0,-1 -1,0 -2,1 -1,1 0,0 0,0 0,-1 1,0 1,1 1,1z"/>
   <path class="fil2" d="M10 3c0,0 0,0 1,0 0,0 0,0 0,0 0,0 0,0 0,-1 0,0 0,0 0,1 0,0 0,0 -1,0 0,0 0,0 0,0z"/>
   <path class="fil2" d="M7 2c0,0 0,-1 0,-1 0,0 0,0 0,0l0 0c0,0 0,0 0,0 0,0 0,0 0,1 0,0 0,0 0,0 0,0 0,0 0,0 0,0 0,0 0,0z"/>
   <path class="fil2" d="M12 6c0,0 0,0 0,0 0,0 0,0 0,1 0,0 0,0 0,0l0 1c0,0 1,-1 1,-1 -1,-1 -1,-1 -1,-1 0,0 0,0 0,0l0 0z"/>
   <path class="fil2" d="M16 11c1,0 0,0 1,0 0,0 0,-1 -1,-1 0,-1 0,-1 0,-1l0 1c0,0 0,0 0,1z"/>
   <path class="fil2" d="M10 8c0,0 0,0 0,0 0,0 0,0 0,0l0 0 0 0c0,0 0,1 0,1 0,0 0,0 0,0 1,0 0,0 0,-1 0,0 0,0 0,0z"/>
   <path class="fil2" d="M14 6c0,0 0,0 0,0 0,0 1,-1 1,-1 0,0 0,0 0,0l0 0c-1,0 -1,0 -1,0 0,1 0,1 0,1z"/>
   <path class="fil2" d="M9 4c0,0 1,0 1,0 0,0 0,0 1,0 0,0 0,0 0,0l0 0c0,0 -1,-1 -1,-1 0,0 -1,0 -1,1z"/>
   <path class="fil2" d="M14 6c0,0 0,0 -1,0l0 0c1,0 1,0 1,1 0,0 0,0 0,0l0 0c-1,0 -1,1 -1,1l0 0c0,0 0,0 0,0 0,0 0,0 0,0 1,0 1,-1 1,-2z"/>
   <path class="fil2" d="M17 7c0,0 0,0 0,0 1,0 1,0 1,0 0,0 0,0 0,0 0,0 0,0 0,0 -1,0 0,0 -1,0 0,0 0,0 0,0z"/>
   <path class="fil2" d="M13 9c0,0 0,0 0,0 0,0 0,0 0,0 0,0 0,0 0,0 0,0 0,0 0,0 0,-1 -1,-1 -1,-1 0,0 0,0 0,0 0,0 0,0 0,0 0,0 0,0 0,0 1,1 1,1 1,1z"/>
   <path class="fil2" d="M8 9c0,0 0,0 1,0 0,0 0,0 0,0 0,0 0,-1 0,-1 0,-1 0,-1 0,-1 0,0 0,0 0,0 0,0 0,0 0,0 0,1 0,1 0,1 0,0 0,0 0,0 0,0 0,1 0,1 -1,0 -1,0 -1,0 0,0 0,0 0,0l0 0z"/>
   <path class="fil2" d="M11 5c0,0 0,1 0,1 0,0 0,0 0,0 0,1 0,1 -1,1 1,0 1,0 1,-1 1,0 0,0 0,-1l0 0z"/>
   <path class="fil2" d="M15 6c0,0 0,0 0,0 0,0 0,0 0,0 0,0 0,0 1,0 0,0 0,0 0,0 0,1 0,1 0,1 0,0 0,-1 0,-1 0,0 0,0 -1,0 0,0 0,0 0,0l0 0z"/>
   <path class="fil2" d="M5 7l0 0c-1,0 0,0 -1,0 0,0 0,0 0,0 0,0 0,0 0,0 0,0 0,0 0,0 0,0 0,0 0,0 0,0 1,0 1,0z"/>
   <path class="fil2" d="M4 2c0,0 0,0 0,1 1,0 1,0 1,0 0,0 0,-1 -1,-1 0,0 0,0 0,0 0,0 0,0 0,0z"/>
   <path class="fil2" d="M14 10c0,0 0,-1 -1,-1 0,0 0,1 0,1 0,0 0,0 0,0l1 0c0,0 0,0 0,0z"/>
   <path class="fil2" d="M10 3c0,0 0,0 0,0 0,-1 0,-1 0,-1 0,0 0,0 1,0 0,0 0,-1 -1,0 0,0 0,0 0,0 0,1 0,0 0,1z"/>
   <path class="fil2" d="M14 8c0,0 0,0 0,1 0,0 0,0 0,0l-1 0c0,0 0,0 0,0 0,0 1,0 1,0 0,0 0,0 0,0 0,-1 0,-1 0,-1 0,0 0,0 0,0z"/>
   <path class="fil3" d="M7 8c0,0 0,0 0,0 0,0 0,0 0,-1 0,0 0,1 0,1 0,-1 0,-1 0,-1 -1,1 0,1 0,1z"/>
   <path class="fil2" d="M15 8l0 0 0 0c0,0 0,0 0,-1 0,0 0,0 0,-1 0,0 -1,0 -1,1 0,0 0,0 1,0 0,0 0,0 0,0 0,0 0,1 0,1z"/>
   <path class="fil4" d="M15 3c0,0 0,0 0,0 0,0 0,0 -1,0 0,0 0,0 0,0 1,0 0,0 1,0 0,0 0,0 0,0l0 0z"/>
   <path class="fil2" d="M3 4c0,0 0,0 0,0 0,0 -1,0 0,0 0,0 0,0 0,0 0,0 0,0 0,0z"/>
   <path class="fil2" d="M8 9c0,1 0,1 0,1 1,0 1,0 1,0 0,0 0,0 0,-1 -1,0 -1,0 -1,0z"/>
   <path class="fil2" d="M4 5c1,0 1,-1 1,-1l0 0c0,0 0,0 -1,0 0,0 0,0 0,1z"/>
   <path class="fil2" d="M13 5c0,0 0,0 0,1 0,0 0,0 0,0 0,0 0,0 0,0 0,0 0,0 0,0 0,0 0,0 0,0 0,0 0,-1 0,-1z"/>
   <path class="fil2" d="M10 6c0,0 0,0 1,0 0,0 0,0 0,0 0,0 -1,0 -1,0z"/>
   <path class="fil2" d="M3 5c0,0 0,0 1,0 0,0 0,0 0,0 0,0 0,0 0,0 0,0 -1,0 -1,0 0,0 0,0 0,0z"/>
   <path class="fil2" d="M11 11c0,-1 0,-1 -1,-1 0,0 0,0 0,0l0 1c1,0 1,0 1,0l0 0z"/>
   <path class="fil2" d="M8 4l1 0c0,0 0,-1 -1,-1 0,0 0,1 0,1z"/>
   <path class="fil2" d="M11 9c0,1 0,1 0,1 0,0 0,-1 1,-1 0,0 0,0 0,-1 0,1 0,1 0,1l-1 0c0,0 0,0 0,0 0,0 0,0 0,0l0 0c0,0 0,0 0,0z"/>
   <path class="fil2" d="M7 5l0 0c0,-1 0,-1 0,-1 0,0 0,0 0,0 0,0 0,0 0,0 0,1 0,1 0,1z"/>
   <path class="fil2" d="M11 8c0,0 0,0 0,0 0,0 0,0 0,0 0,0 0,0 0,0 0,-1 0,0 0,-1 0,0 0,0 0,0 0,0 0,0 0,1 0,0 0,0 0,0l0 0c0,0 0,0 0,0z"/>
   <path class="fil2" d="M12 5c0,0 0,0 0,0 0,1 1,1 0,0 0,0 0,0 0,0z"/>
   <path class="fil2" d="M15 6c0,0 0,-1 0,-1 1,0 1,1 1,1l0 -1c0,0 0,0 0,0 0,0 0,0 -1,0 0,0 0,0 0,0 0,0 0,0 0,1z"/>
   <path class="fil2" d="M12 11c0,-1 0,-1 0,-1 0,0 0,0 0,0 0,0 0,1 0,1 0,0 0,0 0,0z"/>
   <path class="fil5" d="M11 5c0,0 0,0 1,0 0,0 0,0 0,0l0 0c0,0 0,0 0,0l0 0 0 0c0,0 0,0 0,0 0,0 0,0 0,-1 0,0 0,0 0,1l0 0 -1 0z"/>
   <path class="fil2" d="M3 6c0,0 1,0 1,0 0,0 0,0 0,0 0,-1 0,-1 -1,0 0,0 0,-1 0,0z"/>
   <path class="fil1" d="M14 4c0,0 -1,-1 -1,-1 0,0 1,1 1,1 0,0 0,0 0,0z"/>
   <path class="fil3" d="M6 10c0,0 0,0 0,0 0,0 0,0 -1,0 0,0 0,0 1,0z"/>
   <path class="fil2" d="M11 10c0,0 0,0 0,0l0 0c0,0 0,0 0,0 0,0 0,0 0,0 0,0 0,0 0,1 0,0 0,0 0,0l0 -1c0,0 0,0 0,0z"/>
   <path class="fil2" d="M5 6l1 0 0 0c0,0 0,-1 -1,-1 0,0 0,1 0,1z"/>
   <path class="fil2" d="M16 8c0,0 0,0 0,0 0,0 0,0 0,0 0,1 0,1 0,1 0,0 0,0 0,0 0,0 0,0 0,0 0,0 0,0 0,0 0,0 0,0 0,-1 0,0 0,0 0,0z"/>
   <path class="fil2" d="M14 8c0,0 0,0 0,0l1 0c0,-1 0,-1 -1,-1l0 1z"/>
   <path class="fil2" d="M15 10c0,1 1,1 1,1 0,-1 0,-1 0,-1 -1,0 -1,0 -1,0 0,0 0,0 0,0z"/>
   <path class="fil2" d="M8 8c0,0 0,0 0,0 0,0 0,0 0,0 0,0 0,0 0,0 0,0 0,0 0,0 0,0 0,0 0,0z"/>
   <path class="fil2" d="M13 10c0,0 -1,0 -1,0l0 1c0,0 1,0 1,0 0,-1 0,-1 0,-1z"/>
   <path class="fil2" d="M15 7c0,0 0,0 0,0 1,0 1,0 1,0 -1,-1 -1,0 -1,0z"/>
   <path class="fil2" d="M2 3c0,0 0,0 0,1 1,0 1,-1 1,-1 0,0 0,0 0,0 0,0 0,0 0,0 0,0 0,0 0,0 0,0 0,0 -1,0z"/>
   <path class="fil2" d="M10 4c0,0 0,1 0,0 0,0 0,0 0,0z"/>
   <path class="fil2" d="M6 3l0 0c0,0 0,0 1,0 0,0 0,0 0,0 0,0 0,0 0,0 -1,0 -1,0 -1,0z"/>
   <path class="fil2" d="M9 7c0,0 0,0 0,0 0,0 0,0 0,0 1,0 1,0 1,0l-1 0c0,0 0,0 0,0z"/>
   <path class="fil1" d="M6 8c0,0 0,0 0,0 1,1 1,0 1,1 0,0 0,0 0,0 0,0 0,0 0,-1 0,0 -1,0 -1,0z"/>
   <path class="fil6" d="M14 3c0,0 0,0 0,0 0,0 0,0 0,0 0,-1 0,0 0,0 0,0 0,0 0,0z"/>
   <path class="fil2" d="M17 6l0 0c0,0 0,0 0,0 0,0 0,1 0,1 0,0 0,0 0,0 0,0 0,0 0,0l0 0c0,-1 0,-1 0,-1 0,0 0,0 0,0l0 0z"/>
   <path class="fil2" d="M9 11c0,0 0,0 0,0 1,0 1,0 1,0l0 0c0,0 0,0 0,0 0,0 0,0 0,0l-1 0z"/>
   <path class="fil3" d="M7 7c1,0 1,0 1,0 0,0 0,0 -1,0 0,0 0,0 0,0z"/>
   <path class="fil2" d="M9 8c0,0 0,0 0,1l0 0 1 0c0,-1 0,-1 -1,-1z"/>
   <path class="fil6" d="M15 3c0,0 0,0 1,0 0,0 0,0 0,0 -1,0 -1,0 -1,0z"/>
   <path class="fil2" d="M12 7c0,0 0,0 0,0 0,0 0,-1 0,-1 -1,1 -1,1 0,1z"/>
   <path class="fil2" d="M9 5c0,0 0,0 0,0 0,0 0,0 -1,0 0,0 1,0 1,0z"/>
   <path class="fil6" d="M14 2l0 0c1,0 1,0 0,0 0,0 0,0 0,0z"/>
   <path class="fil2" d="M10 7c0,0 0,0 0,1 0,0 0,0 1,0 0,-1 0,-1 0,-1l-1 0z"/>
   <path class="fil7" d="M10 5l0 0 0 0c0,0 0,0 0,0l0 0 0 0c0,0 0,0 0,0z"/>
   <path class="fil2" d="M6 7l1 0c-1,0 -1,0 -1,0z"/>
   <path class="fil7" d="M9 6c0,0 0,0 0,0 0,0 0,0 0,0 0,0 0,0 0,0 0,0 0,0 0,0z"/>
   <path class="fil6" d="M12 4c1,1 1,0 1,0 0,0 0,0 0,0 -1,0 -1,0 -1,0z"/>
   <path class="fil2" d="M14 5l0 0c0,0 0,0 0,0 0,0 0,0 0,0 0,0 0,0 0,0z"/>
   <path class="fil6" d="M15 2l0 0c0,1 0,0 0,0 0,0 0,0 0,0z"/>
   <path class="fil2" d="M12 9c0,0 0,0 0,0 0,0 0,0 0,0 0,0 0,0 0,0 0,0 0,0 0,0 0,0 0,0 0,0 0,0 0,0 0,0 0,0 0,0 0,0z"/>
   <path class="fil2" d="M4 7c0,0 0,0 0,-1 0,0 0,1 0,0 0,0 0,0 0,0 0,0 0,0 0,1z"/>
   <path class="fil2" d="M13 9c0,0 0,0 0,0 0,0 0,0 0,0 0,0 0,0 0,0 -1,0 0,0 0,1 0,0 -1,0 -1,0 0,0 0,0 0,0 0,0 0,0 0,0 0,0 0,0 1,0 0,-1 0,-1 0,-1z"/>
   <path class="fil2" d="M18 11l0 0c0,0 0,0 0,0 0,0 0,0 1,0 0,0 0,0 0,0 0,0 -1,0 -1,0 0,0 0,0 0,0z"/>
   <path class="fil2" d="M4 3l0 0c0,0 0,0 0,0 0,0 0,0 0,0 0,0 0,0 0,0z"/>
   <path class="fil2" d="M10 7c0,0 0,-1 0,-1 0,0 0,0 0,1 0,0 0,0 0,0z"/>
   <path class="fil2" d="M13 8l0 0 0 1c0,0 0,-1 0,-1z"/>
   <path class="fil2" d="M15 8c0,0 0,0 1,0 0,0 0,0 0,0l-1 0z"/>
   <path class="fil2" d="M14 9c0,0 0,0 0,0 1,0 1,0 0,0 0,0 0,0 0,0 0,0 0,0 0,0z"/>
   <path class="fil2" d="M16 8c0,0 0,0 0,0 0,0 0,0 0,0 0,0 0,-1 0,-1 0,1 0,1 0,1l0 0z"/>
   <path class="fil2" d="M7 6c0,0 0,0 0,0 0,0 0,0 0,0 0,0 0,0 0,0 0,0 0,0 0,0z"/>
   <path class="fil8" d="M15 2c0,0 0,0 0,0 0,0 0,1 0,0 0,1 0,0 0,0 0,0 0,0 0,0 0,0 0,0 0,0z"/>
   <path class="fil9" d="M6 11l0 0 -1 0c0,0 0,0 0,0 1,0 1,0 1,0 0,0 0,0 0,0z"/>
   <path class="fil2" d="M15 8l0 0 0 0 0 0c0,0 0,0 0,0 0,0 0,0 0,0l0 0c0,0 0,0 0,0 0,0 0,0 0,0z"/>
   <path class="fil2" d="M13 7c0,0 0,0 0,0 0,0 0,0 0,0 0,0 0,0 0,0z"/>
   <path class="fil1" d="M9 7c0,-1 -1,-1 -1,-1 0,0 0,0 0,0 0,0 0,0 1,1z"/>
   <path class="fil2" d="M10 3c0,0 0,0 -1,0 0,0 1,0 1,0z"/>
   <path class="fil2" d="M17 6l0 1 0 0c0,-1 0,-1 0,-1 0,0 0,0 0,1l0 0c0,0 0,0 0,0 0,0 0,0 0,0 0,0 0,-1 0,-1 0,0 0,0 0,0l0 0z"/>
   <path class="fil2" d="M11 9l0 0c0,0 0,0 0,0 0,0 0,0 0,0zm0 0c0,0 0,0 0,0l0 0 0 0c0,0 0,0 0,0z"/>
   <path class="fil10" d="M9 5c1,0 1,0 1,0 0,0 0,0 0,0 0,0 0,0 0,0l0 0 0 0c0,0 0,0 0,0 0,0 0,0 0,0 0,0 0,0 0,0 -1,0 0,0 -1,0z"/>
   <path class="fil2" d="M11 9c0,0 0,0 0,0 0,0 0,0 0,0l0 0z"/>
   <path class="fil2" d="M10 10c0,0 0,0 0,0 0,0 0,0 1,0 -1,0 -1,0 -1,0z"/>
   <path class="fil11" d="M11 5c0,0 0,0 0,0 0,0 0,0 0,0z"/>
   <path class="fil12" d="M3 3c0,0 0,0 0,0 0,0 0,0 0,0 0,0 0,0 0,0z"/>
  </g>
 </g>
</svg>
