<svg xmlns="http://www.w3.org/2000/svg" viewBox="0 0 10.32 10.32"><defs><style>.cls-1{fill:#bdb6ac;fill-rule:evenodd;}.cls-2{fill:none;}</style></defs><title>Asset 6</title><g id="Layer_2" data-name="Layer 2"><g id="Layer_1-2" data-name="Layer 1"><path class="cls-1" d="M5.16,1.84c-.9,0-1,0-1.37,0A2.3,2.3,0,0,0,3,2a1.57,1.57,0,0,0-.59.38A1.46,1.46,0,0,0,2,3a2.3,2.3,0,0,0-.16.8c0,.36,0,.47,0,1.37s0,1,0,1.37A2.36,2.36,0,0,0,2,7.34a1.5,1.5,0,0,0,.38.58A1.6,1.6,0,0,0,3,8.31a2.59,2.59,0,0,0,.8.15c.36,0,.47,0,1.37,0s1,0,1.37,0a2.72,2.72,0,0,0,.81-.15,1.82,1.82,0,0,0,1-1,2.66,2.66,0,0,0,.15-.81c0-.35,0-.47,0-1.37s0-1,0-1.37A2.59,2.59,0,0,0,8.31,3a1.6,1.6,0,0,0-.39-.59A1.62,1.62,0,0,0,7.34,2a2.41,2.41,0,0,0-.81-.16c-.35,0-.47,0-1.37,0Zm0,.6c.89,0,1,0,1.34,0a1.89,1.89,0,0,1,.62.11,1.19,1.19,0,0,1,.38.25,1,1,0,0,1,.25.38,2,2,0,0,1,.11.62c0,.35,0,.46,0,1.34s0,1,0,1.34a1.89,1.89,0,0,1-.11.62,1.13,1.13,0,0,1-.63.63,1.89,1.89,0,0,1-.62.11c-.35,0-.45,0-1.34,0s-1,0-1.34,0a2,2,0,0,1-.62-.11,1,1,0,0,1-.38-.25,1.19,1.19,0,0,1-.25-.38,1.89,1.89,0,0,1-.11-.62c0-.35,0-.45,0-1.34s0-1,0-1.34a2,2,0,0,1,.11-.62,1.13,1.13,0,0,1,.63-.63,2,2,0,0,1,.62-.11C4.17,2.44,4.28,2.44,5.16,2.44Z"/><path class="cls-1" d="M5.16,6.27A1.11,1.11,0,1,1,6.27,5.16,1.11,1.11,0,0,1,5.16,6.27Zm0-2.81a1.71,1.71,0,0,0,0,3.41,1.71,1.71,0,1,0,0-3.41Z"/><path class="cls-1" d="M7.33,3.39a.4.4,0,0,1-.4.4.4.4,0,0,1,0-.8A.4.4,0,0,1,7.33,3.39Z"/><rect class="cls-2" width="10.32" height="10.32"/></g></g></svg>