<svg xmlns="http://www.w3.org/2000/svg" viewBox="0 0 37.31 35.08"><defs><style>.cls-1{fill:#bfb999;fill-rule:evenodd;}</style></defs><title>Asset 5</title><g id="Layer_2" data-name="Layer 2"><g id="Layer_1-2" data-name="Layer 1"><path class="cls-1" d="M10.73,26.19c.38.44.21.56,0,.9s-.95.3-1.12.2c.28-.1.55-.07.82-.37s.15-.43.27-.73ZM21.94,11.75c-.22-.22-.25-.16,0-.31l.13.18c0,.09,0,.05-.11.13Zm.52,0c.06-.13,0-.26-.18-.47-.72-.76-1.43.9-.25.86.23.14.44-.2.43-.39ZM17.82,7.09c-.06-.17-.11,0,0-.17.09.14.09,0,0,.17Zm1.83,17.65c.08.25.11.2-.09.34-.1-.21-.12-.2.09-.34Zm.47,0c-.08-.49-1-.49-1.09.06a.56.56,0,0,0,1,.41c.24-.05.08-.15.16.12L20,27.73c0,.22-.08.28-.11.5s0,.33-.06.53,0,.18,0,.25l0,.26a.74.74,0,0,1-.44.12c0-.05.2-.78-.43-.88s-1,.56-.52.94l.16.12c.16.18-.59.39-.86.34.12-.4.42-.54-.12-1.13.05-.1.15-.17.19-.32.14-.53-.47-1.36-.94-.84s0,.8.34,1.05l-.22.24c-.28.36-.08.67.19,1l-1.2,0,.27-.47c-.49-.86-1.47-.17-1,.58h-.63a.54.54,0,0,1,.09-.32c.08-.14,0,0,.12-.14a.85.85,0,0,0,.16-.19c-.25-.4-.93-.74-1.24,0-.12.29,0,.27,0,.52a3.77,3.77,0,0,1-1.1-.25c.11-.52.18-.17.38-.44a.6.6,0,0,0-.74-.72c-.59.11-.46.51-.41.76l0,.18a10.21,10.21,0,0,1-1.29-.31c1.35-.82,2.35-1.12,3-3.16s-.25-3.84-.21-4.15l1.22.41a12.9,12.9,0,0,0,1.26.32l-.09.53c0,.2,1,.77,1.23.19a1,1,0,0,0,0-.51l2.12.45c0,.42.14.6.56.62.73,0,.64-.86.72-.4v.21l-.16,1c-.1.17,0,.14-.16,0ZM10,9.81a1.35,1.35,0,0,0-.49-.31A1.43,1.43,0,0,0,9,9.28c0-.19-.06,0,0-.17A1.77,1.77,0,0,1,9.67,9a7,7,0,0,1,1.51.87c-.42.57-.71.05-1.16-.06ZM9,9.73l.42.16a2.77,2.77,0,0,0,.55.38c.22.14.38.14.58.26l-.29.29a7.2,7.2,0,0,1-1.43-.63,8.7,8.7,0,0,0-1.39-.68,2.12,2.12,0,0,1,.85-.17L9,9.73Zm17.12-1.3c.09.21.1.06.05.17-.21,0-.41,0-.52-.31a.77.77,0,0,1,.14-.59A.93.93,0,0,1,27,7.34c.11.18.05,0-.05.15-.21-.28-.79.07-.84.14s-.17.6.09.8Zm1.43-.56c0-.16.05,0,0-.2A1.24,1.24,0,0,0,25.7,7,1.14,1.14,0,0,0,26,9a1.34,1.34,0,0,0,1.5-.54.42.42,0,0,0,.07-.59ZM24,5.87c.22,0,0-.08.23.07C24,6,24.11,6,24,5.87Zm.56.32c.29-.7-.63-.93-.9-.56s.68,1.12.9.56Zm-1.43.7a.35.35,0,0,1-.33-.15c.22,0,.31,0,.33.15Zm.29.26a.57.57,0,0,0-.12-.73c-.18-.13-.58-.23-.77,0-.46.52.56,1.24.89.75Zm-1.1.69s0,0-.06.12S22.13,8,22,8c-.06-.3.09-.23.24-.14Zm.28.35c.5-.74-.57-1-.86-.65s.41,1.31.86.65Zm-.74.91c-.26.09-.1.11-.28-.08.24-.09.1-.14.28.08Zm.37.28c.26-.59-.55-1.14-.93-.62a.59.59,0,0,0,.22.78.55.55,0,0,0,.71-.16Zm-.66.9c.26-.07.18-.1.31.07-.2.09-.19.08-.31-.07Zm.56.37c.56-.67-.37-1-.76-.71-.57.42.33,1.24.76.71Zm-1.78.82c-.19,0-.17,0-.3-.12.24-.09.14-.11.3.12Zm.44-.06c-.24-.38-.22-.29-.53-.5.43-.15.53-.33.38-.76-.9-.39-1.32.44-.58.74-.24.15-.34.23-.38.44a.41.41,0,0,0,.29.47c.55.25.62.09.82-.39Zm-.41-2.19c-.23.13-.38,0-.34-.22.18,0,.32,0,.34.22Zm.3.28c.48-.73-.75-1.19-1-.72a.76.76,0,0,0,.18.8.59.59,0,0,0,.79-.08Zm-.29-1.74a.2.2,0,0,1,.39.07c0,.13-.1.14-.22.12s-.17-.11-.17-.19Zm.67.36c.14-.25.3-.54-.17-.75-1-.43-1.18.64-.59.86.24.08.59.2.76-.11Zm.48-1.59c0,.29-.08.33-.29.15.08-.11-.08,0,.08-.11s.08-.05.21,0Zm.23.5c.59-.63-.28-1.3-.75-.72s.37,1.12.75.72Zm.47-1.7c.18.09.08,0,.18.19-.21.13-.18.1-.34,0,0-.19,0-.17.16-.19Zm-.3-.52c0,.35-.24.33-.2.72a.54.54,0,0,0,1,.18c.14-.31.07-.39-.07-.52a.94.94,0,0,0-.17-.11c-.14-.15-.15,0,0-.17a2.24,2.24,0,0,0,.81.19c.34,0,.52.13.85.19l1.63.46a5,5,0,0,0-2.49,3.1,4.08,4.08,0,0,0-.2,1.83c0,.17.08.32.09.51.05.57.3,1,.3,1.42-.2,0-.13-.09-.37-.11a2.67,2.67,0,0,1-.4,0l-.77-.16a30.38,30.38,0,0,0-4.52-.85c-.05-.33.06-.14,0-.41-.16-.58-.64-.36-.83-.34a8.81,8.81,0,0,1,0-1.85c0-.22,0-.42,0-.63a5.9,5.9,0,0,1,.38-1.78A4.08,4.08,0,0,0,17,5.94c.74-.33.09.36,1.06.38a1,1,0,0,0,.35-.79s0,0,0,0-.28,0,0-.17a1,1,0,0,0,.77.8c.59-.27.68-.74.18-1.17a3,3,0,0,1,1-.25c0,.34-.2.28-.19.66a.46.46,0,0,0,.42.49c.56.1.73-.57.46-1a3.18,3.18,0,0,0,.76,0ZM9.59,8.49a4.1,4.1,0,0,1-1.66-.2,5.1,5.1,0,0,1-1.58-.45A20.39,20.39,0,0,1,4.19,6.53,8,8,0,0,0,3.49,6c.41-1,2-.63,2.41-.46l.8.35a4.49,4.49,0,0,1,1.5,1A8.4,8.4,0,0,1,9.59,8.49Zm-.78.29a15.65,15.65,0,0,1-3,.57c-.32,0-.16.05-.42-.13s-.73-.13-1.38-1a3.15,3.15,0,0,1-.69-1.86c.3,0,.42.27.66.43s.43.26.65.43c.44.32.88.49,1.32.76A7.11,7.11,0,0,0,8,8.62l.55.11h.1a.33.33,0,0,1,.14,0Zm-2.4,1.94a.64.64,0,0,1-.12.22,4.38,4.38,0,0,1-1.37-.43l-1.35-.7a5.27,5.27,0,0,1,.79,0c.7,0,.22,0,1.38.52a3,3,0,0,1,.67.42ZM5,11.67l-1.21,0A4.9,4.9,0,0,1,.66,9.79c.87-.14.79.35,2.18,1a8.74,8.74,0,0,0,1.62.63,2.47,2.47,0,0,1,.56.29Zm9.62-4.85c-.14.24-.55.45-.81.66s-.48.47-.68.67c-.19-.07-.07-.08-.34-.18a.87.87,0,0,1-.37-.21l2.2-.94ZM11.43,8.27c.27-.18.49-.31.72-.18l.62.45-.21.17c-.35.15-.91-.28-1.13-.44Zm.1,1.24a6,6,0,0,1-1.24-.77c.51-.23.59-.28,1-.06l.78.47-.53.36Zm6.53-4c0,.24,0,.3-.14.41l-.11-.21c.1-.17.06-.1.25-.2Zm1.21-.19c.16.16.07.15.07.22-.21.28-.53,0-.33-.32a.5.5,0,0,1,.26.1ZM9.91,11.23c-.59.72-.46.37-1.42,0L5.67,9.75A6.82,6.82,0,0,1,6.9,9.61l0,.05.1.13c.16.17,0,.06.19.14l.4.14,2.28,1.16ZM20.78,5.06c0,.24,0,.19-.1.41-.09-.27-.11-.2.1-.41ZM8.24,11.64a3.11,3.11,0,0,1,1,.49l-1.36.77a5.92,5.92,0,0,1,.38-1.26Zm7.43-5.21c.15.59-.59,1.07-1.11,1.49s-1.08.88-1.64,1.35-1,.92-1.54,1.37c-.33.25-.45.46-.75.7s-.43.54-.77.49a17.17,17.17,0,0,1,2.82-2.76c.47-.39.93-1,1.43-1.42.27-.24.6-.42.85-.66s.47-.54.71-.56Zm-.23,1.15a1.26,1.26,0,0,1-.08.72A10.87,10.87,0,0,1,13.54,10a7,7,0,0,0-.72.58,4.91,4.91,0,0,1-.56.56c-.38.31-.1.3-.65.35-.26,0-.5.16-.74.16a5.31,5.31,0,0,1,1.11-1c.36-.31.71-.68,1-1s.85-.69,1.23-1,.8-.63,1.18-1ZM7.9,11.48a14.16,14.16,0,0,1-.58,2A12.13,12.13,0,0,1,6,15.21a3.13,3.13,0,0,1,.37-1c.08-.22.06-.31.13-.5l1-2.43a.7.7,0,0,1,.44.23ZM15.3,8.9c.31,1.23-1.28,1.44-1.93,2.28a.78.78,0,0,1-.79.14A19.11,19.11,0,0,1,15.3,8.9Zm0,1.18a6.18,6.18,0,0,1,.1,1.21H14c-.2,0,0,0-.19-.06.24-.18.44-.38.69-.58s.53-.35.81-.58Zm-9.41,2c-.08.24-.19.47-.29.72L4.69,15a6.87,6.87,0,0,0-.46,1.49,2.13,2.13,0,0,1-.26.72,2.87,2.87,0,0,1,.14-1.42,9.39,9.39,0,0,1,.31-1.35c.36-.92,0-.58.62-1.63.09-.16.06-.17.14-.32s.78-.71,0-1.07A18.72,18.72,0,0,1,2,9.86c.5,0,.88-.09,1.11.07a5.71,5.71,0,0,0,1,.48,6.64,6.64,0,0,0,1.55.71c.3.09.3,0,.49.18l-.26.78Zm10.67-6c.05.15,0,.14,0,.32s-.06.17-.1.33a5.7,5.7,0,0,0-.28,1.94c0,.42,0,.85-.09,1.32a2.23,2.23,0,0,0,.05.68,2.47,2.47,0,0,1,.05.38c0,.25.05.15-.07.26-.27-.11-.25-.35-.27-.63s-.06-.4-.07-.64a12.45,12.45,0,0,1,.36-3.48l.07-.32.39-.16Zm9.85-.58c-.24,0-.45-.26-.73-.42L23.55,3.82c-1.36-1-1.19-2.41-.25-2.92a48.48,48.48,0,0,1,3.1,4.62ZM6.79,10.86c.63.34.21.4-.26,1.8-.12.35-.25.64-.34.93a5.27,5.27,0,0,1-.34.94c-.23.59-.33.66-.23.94s.16,0-.16.43c-.11.16-.15.26-.28.42a4.06,4.06,0,0,0-.65.86,2.82,2.82,0,0,1-.48.88l.29-.93c.35-.87.11-.24.25-.92l.67-1.79c.13-.28,1.38-3.42,1.53-3.56Zm10.2.52-.33,0a.32.32,0,0,1,.3-.3l0,.32ZM23.66.68c.89-.46,1-.5,1.71,0a6,6,0,0,1,1.21,1.59A5,5,0,0,1,27,4.13a6,6,0,0,1,.09,1.68l-.28-.1c0-.13.06-.09,0-.29a1.47,1.47,0,0,0-.21-.36c-.24-.31-.75-1.18-1.25-1.86-.31-.42-.54-.91-.85-1.34A14,14,0,0,1,23.66.68ZM8,17.74c-.47,0-.34-.87-.31-1.16A4.93,4.93,0,0,1,7.9,15.3a12.66,12.66,0,0,1,.52-1.24c.36-.72.44-.82.32-1.26a4,4,0,0,1,1.5-.61,8.84,8.84,0,0,1-.36,1.41c-.13.43-.28.94-.44,1.36-.1.26-.21.42-.3.68A4.58,4.58,0,0,1,8,17.74ZM11,12c.42.2.76,1.37.69,2.05a5,5,0,0,1-.19,2,8.38,8.38,0,0,1-1.24,1.68,5.45,5.45,0,0,1-1.09.26,1.65,1.65,0,0,1-1,0,5.28,5.28,0,0,0,1-1.37,21,21,0,0,0,.88-2.31c.14-.5.29-.8.48-1.58.09-.33.1-.59.43-.72Zm12.35,1.19a8,8,0,0,1-2.07,1.46c-.41.22-.64.5-1.06.72a2.21,2.21,0,0,1-1.09.32c-.15-.5.07-.82.33-1.26s.56-.6,1.17-.82c.28-.1.5-.24.76-.33s.36-.05.68-.16a1.56,1.56,0,0,1,1.28.07Zm.37.25c.19,1-.9,2.82-1.27,3.17-.83.8-2.77.66-3.2-.54.95.11,1.66-.7,2.25-1a9.81,9.81,0,0,0,2.22-1.58Zm7.57-1.31-1,.41c-.36.1-.59.19-1,.28a13.68,13.68,0,0,1-1.89.36A10.82,10.82,0,0,1,25.69,13a4.54,4.54,0,0,1-.86-.14,4.36,4.36,0,0,0-.85-.15,5.59,5.59,0,0,1-.49-2.09,4.85,4.85,0,0,1,.23-1.82C24,8,25.13,6.37,26.1,6.15l.43-.09s0,0,0,0L28,6.75c.28.14.46.24.75.41s.47.18.72.31a8.76,8.76,0,0,1,2.11,1.3,1.67,1.67,0,0,1,.66.58c-.86.48-4.05.75-4.39,1.37-.05.35,1.91,1.18,2.51,1.3.41.08.66-.06.93.06Zm-7.13,1.2c.45,0,.57.11,1,.15l.92.09a9.1,9.1,0,0,0,1.88,0c.69-.09,3.62-.85,4.09-1.4a.92.92,0,0,0-.26-.53,3.07,3.07,0,0,1-1.67-.1,4.8,4.8,0,0,1-1.5-.75,11.8,11.8,0,0,1,2.15-.5c.59-.11,1.41-.46,1.66-.51s.3,0,.47-.25-.39-.59-.53-.71-.48-.3-.68-.47A4,4,0,0,0,31,7.78c-.28-.16-.45-.22-.71-.36-.5-.29-1-.45-1.42-.73-1.84-1.13-1.33,0-1.4-1.62a10,10,0,0,0-.44-2.68C26.52,1.16,25.24-.21,24.25,0a3.88,3.88,0,0,0-1.78,1c-.95,1.24,0,2.58,1,3.11a10.21,10.21,0,0,1,1.45.9c-.3,0-.54-.14-.84-.2l-2.53-.39c-1.72-.19-1.69-.22-3.66.68-1.3.59-2.63,1-3.92,1.5-.46.2-3.8,1.73-3.94,1.7s0,.09-.18-.12-.06-.06-.13-.16-.14-.28-.25-.43A9.18,9.18,0,0,0,7.66,6L6.31,5.33c-.83-.33-2.28-.74-3,0A1.68,1.68,0,0,0,2.8,6.73a4.42,4.42,0,0,0,.81,1.68,3.72,3.72,0,0,0,1.18,1,9.65,9.65,0,0,1-1.23,0,17.48,17.48,0,0,1-2.51,0c-.3,0-1.06-.29-1,.3,0,.3,1.26,1.41,1.64,1.66l1.29.57c.26,0,.41.1.67.14S4.69,12,5,12.17a8.31,8.31,0,0,0-1,2.54,13,13,0,0,0-.41,2.62c0,.39-.22,1.53,0,1.82.51,0,.51-.33.67-.64L5,17.25c.08-.13.17-.22.28-.37a42.32,42.32,0,0,1,3-3.78c0,.24,0,.05-.06.27s0,.12-.08.2l-.7,1.65c-.32.82-.51,2.54.48,3.06a2.83,2.83,0,0,0,1.78,0,1.66,1.66,0,0,0,1.6-1c.49-.77.68-.65.84-1.56a3.56,3.56,0,0,0,.1-.92,4.59,4.59,0,0,0-.66-2.87,28.67,28.67,0,0,1,5.15-.09,20.44,20.44,0,0,1,2.44.43,16.83,16.83,0,0,1,2.38.51c-.34.11-.59.23-.91.36-1,.42-1,.06-1.86,1.67a2.11,2.11,0,0,0,1.57,2.57,4.56,4.56,0,0,0,1.58.06,2.41,2.41,0,0,0,1.38-1.2A9.05,9.05,0,0,0,24,14.79a2.85,2.85,0,0,0,.16-1.51ZM19.58,6.66c-.19-.2,0,0,0-.08.22.08.1,0,.11.14-.16,0,0,0-.12-.06Zm.66-.08a.55.55,0,0,0-.6-.37c-.44,0-.46.21-.56.45.17.32.34.49.63.47s.41-.31.53-.55ZM19,8c-.12.15-.32-.18-.15-.33s.41,0,.15.33Zm.42.2a.51.51,0,0,0-.1-.83.63.63,0,0,0-.84.12c-.41.46.45,1.37.94.71Zm-.72.69c.13.24.1.21,0,.39-.29,0-.4-.24,0-.39Zm.41.56A.76.76,0,0,0,19,8.68a.65.65,0,0,0-.88.14c-.45.56.59,1.25,1,.67Zm-.75.84c.22.13.12.45.12.45-.23.06-.36,0-.46-.25.08-.11.16-.29.34-.2Zm.49.62c.35-.76-.5-1.39-1.07-.74s.74,1.43,1.07.74Zm-1.73-1.4c.19,0,0,0,.14.09-.06.22-.1.15-.28.06,0,0-.15-.09.14-.15Zm.39.59c.43-.61-.21-1.43-.76-.84s.41,1.31.76.84Zm.1-1.86c-.21.09-.22.09-.41,0,.14-.25.25-.24.41,0Zm.24.26c.12-.26.32-.5-.11-.74a.65.65,0,0,0-.85.24c-.41.6.64,1.19,1,.5Zm0-2.08c-.95.38-.27,1.16,0,1.1A.71.71,0,0,0,18.31,7c0-.29-.3-.49-.48-.57Zm-1.26,18c-.18-.26-.17-.23.07-.4.12.24.11.24-.07.4Zm.36.19c.4-.55-.07-1.34-.69-.78s.23,1.39.69.78Zm-2.18-1.73c.11.16,0,.23-.12.31-.09-.18-.08-.21.12-.31Zm.38.41c.38-.65-.47-1-.84-.47s.55,1,.84.47Zm-.14.94c.24.16.09.18,0,.31-.15-.19-.14-.16,0-.31Zm.32.58a.66.66,0,0,0,.08-.76c-.21-.36-.49-.28-.74,0-.5.52.23,1.23.66.78Zm3.21-.17c.95-.53.09-1.18-.27-1.14s-.39.4-.33.61.41.4.6.53Zm-.6.95c-.06-.15-.05-.16.08-.27.1.05.12.06.18.2-.14.1-.14.09-.26.07ZM17.55,25c0,.26-.19.59.09.86a.56.56,0,1,0,.83-.75.67.67,0,0,0-.92-.11Zm1.7,1c.19.18.16.11,0,.28-.09-.25-.1-.14,0-.28Zm.56.37c.21-.67-1-1.08-1.15-.41a.62.62,0,0,0,.36.69c.17,0,.69,0,.79-.28Zm-3.36-.95c.08.07.21.21.1.34s-.16.07-.17.07c-.16-.17-.17-.3.07-.41Zm.48.56c0-.31.19-.58-.1-.8a.65.65,0,0,0-.81,0c-.4.47.08,1.42.91.77ZM15,26c-.2.06-.18,0-.3-.15.17-.06.3-.08.3.15Zm.35.22c.43-.5-.5-1.14-1-.68s.42,1.29,1,.68Zm-.86.81c0,.18.08.12-.14.27l-.11-.18s.08-.06.1-.06c.19-.06,0,0,.15,0Zm-.65-.06c0,.19,0,.61.32.71a.67.67,0,0,0,.74-.39.4.4,0,0,0-.24-.63c-.32-.13-.58.06-.82.31Zm2.28-.07c.13.13,0,.26,0,.36s-.21,0-.34-.24c.1-.13.23-.27.38-.12Zm.27.62a.56.56,0,0,0,.05-.91.63.63,0,0,0-.89.05c-.59.51.33,1.34.84.86Zm1.13-.7c.06,0,.06-.17.15.18-.28.07-.23,0-.15-.18Zm.43.5c.5-.56-.3-1.41-.76-.9s.27,1.44.76.9Zm.8.62c-.05-.08-.15-.16-.12-.28s.07-.11.19-.14c.15.16.12.28-.07.42Zm.52.13c.46-.79-.64-1.23-1-.73s.58,1.45,1,.73Zm-1.48-9.76c-.75.28-.55-.48-2.74,1-.79.53-1.85,1.71-2.2,2A3.29,3.29,0,0,1,13.1,20a3.75,3.75,0,0,1,1.25-1.9,2.53,2.53,0,0,1,2-.57,2.32,2.32,0,0,1,1.53.79Zm12.55.81a3.23,3.23,0,0,1-.25.29l-.16.14c-.15.18-.07.08-.09.21-.4.27-.65.85-1.15,1.18.11-.82,1.12-2.21,1.11-3.27a2.19,2.19,0,0,0-1.06-1.58,2.72,2.72,0,0,0-1.89.18,3.42,3.42,0,0,0-2.16,2.9A4.82,4.82,0,0,0,24.91,21c0,.18.09.3.11.48a1.91,1.91,0,0,0,.18.94c.13.34.05.28.1.52a7.23,7.23,0,0,1-2.71.2c-.25,0-.37-.1-.64-.15s-1.59,0-2-.08c-1.18-.14-2.65-.48-3.84-.71a7.74,7.74,0,0,1-1.24-.31c.41-.23.69,0,1.77-.45a3.75,3.75,0,0,0,1.49-1.27,2.13,2.13,0,0,0,.18-1.61c-.19-1.21-2.83-2.26-4.59-.47a4,4,0,0,0-.83,1.44,2.92,2.92,0,0,1-.17.36,11.75,11.75,0,0,0-.29,1.23A10.82,10.82,0,0,1,10.53,21h-1a4.12,4.12,0,0,0-1,0,6.35,6.35,0,0,0-2,.4,8.89,8.89,0,0,0-1.58,1c-.26.19-.25.19-.06.47.29,0,.31-.15.76,0a6.69,6.69,0,0,1,2.08.91,10.22,10.22,0,0,1-3.18.82c-.38.06-2-.12-.41,1.2a21.06,21.06,0,0,0,2.1,1.34l1.07.72c.36.24.65.49,1,.76s.35,0,.55,1l.43,2.59a4.21,4.21,0,0,0,1.52,2.4,2,2,0,0,0,2.4.21,1.88,1.88,0,0,0,1.14-2.12,6.21,6.21,0,0,0-.56-1.36c-.24-.4-.74-.7-1-1.05l1,.16.35,0a7.12,7.12,0,0,0,2.21-.07c.38,0,1.07,0,1.52-.11,2.52-.43,3.63-1.5,5.75-2.29l1.22-.52c.34-.06.07.08.41,0s0-.14.32-.34a3.82,3.82,0,0,1,.53-.2,5.86,5.86,0,0,1,.57-.26c.19-.06.33-.08.53-.16l2.32,2a3.24,3.24,0,0,0,2.61,1.13,3.08,3.08,0,0,0,1.46-.16c.76-.31.8-.63.68-1.27a4.8,4.8,0,0,0-1.1-2.29c-.22-.25-.43-.33-.64-.55a8.69,8.69,0,0,1,3.56-.12c.61.15.87.35,1.14.18-.12-.63-1.23-1.34-1.78-1.66a4.43,4.43,0,0,0-.72-.32A8.06,8.06,0,0,0,33.37,23l-1.5-.32.75-1.93a7.78,7.78,0,0,0,.48-2.11,5.07,5.07,0,0,0,.06-.7c0-.36.26-2,0-2.19-.43-.36-.84.59-1,.89l-.81,1.26c-.22.4-.74.85-1,1.22Zm-.31.93c.12-.11.18-.19.29-.31l.14-.14c.2-.12,0-.11.17,0-.06.07,0,0-.06.1l-.13.36a2.57,2.57,0,0,1-.15.5c-.11.27-.19.71-.29,1-.05.16-.13.32-.19.48a4.66,4.66,0,0,1-.58,1.53,1.64,1.64,0,0,1-.45-.24l.9-2.48a3.16,3.16,0,0,1,.11-.42c.08-.2.19-.2.24-.4ZM17.94,18.75a1.59,1.59,0,0,1-.25,1.41c-.92,1.37-2.52,1.12-2.89,1.38s-.6.19-1.42-.16a9.67,9.67,0,0,1,2-1.84c1-.63,1.5-1,2.52-.79Zm-5.05,3c.16,1,1,1.92.32,4.17a4.25,4.25,0,0,1-2.74,2.78c-.22.1-.39.21-.62.29l-1.11-.65C8.1,27.85,7.61,27.46,6.9,27l-1.51-.87A5.24,5.24,0,0,1,4,24.94c.21-.06.73-.12,1-.16a8.44,8.44,0,0,0,3.38-1c-.54-.74-2.71-1.28-2.75-1.3a5,5,0,0,1,2-.91,11.9,11.9,0,0,1,1.83-.14l1.78.06a6.4,6.4,0,0,1,.87.08c.35,0,.54.16.85.21Zm3.56,1c.09.05,0-.14.14.14a.65.65,0,0,1,0,.19c-.21.17-.19.11-.39,0,0-.21-.06-.32.21-.36Zm3.38.61s.24,0,0,.19h-.05s-.08,0-.05-.14.1-.06.11-.06Zm13-7c.07,0,.06-.07.11.1s0,.14,0,.16,0,.09-.08-.07,0,.06,0-.08v-.11ZM12.46,29c0,.19-.05.2-.18.34l-.08-.21s-.08-.17.26-.13Zm9-5.53a2.73,2.73,0,0,1,1.15.18l-1.16.95a2.51,2.51,0,0,1,0-.55v-.58Zm-7.1,6c0,.13.1.07-.18.31-.19-.46.16-.31.18-.31ZM28.77,17.13c-.29-.43-.44-.23-.76.1a9.69,9.69,0,0,0-1.47,3.11L26.37,22c-.1.57.09.44-.52.74a4.42,4.42,0,0,1-.36-1c0-.16,0-.32,0-.45s-.08-.32-.11-.53a4.42,4.42,0,0,1-.07-1.9A3.09,3.09,0,0,1,28,16.31a.77.77,0,0,1,.84.21,3.7,3.7,0,0,1,.6.92c.18.82-.43,1.52-.76,2.57a5.57,5.57,0,0,0-.31.85c-.1.36-.09.57-.44.83a8.71,8.71,0,0,1-1,.62,7.31,7.31,0,0,1,.4-2.71,6.23,6.23,0,0,1,1.49-2.47ZM17.36,28.27c-.2,0,0,.19-.21-.05a.24.24,0,0,1-.08-.2c.22,0,.26,0,.29.25ZM23.7,23.6a7,7,0,0,1-1.13,1.18A16.16,16.16,0,0,1,21.33,26a3,3,0,0,1,0-.8l.08-.09c.84-.62,1.29-1.35,2.27-1.49Zm5.4-2.39a5.51,5.51,0,0,1-.32,1,3.55,3.55,0,0,1-.42,1,3.63,3.63,0,0,1-.94-.48c.14-.14.37-.23.47-.37s-.1-.06.29-.41c.23-.21.66-.59.92-.78ZM15.66,29.53c0,.21,0,.26-.19.25,0-.18-.14-.15.19-.25ZM13.3,34.34c-.79-.32-1.22-1.25-1.72-2a14.67,14.67,0,0,1-1.21-2.63l1.47.27c.37.11.23.18.66.53a8.17,8.17,0,0,1,.69.63A2.87,2.87,0,0,1,14,32.87c-.08.64-.05,1.19-.66,1.47Zm7.89-7.88s0,0,0,0,0,0,0,0a.35.35,0,0,0,.14,0,29,29,0,0,0,2.13-2.07c.15-.14.31-.24.46-.38s.12-.14.25-.41a5.44,5.44,0,0,0,.84-.08c-.12.18-3.53,3.46-3.87,3.69,0-.32,0-.44,0-.74Zm-3.78,2.73c.07.19.09.31-.15.33-.07-.22-.07-.18.15-.33Zm1.29.09c-.16-.29-.16-.21.14-.39.06.18.08,0,0,.19s0,.1-.18.2ZM32.88,16.79a18,18,0,0,1-.28,2.54,5.59,5.59,0,0,1-.55,1.77c-.17.42-.37,1-.58,1.41l-.41,0a5,5,0,0,1,.47-1.44L31.87,20a3.7,3.7,0,0,1,.17-.35l.49-1.44c.1-.38.13-1.23.35-1.44Zm-11.94,7-.06,1.89c0,.23-.11.55-.1,1.27,0,.26,0,.39-.05.66l-.09,1.26-.3.18c-.14-.31.06-1,.11-1.29s0-.93.08-1.37a18.77,18.77,0,0,1,.41-2.6Zm.2,4c.51,0,.94-.71,1.33-1.08s.92-.86,1.37-1.3.82-.88,1.29-1.27S25.94,23,26.59,23a7.12,7.12,0,0,1-1.33,1.38L23.9,25.81a8.94,8.94,0,0,0-.71.67c-.35.47-2,1.9-2,2.08a2.14,2.14,0,0,1,0-.84ZM32.26,17.26A6.06,6.06,0,0,1,32,18.54c-.05.2-.12.21-.17.4a2.71,2.71,0,0,1-.31.81l-.87,2.45c-.07.2,0,.24-.1.42A5,5,0,0,1,30,23.9c-.3-.24-.32-.06.09-1.18.33-.89.53-1.95.9-3,.1-.29,0-.7.13-.9s1.07-1.5,1.15-1.58Zm-7.88,9.88-2,.8c.11-.26.91-.89,1.16-1.25a2.66,2.66,0,0,1,.81.45Zm1.25-.58-.62.32a7.36,7.36,0,0,1-1.09-.53l.45-.4a3.73,3.73,0,0,0,.61.26l.65.35ZM27.19,26a1.5,1.5,0,0,1-1.34.13,8.81,8.81,0,0,1-1.19-.55l.53-.52,2,.94ZM12.84,34.58a1.26,1.26,0,0,1-1.56-.2A4.11,4.11,0,0,1,10,32.79a16,16,0,0,1-.66-3.57c.3.08.31.1.47.43s.24.51.35.78a15.77,15.77,0,0,0,1.61,3.1c.59.89.86.74,1.05,1ZM28.4,25.67c-.58.3-1-.05-1.47-.23a4.9,4.9,0,0,1-1.41-.75l.25-.22a11.11,11.11,0,0,0,1.32.57l.32.14,1,.49Zm1.7-.35a1.57,1.57,0,0,1-1.59-.08L28,25l-1.88-.85c.1-.13.24-.31.33-.41s0,0,0,0l.41.16a2.3,2.3,0,0,1,.45.14,25.66,25.66,0,0,1,2.72,1.23ZM31.51,25c-.11,0-.76.2-.81.13a.54.54,0,0,0-.44-.25,1.23,1.23,0,0,1-.49-.15,4.19,4.19,0,0,0-.49-.2l-2.45-1.09c.08-.2.1-.17.25-.33a11.06,11.06,0,0,0,1.07.48l2.79,1.12c.25.08.42.24.57.29Zm-.83-1.31a5.51,5.51,0,0,0,1.15.54,3.59,3.59,0,0,1,1.11.61,2.83,2.83,0,0,1-.67.08c-.23-.06-.06-.08-.59-.32l-.6-.27a1.47,1.47,0,0,1-.56-.28c.08-.21,0-.17.16-.36Zm4,1a3.37,3.37,0,0,1-1,.09c-.17-.14.07-.08-.25-.22l-2.6-1.22.19-.61c.15.09,0,0,.17.17s0,.08.22.16l3.3,1.63ZM29,26.06c.24-.06.53,0,.78-.11.42-.1,2-.71,2.38-.51a4.23,4.23,0,0,1,1.75,2.78l-1.17-.75c-1.21-.64-3.49-1.22-3.74-1.41Zm6.57-1.32-2.43-1.41a9.39,9.39,0,0,1,1.73.53,7,7,0,0,1,1.61,1.06l-.91-.18ZM32.75,28c.35.18,1.47.75.89,1.06a3.31,3.31,0,0,1-3.19-.34l-2.62-2.29.47-.17c.15.08.17.16.38.24l2.6.81a9.4,9.4,0,0,1,1.47.69Zm-17.17.33c-.1.21,0,.15-.26.23-.19-.23-.15-.43.13-.47l.13.24Zm.17.43c.18-.2.32-.64.15-.84a.68.68,0,0,0-.9-.05.58.58,0,1,0,.75.89Zm-2-.55-.16.13-.1-.18c.36-.14.18,0,.26.05Zm.34.29s0,0,0-.05.3-.34-.22-.65a.61.61,0,0,0-.75.15c-.35.5.62,1.16.94.55Zm-3-1.16c.21-.21.12-.09.2-.37a.82.82,0,0,0-.52-1.11c-1.86-.86-2.53,1.31-1.42,1.8a1.7,1.7,0,0,0,1.74-.32Z"/></g></g></svg>