<svg xmlns="http://www.w3.org/2000/svg" viewBox="0 0 10.32 10.32"><defs><style>.cls-1{fill:#bdb6ac;fill-rule:evenodd;}.cls-2{fill:none;}</style></defs><title>Asset 5</title><g id="Layer_2" data-name="Layer 2"><g id="Layer_1-2" data-name="Layer 1"><path class="cls-1" d="M4.46,6.22V4.11l1.82,1L4.46,6.22ZM8.53,3.47a.88.88,0,0,0-.62-.62A20.64,20.64,0,0,0,5.16,2.7a20.43,20.43,0,0,0-2.74.15.88.88,0,0,0-.63.62,9.58,9.58,0,0,0-.14,1.69,9.52,9.52,0,0,0,.14,1.69.89.89,0,0,0,.63.63,21.87,21.87,0,0,0,2.74.14,22.1,22.1,0,0,0,2.75-.14.9.9,0,0,0,.62-.63,8.9,8.9,0,0,0,.15-1.69A9,9,0,0,0,8.53,3.47Z"/><rect class="cls-2" width="10.32" height="10.32"/></g></g></svg>